<svg width="24" height="24" viewBox="0 0 24 24" fill="none" xmlns="http://www.w3.org/2000/svg">
<g id="vuesax/linear/cloud-change">
<g id="vuesax/linear/cloud-change_2">
<g id="cloud-change">
<g id="Group">
<path id="Vector" d="M2 15C2 18.87 5.13 22 9 22L7.95001 20.25" stroke="#2372E5" stroke-width="1.5" stroke-linecap="round" stroke-linejoin="round"/>
<path id="Vector_2" d="M22 9C22 5.13 18.87 2 15 2L16.05 3.75" stroke="#2372E5" stroke-width="1.5" stroke-linecap="round" stroke-linejoin="round"/>
<g id="Group 2056">
<g id="Group 2055">
<path id="Vector_3" d="M14 10.2881V11C13.8696 10.9797 13.7215 10.9695 13.5556 10.9661V10.2881C13.5556 9.22034 13.2919 8.50847 12 8.50847C10.7081 8.50847 10.4444 9.22034 10.4444 10.2881V10.9661C10.2785 10.9695 10.1304 10.9797 10 11V10.2881C10 9.30508 10.2074 8 12 8C13.7926 8 14 9.30508 14 10.2881Z" fill="#2372E5" stroke="#2372E5"/>
<path id="Vector_4" d="M15.6777 10.585C15.4498 10.5539 15.1907 10.5384 14.9006 10.5332H9.46084C9.17072 10.5384 8.91169 10.5539 8.68373 10.585C7.36265 10.7456 7 11.3932 7 13.1236V14.1597C7 16.232 7.51807 16.7501 9.59036 16.7501H14.7711C16.8434 16.7501 17.3614 16.232 17.3614 14.1597V13.1236C17.3614 11.3932 16.9988 10.7456 15.6777 10.585ZM10.4763 14.0095C10.3778 14.1027 10.2431 14.1597 10.1084 14.1597C10.0411 14.1597 9.97373 14.1442 9.91157 14.1183C9.84422 14.0924 9.79241 14.0561 9.7406 14.0095C9.64735 13.911 9.59036 13.7763 9.59036 13.6416C9.59036 13.5743 9.6059 13.5069 9.63181 13.4448C9.65771 13.3826 9.69398 13.3256 9.7406 13.2738C9.79241 13.2272 9.84422 13.1909 9.91157 13.165C10.1033 13.0821 10.3312 13.1287 10.4763 13.2738C10.5229 13.3256 10.5592 13.3826 10.5851 13.4448C10.611 13.5069 10.6265 13.5743 10.6265 13.6416C10.6265 13.7763 10.5695 13.911 10.4763 14.0095ZM12.6573 13.8385C12.6314 13.9007 12.5952 13.9577 12.5486 14.0095C12.4501 14.1027 12.3154 14.1597 12.1807 14.1597C12.0408 14.1597 11.9113 14.1027 11.8129 14.0095C11.7663 13.9577 11.73 13.9007 11.7041 13.8385C11.6782 13.7763 11.6627 13.709 11.6627 13.6416C11.6627 13.5018 11.7196 13.3722 11.8129 13.2738C12.0046 13.0821 12.3517 13.0821 12.5486 13.2738C12.6418 13.3722 12.6988 13.5018 12.6988 13.6416C12.6988 13.709 12.6833 13.7763 12.6573 13.8385ZM14.6208 14.0095C14.5224 14.1027 14.3877 14.1597 14.253 14.1597C14.1183 14.1597 13.9836 14.1027 13.8852 14.0095C13.7919 13.911 13.7349 13.7815 13.7349 13.6416C13.7349 13.5018 13.7919 13.3722 13.8852 13.2738C14.082 13.0821 14.4292 13.0821 14.6208 13.2738C14.6416 13.2997 14.6623 13.3256 14.683 13.3567C14.7037 13.3826 14.7193 13.4137 14.7296 13.4448C14.7452 13.4759 14.7555 13.5069 14.7607 13.538C14.7659 13.5743 14.7711 13.6106 14.7711 13.6416C14.7711 13.7763 14.7141 13.911 14.6208 14.0095Z" fill="#2372E5"/>
</g>
</g>
</g>
</g>
</g>
</g>
</svg>
