<?xml version="1.0" encoding="UTF-8" standalone="no"?>
<svg
   xmlns:dc="http://purl.org/dc/elements/1.1/"
   xmlns:cc="http://creativecommons.org/ns#"
   xmlns:rdf="http://www.w3.org/1999/02/22-rdf-syntax-ns#"
   xmlns:svg="http://www.w3.org/2000/svg"
   xmlns="http://www.w3.org/2000/svg"
   viewBox="0 0 513.13867 220.45467"
   height="220.45467"
   width="513.13867"
   xml:space="preserve"
   id="svg2"
   version="1.1"><metadata
     id="metadata8"><rdf:RDF><cc:Work
         rdf:about=""><dc:format>image/svg+xml</dc:format><dc:type
           rdf:resource="http://purl.org/dc/dcmitype/StillImage" /></cc:Work></rdf:RDF></metadata><defs
     id="defs6"><clipPath
       id="clipPath18"
       clipPathUnits="userSpaceOnUse"><path
         id="path16"
         d="M 0,165.341 H 384.854 V 0 H 0 Z" /></clipPath></defs><g
     transform="matrix(1.3333333,0,0,-1.3333333,0,220.45467)"
     id="g10"><g
       id="g12"><g
         clip-path="url(#clipPath18)"
         id="g14"><g
           transform="translate(34.8308,81.4931)"
           id="g20"><path
             id="path22"
             style="fill:#0e4196;fill-opacity:1;fill-rule:nonzero;stroke:none"
             d="m 0,0 c -0.109,-3.263 0.28,-7.607 1.007,-11.93 0.236,-1.401 0.583,-2.771 0.995,-4.125 4.689,-15.423 14.373,-25.427 30.694,-28.156 4.167,-0.697 8.392,-0.597 12.589,-0.436 5.301,0.203 10.512,0.94 15.341,3.424 3.966,2.04 7.401,4.482 8.636,9.112 0.819,3.07 0.962,6.079 -0.381,9.025 -1.007,2.21 -2.883,3.1 -5.191,2.49 -2.253,-0.597 -4.489,-1.252 -6.7,-2.004 -4.727,-1.609 -9.564,-2.581 -14.584,-1.94 -7.631,0.973 -13.382,4.711 -16.124,12.048 -2.206,5.907 -2.908,12.103 -2.056,18.432 0.559,4.158 1.374,8.207 3.492,11.901 2.02,3.523 4.832,6.158 8.638,7.598 5.573,2.11 11.26,1.943 16.949,0.518 3.393,-0.85 6.599,-2.33 10.034,-3.051 1.302,-0.272 2.441,0.002 3.211,1.121 3.026,4.394 3.194,10.47 -0.545,14.559 -2.301,2.517 -5.036,4.349 -8.2,5.545 -6.072,2.295 -12.361,3.284 -18.851,3.05 C 31.508,46.913 24.491,45.278 18.103,41.216 10.882,36.624 6.035,30.235 3.194,22.249 0.764,15.418 -0.03,8.331 0,0 m 110.719,1.854 c 0,-10.873 0.011,-21.746 -0.011,-32.62 -0.004,-1.996 -0.082,-3.997 -0.228,-5.989 -0.196,-2.659 -1.429,-4.696 -3.732,-6.144 -4.269,-2.684 -8.687,-5.103 -13.063,-7.599 -7.088,-4.044 -14.08,-8.254 -21.141,-12.346 -9.799,-5.678 -19.653,-11.261 -29.414,-17.001 -2.281,-1.341 -4.522,-2.072 -7.094,-1.386 -1.294,0.344 -2.442,1.067 -3.594,1.731 -6.313,3.636 -12.614,7.292 -18.915,10.948 -5.363,3.112 -10.711,6.252 -16.084,9.346 -5.52,3.178 -11.072,6.301 -16.594,9.476 -4.114,2.365 -8.253,4.694 -12.285,7.194 -2.175,1.348 -2.975,3.652 -3.132,6.111 -0.168,2.616 -0.248,5.242 -0.251,7.863 -0.018,21.246 -0.009,42.493 -0.012,63.739 0,1.5 0.004,2.999 0.251,4.484 0.379,2.277 1.335,4.219 3.378,5.439 4.825,2.882 9.592,5.854 14.547,8.523 4.616,2.486 9.062,5.286 13.6,7.918 7.384,4.282 14.784,8.538 22.174,12.809 4.723,2.729 9.435,5.48 14.166,8.196 2.856,1.639 5.817,1.767 8.702,0.173 4.044,-2.236 8.016,-4.603 12.02,-6.912 10.172,-5.863 20.346,-11.721 30.516,-17.588 7.536,-4.348 15.08,-8.684 22.591,-13.077 2.032,-1.188 3.063,-3.125 3.363,-5.432 0.198,-1.528 0.252,-3.068 0.25,-4.612 -0.012,-11.081 -0.006,-22.163 -0.008,-33.244" /></g><g
           transform="translate(267.853,103.1123)"
           id="g24"><path
             id="path26"
             style="fill:#0e4196;fill-opacity:1;fill-rule:nonzero;stroke:none"
             d="m 0,0 c 0,-2.458 0.017,-4.917 -0.009,-7.374 -0.009,-0.829 0.282,-1.235 1.154,-1.228 3.5,0.027 7.004,-0.079 10.497,0.073 3.044,0.132 5.655,1.232 7.296,4.069 0.911,1.574 0.963,3.234 0.926,4.952 -0.089,4.095 -2.96,7.33 -7.01,7.836 C 8.87,8.826 4.866,8.444 0.873,8.553 0.003,8.577 -0.005,7.994 -0.004,7.374 0.001,4.916 -0.002,2.458 0,0 m -0.003,-36.874 v -8.373 c 0,-3.165 0,-3.145 3.079,-3.125 3.285,0.02 6.574,-0.302 9.853,0.06 4.165,0.459 8.253,3.054 8.895,7.744 0.231,1.689 0.276,3.371 0.097,5.094 -0.708,6.798 -4.489,8.981 -9.688,9.745 -3.629,0.534 -7.316,0.244 -10.978,0.301 -1.01,0.016 -1.283,-0.375 -1.272,-1.324 0.04,-3.373 0.016,-6.748 0.014,-10.122 m 29.534,18.86 c 0.835,-0.184 1.674,-0.35 2.504,-0.557 7.292,-1.814 11.78,-6.276 13.287,-13.749 1.383,-6.862 0.368,-13.423 -2.711,-19.54 -3.28,-6.518 -8.79,-10.599 -15.764,-12.781 -4.224,-1.322 -8.528,-1.805 -12.921,-1.802 -10.662,0.007 -21.325,0.009 -31.987,-0.007 -1.313,-0.002 -2.579,0.227 -3.8,0.643 -2.463,0.84 -2.851,3.041 -3.24,5.194 -0.095,0.526 -0.035,1.081 -0.035,1.622 -0.001,25.74 -0.002,51.48 0,77.22 0,5.527 1.929,7.461 7.44,7.463 10.579,0.002 21.16,0.094 31.737,-0.041 5.086,-0.064 10.145,-0.721 14.864,-2.841 6.253,-2.809 10.389,-7.456 12.171,-14.156 1.279,-4.811 1.334,-9.608 0.156,-14.432 -1.28,-5.244 -4.529,-8.78 -9.43,-10.891 -0.782,-0.338 -1.546,-0.719 -2.318,-1.081 0.015,-0.088 0.031,-0.176 0.047,-0.264" /></g><g
           transform="translate(206.7161,97.1969)"
           id="g28"><path
             id="path30"
             style="fill:#0e4196;fill-opacity:1;fill-rule:nonzero;stroke:none"
             d="m 0,0 c 0,8.29 -0.002,16.58 0.004,24.871 0,0.581 -0.006,1.174 0.096,1.742 0.609,3.377 2.15,4.835 5.659,4.943 4.203,0.129 8.416,0.124 12.62,0.013 3.552,-0.093 5.371,-2.061 5.716,-5.823 0.027,-0.29 0.034,-0.583 0.033,-0.874 C 24.12,8.583 24.221,-7.707 24.041,-23.993 23.978,-29.686 23.2,-35.368 21.209,-40.788 18.295,-48.723 13.038,-54.383 5.117,-57.536 c -7.263,-2.891 -14.77,-3.398 -22.458,-2.65 -3.962,0.385 -7.834,1.138 -11.538,2.579 -7.002,2.724 -12.068,7.535 -15.188,14.389 -2.476,5.439 -3.242,11.236 -3.692,17.113 -0.481,6.283 -0.192,12.574 -0.225,18.86 -0.058,10.665 -0.018,21.33 -0.012,31.994 0,0.623 -0.012,1.259 0.097,1.868 0.607,3.391 2.233,4.864 5.784,4.951 4.122,0.102 8.25,0.096 12.372,0.012 3.645,-0.075 5.569,-2.113 5.844,-5.961 0.047,-0.664 0.032,-1.332 0.032,-1.999 0.002,-15.997 -0.015,-31.994 0.014,-47.991 0.006,-3.596 0.464,-7.1 1.976,-10.462 3.018,-6.711 11.403,-8.183 16.89,-3.864 1.253,0.986 2.206,2.258 2.831,3.753 C -0.741,-31.561 0,-28.042 0,-24.371 -0.001,-16.247 0,-8.124 0,0" /></g><g
           transform="translate(325.7159,82.7128)"
           id="g32"><path
             id="path34"
             style="fill:#0e4196;fill-opacity:1;fill-rule:nonzero;stroke:none"
             d="m 0,0 v 37.742 c 0,0.375 -0.001,0.75 0,1.125 0.013,5.206 2.002,7.22 7.175,7.223 15.247,0.006 30.494,0.002 45.741,0.002 0.667,0 1.324,-0.032 1.983,-0.186 3.17,-0.741 4.232,-2.064 4.235,-5.341 0.002,-2.916 -10e-4,-5.832 10e-4,-8.749 0.001,-0.668 -0.037,-1.326 -0.236,-1.975 -0.704,-2.298 -1.829,-3.232 -4.226,-3.285 -1.579,-0.035 -3.161,0.122 -4.742,0.126 -6.249,0.017 -12.498,0.019 -18.747,-0.002 -1.62,-0.005 -3.238,-0.231 -4.862,0 -0.915,0.131 -1.276,-0.336 -1.273,-1.229 0.022,-4.994 0.039,-9.988 0.022,-14.983 -0.003,-1.09 0.614,-1.168 1.458,-1.166 5.916,0.015 11.831,0.005 17.747,-10e-4 0.582,-10e-4 1.17,0.01 1.747,-0.058 2.651,-0.31 4.099,-1.929 4.108,-4.593 0.012,-3.333 0.015,-6.666 -10e-4,-9.998 -0.015,-3.062 -1.658,-4.696 -4.683,-4.696 -5.832,-10e-4 -11.664,0.007 -17.496,-0.004 -2.894,-0.005 -2.899,-0.02 -2.898,-2.893 0,-3.996 0.035,-7.992 -0.001,-11.988 -0.009,-1.075 0.292,-1.64 1.458,-1.628 1.414,0.015 2.829,-0.095 4.244,-0.097 7.874,-0.015 15.747,-0.036 23.62,-0.001 2.001,0.008 3.454,-0.709 4.346,-2.53 0.324,-0.66 0.42,-1.336 0.418,-2.055 -0.01,-3.166 0.002,-6.332 -0.005,-9.498 -0.008,-3.301 -1.595,-5.013 -4.896,-5.281 -0.456,-0.037 -0.916,-0.023 -1.374,-0.023 -15.122,-10e-4 -30.244,-10e-4 -45.366,0 -0.417,0 -0.834,-0.008 -1.25,0.014 -4.07,0.211 -6.132,2.322 -6.237,6.411 C -0.023,-38.326 0,-37.034 0,-35.743 0,-23.829 0,-11.914 0,0" /></g><g
           transform="translate(368.0938,20.7653)"
           id="g36"><path
             id="path38"
             style="fill:#0e4196;fill-opacity:1;fill-rule:nonzero;stroke:none"
             d="m 0,0 c -0.181,-4.277 -0.363,-8.555 -0.543,-12.832 -0.028,-0.655 0.149,-1.455 -0.614,-1.761 -0.986,-0.395 -2.058,-0.352 -3.051,0.006 -0.498,0.18 -0.416,0.779 -0.392,1.227 0.185,3.572 0.364,7.144 0.594,10.714 0.148,2.282 0.427,4.556 0.551,6.839 0.058,1.076 0.573,1.351 1.515,1.297 1.326,-0.076 2.783,0.358 3.947,-0.261 1.295,-0.69 0.934,-2.367 1.338,-3.585 0.705,-2.127 1.266,-4.31 1.674,-6.525 0.185,-1.009 0.416,-2.022 1.165,-3.051 0.372,1.564 0.74,2.946 1.024,4.345 0.564,2.781 1.577,5.432 2.302,8.166 0.162,0.61 0.495,0.936 1.135,0.935 1.374,-0.004 2.748,-0.014 4.122,-0.002 0.779,0.007 0.968,-0.428 0.993,-1.115 0.144,-4.033 0.283,-8.067 0.484,-12.098 0.095,-1.909 0.307,-3.814 0.5,-5.717 0.101,-1.006 -0.248,-1.415 -1.31,-1.427 -3.05,-0.033 -3.002,-0.069 -3.072,2.914 -0.099,4.18 -0.275,8.358 -0.424,12.685 -0.555,-0.606 -0.711,-1.261 -0.863,-1.88 -0.993,-4.043 -2.446,-7.958 -3.31,-12.034 -0.18,-0.848 -0.643,-1.207 -1.479,-1.177 -0.457,0.017 -0.916,0.02 -1.374,0.006 -0.784,-0.022 -1.209,0.315 -1.389,1.11 -0.672,2.962 -1.378,5.917 -2.1,8.868 C 1.063,-2.878 0.642,-1.417 0.249,0.051 0.166,0.034 0.083,0.017 0,0" /></g><g
           transform="translate(242.4315,20.8024)"
           id="g40"><path
             id="path42"
             style="fill:#0e4196;fill-opacity:1;fill-rule:nonzero;stroke:none"
             d="m 0,0 c -0.115,-2.461 -0.252,-4.769 -0.323,-7.079 -0.068,-2.204 0.003,-4.411 -0.224,-6.614 -0.085,-0.834 -0.357,-1.195 -1.213,-1.169 -3.07,0.094 -3.076,-0.523 -2.767,2.886 0.413,4.555 0.78,9.119 0.816,13.701 0.03,3.744 0.037,3.744 3.757,3.75 2.525,0.005 2.579,0.016 3.123,-2.484 0.734,-3.374 1.837,-6.659 2.4,-10.074 0.044,-0.265 0.015,-0.604 0.436,-0.752 0.714,0.812 0.851,1.861 0.995,2.861 0.439,3.072 1.626,5.937 2.381,8.92 0.282,1.117 0.941,1.68 2.171,1.567 0.992,-0.09 1.998,-0.051 2.997,-0.031 0.727,0.015 1.062,-0.292 1.101,-1.022 0.31,-5.857 0.91,-11.698 1.005,-17.568 0.027,-1.669 -0.064,-1.743 -1.76,-1.749 -2.607,-0.009 -2.58,-0.009 -2.616,2.553 -0.057,4.158 0.204,8.324 -0.272,12.638 -0.664,-0.971 -0.993,-1.947 -1.223,-2.927 -0.821,-3.49 -2.102,-6.84 -3.038,-10.293 -0.241,-0.891 -0.531,-1.515 -1.628,-1.499 -1.147,0.016 -2.205,0.042 -2.55,1.421 -0.435,1.734 -0.879,3.465 -1.286,5.205 -0.52,2.227 -1.002,4.463 -1.518,6.69 C 0.685,-0.723 0.663,-0.316 0,0" /></g><g
           transform="translate(329.0454,20.0098)"
           id="g44"><path
             id="path46"
             style="fill:#0e4196;fill-opacity:1;fill-rule:nonzero;stroke:none"
             d="m 0,0 c 0,-1.688 -0.002,-3.377 0,-5.065 0.004,-2.458 -0.026,-4.916 0.033,-7.371 0.028,-1.149 -0.326,-1.657 -1.559,-1.646 -2.516,0.023 -2.518,-0.029 -2.517,2.433 0.002,5.456 0.001,10.912 0.009,16.367 0.002,1.565 0.062,1.415 1.624,1.608 C 0.236,6.652 1.858,5.683 2.94,3.242 4.17,0.468 5.68,-2.181 7.076,-4.881 7.34,-5.392 7.64,-5.883 8.103,-6.699 c 0,2.364 0.095,4.372 -0.028,6.367 C 7.962,1.501 8.009,3.329 7.969,5.159 7.952,5.94 8.304,6.25 9.096,6.292 c 2.954,0.156 2.951,0.177 2.95,-2.819 -10e-4,-5.247 0.005,-10.495 0.002,-15.742 -10e-4,-1.737 -0.079,-1.621 -1.713,-1.835 -2.373,-0.311 -3.462,0.763 -4.386,2.827 C 4.224,-7.425 2.179,-3.717 0.268,0.051 0.178,0.034 0.089,0.017 0,0" /></g><g
           transform="translate(352.4144,22.3699)"
           id="g48"><path
             id="path50"
             style="fill:#0e4196;fill-opacity:1;fill-rule:nonzero;stroke:none"
             d="m 0,0 c -0.076,0.006 -0.152,0.013 -0.227,0.019 -0.21,-0.655 -0.446,-1.303 -0.625,-1.967 -0.346,-1.284 -0.575,-2.606 -1.009,-3.859 -0.614,-1.776 -0.674,-1.756 1.224,-1.759 0.083,0 0.166,0 0.25,0 C 1.896,-7.567 1.892,-7.568 1.341,-5.38 0.89,-3.587 0.447,-1.793 0,0 M -0.209,3.912 C 2.829,3.884 2.763,3.865 3.607,0.953 5.147,-4.36 6.766,-9.65 8.37,-14.944 c 0.405,-1.339 0.321,-1.489 -1.09,-1.481 -3.292,0.018 -3.292,0.018 -4.041,3.226 -0.522,2.236 -0.522,2.236 -2.895,2.239 -0.208,0 -0.416,0 -0.624,0.001 -2.741,0.002 -2.731,-0.001 -3.305,-2.717 -0.12,-0.566 -0.358,-1.106 -0.526,-1.663 -0.242,-0.801 -0.791,-1.097 -1.602,-1.088 -3.315,0.04 -3.368,-0.304 -2.328,2.9 1.606,4.946 2.976,9.964 4.252,15.007 0.624,2.464 0.641,2.459 3.58,2.432" /></g><g
           transform="translate(229.0434,5.9578)"
           id="g52"><path
             id="path54"
             style="fill:#0e4196;fill-opacity:1;fill-rule:nonzero;stroke:none"
             d="m 0,0 c -1.708,0 -3.416,0.017 -5.124,-0.007 -0.845,-0.012 -1.186,0.331 -1.181,1.194 0.032,5.915 0.046,11.831 0.033,17.747 -0.002,0.999 0.335,1.421 1.383,1.405 3.082,-0.049 6.166,-0.057 9.248,-0.008 1.072,0.017 1.577,-0.326 1.451,-1.43 C 5.782,18.654 5.782,18.399 5.811,18.152 5.936,17.088 5.53,16.639 4.408,16.693 c -1.579,0.074 -3.165,10e-4 -4.748,0.02 -1.047,0.013 -1.576,-0.296 -1.572,-1.513 0.007,-2.888 -0.056,-2.889 2.846,-2.887 1.042,10e-4 2.084,-0.01 3.125,0.024 0.822,0.027 1.201,-0.289 1.255,-1.15 C 5.477,8.618 5.502,8.631 2.925,8.701 1.759,8.733 0.592,8.706 -0.574,8.703 -1.421,8.701 -1.839,8.347 -1.893,7.429 -2.098,3.924 -2.052,3.849 1.396,3.848 2.604,3.847 3.813,3.822 5.02,3.852 5.877,3.874 6.24,3.466 6.238,2.652 6.238,2.61 6.241,2.569 6.243,2.527 6.404,0.099 6.286,-0.027 3.874,-0.015 3.208,-0.011 2.541,-0.011 1.875,-0.01 c -0.625,0.001 -1.25,0 -1.875,0 z" /></g><g
           transform="translate(293.7168,16.0748)"
           id="g56"><path
             id="path58"
             style="fill:#0e4196;fill-opacity:1;fill-rule:nonzero;stroke:none"
             d="m 0,0 c 0,2.915 0.035,5.83 -0.018,8.744 -0.02,1.099 0.4,1.465 1.464,1.454 3.081,-0.034 6.163,-0.03 9.243,0.026 1.074,0.02 1.571,-0.34 1.448,-1.437 C 12.109,8.54 12.105,8.283 12.138,8.038 12.301,6.841 11.706,6.532 10.615,6.577 9.077,6.642 7.533,6.569 5.993,6.599 4.889,6.621 4.317,6.299 4.344,5.026 4.41,1.953 4.048,2.221 7.173,2.198 8.214,2.191 9.257,2.178 10.296,2.22 c 0.922,0.037 1.295,-0.398 1.272,-1.271 -0.006,-0.25 0.006,-0.5 0.009,-0.75 0.019,-1.718 -0.134,-1.802 -1.866,-1.678 -1.409,0.1 -2.829,0.05 -4.244,0.061 -0.784,0.006 -1.119,-0.397 -1.099,-1.173 0.021,-0.832 0.02,-1.667 -0.018,-2.498 -0.039,-0.865 0.357,-1.194 1.195,-1.184 1.79,0.023 3.582,-0.039 5.371,0.02 1.058,0.035 1.586,-0.306 1.467,-1.418 -0.026,-0.246 0.001,-0.499 0.001,-0.749 -0.005,-1.605 -0.102,-1.71 -1.686,-1.712 -3.039,-0.004 -6.081,0.061 -9.118,-0.024 -1.302,-0.036 -1.638,0.435 -1.605,1.662 C 0.05,-5.664 -0.001,-2.832 0,0" /></g><g
           transform="translate(274.1969,5.9425)"
           id="g60"><path
             id="path62"
             style="fill:#0e4196;fill-opacity:1;fill-rule:nonzero;stroke:none"
             d="m 0,0 c -0.416,0 -0.835,0.033 -1.248,-0.007 -0.806,-0.078 -1.197,0.291 -1.424,1.05 -1.824,6.092 -3.67,12.177 -5.527,18.26 -0.213,0.699 -0.049,1.044 0.702,1.049 0.083,0.001 0.166,0.001 0.249,0.004 3.428,0.12 3.472,0.131 4.308,-3.152 C -1.976,13.42 -0.702,9.713 -0.092,5.84 -0.054,5.599 -0.045,5.308 0.289,5.292 0.53,5.28 0.649,5.497 0.725,5.681 c 0.187,0.461 0.416,0.922 0.497,1.405 0.704,4.153 2.141,8.118 3.082,12.208 0.18,0.785 0.611,1.113 1.41,1.072 0.705,-0.037 1.428,-0.089 2.118,0.021 C 8.99,20.57 9.076,20.039 8.917,19.11 8.676,17.698 8.012,16.436 7.589,15.089 6.293,10.967 4.881,6.881 3.615,2.75 2.581,-0.625 2.686,0.069 0,0" /></g><g
           transform="translate(164.6587,5.6809)"
           id="g64"><path
             id="path66"
             style="fill:#0e4196;fill-opacity:1;fill-rule:nonzero;stroke:none"
             d="m 0,0 c -2.047,-0.021 -3.548,0.488 -5.06,0.952 -0.602,0.186 -0.771,0.616 -0.648,1.165 0.173,0.769 0.368,1.537 0.613,2.286 0.239,0.732 0.757,0.42 1.231,0.267 1.582,-0.509 3.158,-1.111 4.861,-0.553 0.841,0.275 1.702,0.539 1.825,1.621 0.12,1.051 -0.418,1.76 -1.271,2.243 -1.41,0.798 -2.96,1.325 -4.3,2.265 -3.01,2.112 -3.692,6.003 -1.274,8.408 1.949,1.938 4.403,2.768 7.198,2.235 0.45,-0.086 0.894,-0.198 1.34,-0.3 C 6.343,20.173 6.556,19.783 6.1,17.987 5.845,16.98 5.319,16.671 4.284,16.847 3.034,17.059 1.779,17.535 0.476,17.022 -0.298,16.717 -0.981,16.35 -1.063,15.419 -1.144,14.489 -0.699,13.811 0.083,13.361 1.024,12.82 2.047,12.475 3.068,12.109 7.813,10.407 8.585,5.59 6.115,2.569 4.462,0.548 1.997,0.23 0,0" /></g><g
           transform="translate(196.3765,5.6702)"
           id="g68"><path
             id="path70"
             style="fill:#0e4196;fill-opacity:1;fill-rule:nonzero;stroke:none"
             d="m 0,0 c -1.68,-0.011 -3.096,0.507 -4.532,0.924 -0.629,0.183 -0.852,0.618 -0.725,1.248 0.049,0.245 0.095,0.49 0.149,0.734 0.433,1.988 0.421,1.942 2.321,1.411 1.52,-0.425 3.066,-0.825 4.623,-0.035 1.639,0.833 1.815,2.484 0.237,3.521 -1.279,0.841 -2.72,1.43 -4.057,2.188 -1.972,1.119 -3.236,2.669 -3.162,5.11 0.057,1.902 0.758,3.388 2.36,4.418 2.813,1.808 5.773,1.923 8.818,0.689 C 7.07,19.788 6.546,18.933 6.424,18.256 6.291,17.516 6.092,16.715 5.05,16.825 4.348,16.899 3.653,17.047 2.952,17.136 2.501,17.193 2.03,17.291 1.593,17.218 0.542,17.042 -0.527,16.739 -0.747,15.498 -0.967,14.255 -0.131,13.579 0.875,13.126 1.822,12.699 2.806,12.353 3.767,11.955 6.465,10.838 7.728,8.934 7.693,6.057 7.663,3.659 6.319,1.873 3.712,0.879 2.473,0.407 1.231,-0.128 0,0" /></g><g
           transform="translate(179.5208,10.5169)"
           id="g72"><path
             id="path74"
             style="fill:#0e4196;fill-opacity:1;fill-rule:nonzero;stroke:none"
             d="m 0,0 c 0.685,3.82 -1.377,6.831 -2.956,9.978 -0.803,1.599 -1.653,3.175 -2.495,4.754 -0.364,0.681 -0.186,1.02 0.587,1.044 0.083,0.003 0.166,0 0.25,0.003 3.544,0.126 3.545,0.126 4.851,-3.314 0.561,-1.477 0.978,-3.011 1.737,-4.409 0.13,-0.237 0.218,-0.62 0.583,-0.559 0.342,0.058 0.347,0.429 0.412,0.702 0.517,2.155 1.551,4.126 2.212,6.229 0.288,0.919 0.924,1.398 1.867,1.332 1.089,-0.075 2.57,0.545 3.155,-0.414 C 10.681,14.562 9.601,13.46 9.063,12.621 7.46,10.124 6.194,7.453 4.801,4.847 4.353,4.011 4.352,3.08 4.339,2.168 4.314,0.336 4.302,-1.498 4.339,-3.33 4.358,-4.243 3.997,-4.56 3.089,-4.585 -0.053,-4.669 -0.051,-4.696 -0.001,-1.5 0.007,-1 0,-0.5 0,0" /></g><g
           transform="translate(210.7147,14.2728)"
           id="g76"><path
             id="path78"
             style="fill:#0e4196;fill-opacity:1;fill-rule:nonzero;stroke:none"
             d="m 0,0 c 0,2.289 -0.041,4.579 0.018,6.867 0.027,1.052 -0.387,1.425 -1.391,1.369 -0.83,-0.046 -1.664,0 -2.497,-0.013 -0.759,-0.012 -1.105,0.288 -1.143,1.105 -0.125,2.645 -0.138,2.661 2.484,2.665 3.537,0.004 7.075,0.015 10.613,0.004 C 9.648,11.993 9.815,11.66 9.862,9.6 9.893,8.229 9.101,8.129 8.091,8.175 7.758,8.19 7.425,8.187 7.092,8.191 4.54,8.217 4.453,8.218 4.43,5.626 4.396,1.842 4.253,-1.947 4.534,-5.729 4.564,-6.144 4.563,-6.561 4.561,-6.977 4.56,-7.184 4.594,-7.435 4.495,-7.59 3.547,-9.072 2.086,-8.074 0.875,-8.288 0.044,-8.435 0.003,-7.73 0.003,-7.117 0.003,-4.745 0.003,-2.372 0,0" /></g><g
           transform="translate(313.0121,14.232)"
           id="g80"><path
             id="path82"
             style="fill:#0e4196;fill-opacity:1;fill-rule:nonzero;stroke:none"
             d="m 0,0 c 0,2.288 -0.039,4.577 0.017,6.863 0.026,1.04 -0.371,1.429 -1.383,1.384 -0.912,-0.041 -1.83,0.037 -2.744,0.018 -0.827,-0.016 -1.176,0.302 -1.201,1.173 -0.076,2.57 -0.107,2.578 2.434,2.589 C 0.867,12.043 4.612,12.01 8.354,12.076 9.516,12.097 9.965,11.68 9.843,10.555 9.807,10.226 9.811,9.888 9.84,9.557 9.929,8.565 9.416,8.214 8.502,8.229 7.587,8.245 6.669,8.189 5.757,8.24 4.671,8.3 4.296,7.831 4.305,6.765 4.339,2.439 4.319,-1.888 4.31,-6.214 4.305,-8.192 4.24,-8.247 2.282,-8.252 1.991,-8.253 1.698,-8.224 1.409,-8.246 0.302,-8.332 -0.035,-7.781 -0.013,-6.739 0.034,-4.493 0.001,-2.246 0,0" /></g><g
           transform="translate(290.073,16.0481)"
           id="g84"><path
             id="path86"
             style="fill:#0e4196;fill-opacity:1;fill-rule:nonzero;stroke:none"
             d="m 0,0 c 0,-2.83 -0.035,-5.661 0.017,-8.491 0.021,-1.14 -0.292,-1.683 -1.546,-1.629 -3.042,0.129 -3.15,-0.572 -3.001,3.024 0.187,4.534 0.263,9.063 0.014,13.597 -0.043,0.782 0.187,1.584 0.119,2.361 -0.102,1.173 0.452,1.393 1.468,1.383 2.994,-0.03 2.926,0.392 2.919,-2.878 C -0.015,4.912 -0.011,2.456 -0.011,0 -0.007,0 -0.004,0 0,0" /></g></g></g></g></svg>