<svg width="24" height="24" viewBox="0 0 24 24" fill="none" xmlns="http://www.w3.org/2000/svg">
<g id="vuesax/bold/export">
<g id="vuesax/bold/export_2">
<g id="export">
<path id="Vector" d="M15 16.8L15 12.75L8.75 12.75C8.34 12.75 8 12.41 8 12C8 11.59 8.34 11.25 8.75 11.25L15 11.25L15 7.2C15 4 13 2 9.8 2L7.21 2C4 2 2 4 2 7.2L2 16.79C2 19.99 4 21.99 7.2 21.99L9.8 21.99C13 22 15 20 15 16.8Z" fill="#ED4C5F"/>
<path id="Vector_2" d="M18.233 13.2498L17.0165 14.4663C16.7678 14.715 16.6501 15.0344 16.6501 15.3498C16.6501 15.6653 16.7678 15.9847 17.0165 16.2334C17.5018 16.7187 18.2984 16.7187 18.7836 16.2334L22.1336 12.8834C22.6189 12.3981 22.6189 11.6016 22.1336 11.1163L18.7836 7.76629C18.2983 7.28103 17.5018 7.28103 17.0165 7.76629C16.5312 8.25155 16.5312 9.04814 17.0165 9.5334L18.233 10.7498L8.75016 10.7498C8.05971 10.7498 7.5 11.3096 7.5 12C7.5 12.6903 8.05957 13.2498 8.74984 13.2498L18.233 13.2498Z" fill="#ED4C5F" stroke="white"/>
</g>
</g>
</g>
</svg>
