<?xml version="1.0" encoding="utf-8"?>
<!-- Generator: Adobe Illustrator 27.7.0, SVG Export Plug-In . SVG Version: 6.00 Build 0)  -->
<svg version="1.1" id="Layer_1" xmlns="http://www.w3.org/2000/svg" xmlns:xlink="http://www.w3.org/1999/xlink" x="0px" y="0px"
	 viewBox="0 0 453.28 347.4" style="enable-background:new 0 0 453.28 347.4;" xml:space="preserve">
<style type="text/css">
	.st0{display:none;}
	.st1{display:inline;}
	.st2{fill:url(#SVGID_1_);}
	.st3{opacity:0.43;}
	.st4{fill:url(#SVGID_00000090984829563132840530000000685883911445752707_);}
	.st5{fill:url(#SVGID_00000098211692416143680860000018381974443751570874_);}
	.st6{fill:url(#SVGID_00000160152243572800391640000003620388195276492700_);}
	.st7{fill:url(#SVGID_00000183225483003674761980000011659110595413943171_);}
	.st8{fill:#29A9E0;}
	.st9{fill:url(#SVGID_00000057833786429665474410000015058597764978909869_);}
	.st10{fill:#4D8593;}
	.st11{fill:url(#SVGID_00000018234718510894978360000009066386213902277553_);}
	.st12{fill:url(#SVGID_00000164473438954685581110000008010641305440712097_);}
	.st13{fill:url(#SVGID_00000065786179422131746170000001174273816525762451_);}
	.st14{fill:url(#SVGID_00000088838446209197492350000001176608993542571696_);}
	.st15{fill:url(#SVGID_00000022561622137427560360000002996280441056449945_);}
	.st16{fill:#F2F2F2;}
	.st17{fill:url(#SVGID_00000062914611104713064310000016260064396028069779_);}
	.st18{fill:url(#SVGID_00000177476421384715643830000006471680064143133847_);}
	.st19{fill:url(#SVGID_00000125576119357710719710000013042217216884372108_);}
	.st20{fill:url(#SVGID_00000013176618779972978080000000652080884178829201_);}
	.st21{fill:#001E48;}
	.st22{fill:#274EF2;}
	.st23{fill:#E26B6D;}
	.st24{fill:#FFFFFF;}
	.st25{fill:url(#SVGID_00000182506188376231124960000013097861991254724268_);}
	.st26{fill:url(#SVGID_00000173162512641270477140000003863320735532917904_);}
	.st27{fill:#F1CBB3;}
	.st28{fill:#E29F77;}
	.st29{fill:#EAAB3B;}
	.st30{fill:#253770;}
	.st31{fill:url(#SVGID_00000089555417533240945040000014841401656098444427_);}
	.st32{fill:url(#SVGID_00000000187434242714085480000018071112906299761042_);}
	.st33{fill:url(#SVGID_00000033337137503243214210000004238026787493423283_);}
	.st34{fill:url(#SVGID_00000047750405436610654770000017890735127300431235_);}
	.st35{fill:#A7ADC0;}
	.st36{fill:url(#SVGID_00000132053758133585076860000015923356288581626547_);}
	.st37{fill:url(#SVGID_00000017517724228924013670000007453152632984151741_);}
	.st38{fill:url(#SVGID_00000005251318702389914380000002565545630675272077_);}
	.st39{fill:#EDC2A9;}
	.st40{fill:#DBBDAF;}
	.st41{fill:url(#SVGID_00000121958940607999089180000010587984018254427578_);}
	.st42{fill:url(#SVGID_00000018915579946156714590000017055055555452952744_);}
	.st43{fill:#5DA1F0;}
	.st44{fill:url(#SVGID_00000005975648632289234730000016888651812938975139_);}
	.st45{fill:url(#SVGID_00000001664814042087786490000009623956531972156575_);}
	.st46{fill:url(#SVGID_00000087371460480601098100000015915133104761580419_);}
	.st47{fill:url(#SVGID_00000165228841897416380830000006161228161235858867_);}
	.st48{fill:url(#SVGID_00000152986504143789547740000007076267956005922732_);}
	.st49{fill:url(#SVGID_00000163770720831495844460000017509892998085621902_);}
	.st50{fill:url(#SVGID_00000000936147612488333150000005869431861443410364_);}
	.st51{fill:url(#SVGID_00000180327653838861158690000012834076973755161739_);}
	.st52{fill:url(#SVGID_00000021803781331606852680000005836140199612839555_);}
	.st53{fill:url(#SVGID_00000107546887293221660600000014626050122051481998_);}
	.st54{fill:url(#SVGID_00000003063055460241286760000001720946525277946533_);}
	.st55{fill:url(#SVGID_00000124877182759128497450000000995980785107529378_);}
	.st56{fill:url(#SVGID_00000078017483139789537610000018218394604200749484_);}
	.st57{fill:url(#SVGID_00000106144302996898006990000010753528930973820298_);}
	.st58{fill:url(#SVGID_00000076582246022887917750000009193551343865926027_);}
	.st59{fill:url(#SVGID_00000051371290634346698660000012603326013615170991_);}
</style>
<g id="BACKGROUND" class="st0">
	<g class="st1">
		<g>
			
				<linearGradient id="SVGID_1_" gradientUnits="userSpaceOnUse" x1="1136.0901" y1="-124.5771" x2="1136.0901" y2="384.3079" gradientTransform="matrix(1 0 0 -1 0 350.0847)">
				<stop  offset="0" style="stop-color:#66A8DE"/>
				<stop  offset="0.1715" style="stop-color:#85B9E5"/>
				<stop  offset="0.5657" style="stop-color:#C6DFF3"/>
				<stop  offset="0.8526" style="stop-color:#EFF6FC"/>
				<stop  offset="1" style="stop-color:#FFFFFF"/>
			</linearGradient>
			<rect x="761.09" y="-73.39" class="st2" width="750" height="500"/>
		</g>
		<g class="st3">
			<g>
				
					<linearGradient id="SVGID_00000054231657000751931350000000411011436150448035_" gradientUnits="userSpaceOnUse" x1="1193.9889" y1="325.8863" x2="1007.1346" y2="139.0321" gradientTransform="matrix(1 0 0 -1 0 350.0847)">
					<stop  offset="0" style="stop-color:#66A8DE"/>
					<stop  offset="0.1715" style="stop-color:#85B9E5"/>
					<stop  offset="0.5657" style="stop-color:#C6DFF3"/>
					<stop  offset="0.8526" style="stop-color:#EFF6FC"/>
					<stop  offset="1" style="stop-color:#FFFFFF"/>
				</linearGradient>
				<path style="fill:url(#SVGID_00000054231657000751931350000000411011436150448035_);" d="M1509.73-73.16
					c-1.11,0,1.45,86.25,1.45,86.25s-12.69,12.17-111.43,7.15c-38.89-1.98-78.29-10.24-116.95-2.39
					c-39.45,8.02-74.92,30-114.21,38.79c-36.76,8.22-76.12,4.3-110.53-11.01c-19.92-8.87-38.53-21.8-50.94-39.73
					c-8.96-12.95-14.41-28.08-17.52-43.51c-2.44-12.1-4.15-35.73-4.15-35.73S1344.46-73.28,1509.73-73.16z"/>
			</g>
			<g>
				
					<linearGradient id="SVGID_00000075127228904737834250000008010309793501840830_" gradientUnits="userSpaceOnUse" x1="1136.09" y1="-76.5227" x2="1136.09" y2="178.3772" gradientTransform="matrix(1 0 0 -1 0 350.0847)">
					<stop  offset="0" style="stop-color:#66A8DE"/>
					<stop  offset="0.1715" style="stop-color:#85B9E5"/>
					<stop  offset="0.5657" style="stop-color:#C6DFF3"/>
					<stop  offset="0.8526" style="stop-color:#EFF6FC"/>
					<stop  offset="1" style="stop-color:#FFFFFF"/>
				</linearGradient>
				<path style="fill:url(#SVGID_00000075127228904737834250000008010309793501840830_);" d="M1511.09,319.72v106.51
					c-0.08,0.13-0.17,0.25-0.25,0.38H761.09V236.73c8.75,4.34,16.8,10.47,23.58,18.2c9.56,10.91,34.81,22.19,48.27,12.1
					c15.9-11.92,20.52-40.83,32.01-56.44c11.94-16.23,35.31-22.12,53.55-26.93c22.84-6.02,46.66-10.57,70.27-11.77
					c48.26-2.47,93.48,20.72,125.9,54.77c20.06,21.06,45.89,26.29,74.03,26c18.91-0.2,36.17-4.16,54.92,1.22
					c10.61,3.05,18.59,3.52,28.83-0.22l-1,2c16.08,0,31.07-0.2,45.49,7.96c24.33,13.77,33.26,35.67,63.92,36.04
					c33.23,0.4,71.11-15.37,103.64-0.72C1494.35,303.37,1503.66,310.75,1511.09,319.72z"/>
			</g>
		</g>
	</g>
</g>
<g id="OBJECTS">
	<g>
		<g>
			<g>
				<g>
					<g>
						
							<linearGradient id="SVGID_00000087398123825501182090000016470766691245127856_" gradientUnits="userSpaceOnUse" x1="121.3556" y1="92.7628" x2="313.9854" y2="285.3926" gradientTransform="matrix(1 0 0 -1 0 350.0847)">
							<stop  offset="0" style="stop-color:#66A8DE"/>
							<stop  offset="0.1715" style="stop-color:#85B9E5"/>
							<stop  offset="0.5657" style="stop-color:#C6DFF3"/>
							<stop  offset="0.8526" style="stop-color:#EFF6FC"/>
							<stop  offset="1" style="stop-color:#FFFFFF"/>
						</linearGradient>
						<path style="fill:url(#SVGID_00000087398123825501182090000016470766691245127856_);" d="M431.47,325.07H0V0.82
							C20-2.8,39.42,5.65,46.34,25.24c6.45,18.25,6.13,40.53,26.1,50.34c13.95,6.86,29.91,2.69,44.54,1.09
							c15.62-1.71,32.72,0.97,46.44,9.51c16.42,10.22,22.11,26.61,28.92,43.72c8.91,22.38,23.71,40.08,48.57,44.13
							c28.86,4.69,68.71-0.87,92.79,19.04c20.01,16.55,14.22,46.97,30.36,66.22C385.72,285.1,437.85,271.5,431.47,325.07z"/>
					</g>
					<g>
						
							<linearGradient id="SVGID_00000033327548527216713710000018317183081596001417_" gradientUnits="userSpaceOnUse" x1="126.4472" y1="100.8745" x2="286.958" y2="261.3853" gradientTransform="matrix(1 0 0 -1 0 350.0847)">
							<stop  offset="0" style="stop-color:#66A8DE"/>
							<stop  offset="0.1715" style="stop-color:#85B9E5"/>
							<stop  offset="0.5657" style="stop-color:#C6DFF3"/>
							<stop  offset="0.8526" style="stop-color:#EFF6FC"/>
							<stop  offset="1" style="stop-color:#FFFFFF"/>
						</linearGradient>
						<path style="fill:url(#SVGID_00000033327548527216713710000018317183081596001417_);" d="M402.52,325.07H0V23.73
							c18.59-3.36,38.16,4.49,44.59,22.69c5.99,16.96,5.7,37.66,24.26,46.79c12.96,6.37,27.8,2.5,41.39,1.01
							c14.52-1.59,30.41,0.9,43.16,8.84c15.26,9.5,20.55,24.73,26.88,40.63c8.28,20.8,22.03,37.25,45.13,41.01
							c26.82,4.36,63.86-0.8,86.24,17.7c18.6,15.38,13.21,43.65,28.22,61.54C360,287.92,408.45,275.28,402.52,325.07z"/>
					</g>
				</g>
				<path class="st8" d="M451.28,328.07H0v-4h451.28c1.1,0,2,0.9,2,2l0,0C453.28,327.17,452.38,328.07,451.28,328.07z"/>
			</g>
			<g>
				<g>
					<g>
						<g>
							<g>
								<g>
									<g>
										
											<linearGradient id="SVGID_00000007411439367443765930000007817370579824446359_" gradientUnits="userSpaceOnUse" x1="311.1474" y1="72.9492" x2="427.8141" y2="59.6159" gradientTransform="matrix(1 0 0 -1 0 350.0847)">
											<stop  offset="0.0117" style="stop-color:#5692A3"/>
											<stop  offset="0.1678" style="stop-color:#629DA5"/>
											<stop  offset="0.9961" style="stop-color:#A0D6AD"/>
										</linearGradient>
										<path style="fill:url(#SVGID_00000007411439367443765930000007817370579824446359_);" d="M401.65,261.95
											c-2.14-0.89-14.07-0.68-19.42-0.55c-1.63,0.04-3.17,0.77-4.22,2.01c-1.55,1.82-3.86,4.44-5.33,5.7
											c0.38-2.83,0.97-5.67,1.14-8.58c-2.69-0.49-5.73-0.33-8.48-0.67c-2.82-0.35-5.75-0.61-8.62-0.55
											c-2.6,0.05-6.38-0.42-8.12,1.23c-1.77,1.68-3.66,4.84-5.09,6.87c-0.05-1.77,0.52-3.74,0.91-5.55
											c0.71-3.26,0.12-2.98-3.32-3.66c-4.1-0.81-8.26-1.26-12.43-1.23c-5.37,0.04-10.07,0.51-15.2,1.39
											c-2.99,0.5-2.87,0.23-3.96,3.1c-0.73,1.93-1.75,3.96-2.69,5.82c-2.68-1.28-2.76-6.34-2.93-8.82
											c-6.49-0.06-13.23,6.88-17.61,11.07c-0.86,0.82-9.17,9.38-9.59,9.82c-4.62,4.79-2.91,12.74,3.29,15.21
											c3.24,1.29,7.31,2.72,12.39,4.23c4.46,1.33,25.33,5.48,31.56,3.79c-0.87-3.06-2.48-6.22-2.88-9.43
											c2.7,1.52,4.64,4.81,6.05,7.46c0.16,0.31,0.57,1.02,1.03,1.83c1.16,2.02,3.43,3.12,5.74,2.79
											c6.18-0.9,17.59-3.87,22.91-5.8c-1.54-2.83-3.2-4.63-4.84-7.52c2.98,1.04,5.12,4.38,7.75,5.99
											c1.89,1.16,1.15,1.36,3.31,0.2c1.21-0.65,2.22-1.46,3.42-2.11c-2.95-2.79-5.2-6.51-8.09-9.54
											c2.02,2.1,5.08,3.56,7.46,5.19c3.22,2.2,3.69,2.23,7.12,0.34c5.9-3.25,12.28-6.95,17.57-11.01
											c4.22-3.24,10.61-7.65,12.84-12.53C404.71,265.43,405.26,263.45,401.65,261.95z"/>
									</g>
								</g>
								<path class="st10" d="M389.95,270.56c-6.75,2.03-13.57,3.92-20.45,5.59c6.48,0.73,12.97,0.6,19.45-0.4
									c0.92-0.14,1.34,1.27,0.4,1.41c-7.78,1.21-15.56,1.21-23.34,0c-0.12-0.02-0.22-0.06-0.3-0.12
									c-2.66,0.61-5.33,1.19-8.01,1.73c4.62,2.82,9.54,4.98,14.77,6.44c0.91,0.26,0.56,1.68-0.35,1.43
									c-5.8-1.62-11.24-4.06-16.3-7.31c-0.07-0.04-0.11-0.1-0.16-0.15c-2.55,0.5-5.11,0.95-7.68,1.37
									c1.63,1.41,3.33,2.73,4.83,4.3c1.79,1.87,3.41,3.9,5.03,5.91c0.59,0.74-0.67,1.49-1.26,0.76
									c-3.24-4.01-6.75-7.19-10.48-10.66c-3.09,0.49-6.19,0.91-9.3,1.27c1.86,1.69,3.93,3.14,5.71,4.94
									c1.87,1.89,3.51,3.95,5.01,6.13c0.54,0.78-0.72,1.54-1.26,0.76c-1.66-2.4-3.49-4.64-5.61-6.65
									c-1.84-1.75-3.97-3.16-5.76-4.96c-2.84,0.31-5.69,0.56-8.54,0.75c3.95,4,7.05,8.63,10.09,13.36
									c0.51,0.8-0.75,1.56-1.26,0.76c-3.2-4.98-6.46-9.88-10.77-13.99c-4.94,0.29-9.88,0.4-14.82,0.31
									c2.78,4.32,5.12,8.85,7.05,13.62c0.35,0.87-1.07,1.27-1.42,0.4c-2-4.94-4.47-9.61-7.41-14.06
									c-2.87-0.08-5.74-0.25-8.61-0.48c3.08,3.57,5.59,7.53,6.94,12.09c0.27,0.91-1.15,1.31-1.42,0.4
									c-1.39-4.71-4.07-8.73-7.34-12.35c-0.09-0.1-0.14-0.2-0.17-0.3c-2.89-0.27-5.77-0.62-8.65-1.05
									c2.68,2.11,4.86,4.72,6.49,7.79c0.44,0.83-0.81,1.6-1.26,0.76c-2.03-3.82-4.89-6.86-8.59-9.09
									c-2.38-0.41-4.77-0.85-7.14-1.38c-0.93-0.21-0.58-1.63,0.35-1.43c2.31,0.51,4.63,0.95,6.95,1.35c0.11-0.01,0.23,0,0.36,0.06
									c0.07,0.01,0.14,0.02,0.21,0.03c4.96-3.52,8.63-8.14,10.98-13.75c0.37-0.87,1.66-0.16,1.3,0.7
									c-2.24,5.37-5.71,9.84-10.25,13.37c3.01,0.46,6.02,0.83,9.04,1.12c0.01-0.21,0.1-0.42,0.31-0.57
									c5.78-4.2,11.49-8.46,15.62-14.38c0.54-0.77,1.84-0.07,1.3,0.7c-4.11,5.89-9.69,10.22-15.44,14.41
									c4.55,0.38,9.1,0.58,13.66,0.59c5.26-6.76,10.46-13.65,12.92-21.98c0.27-0.91,1.7-0.56,1.43,0.35
									c-2.4,8.16-7.35,14.98-12.49,21.63c3.02-0.02,6.04-0.11,9.06-0.27c4.64-5.58,9.94-11.06,12.15-18.13
									c0.28-0.9,1.71-0.55,1.43,0.35c-2.14,6.85-7,12.25-11.56,17.65c2.63-0.17,5.27-0.38,7.89-0.65
									c0.05-0.15,0.14-0.29,0.32-0.39c5.93-3.21,10.72-7.81,15.46-12.52c0.67-0.67,1.74,0.34,1.07,1.01
									c-4.26,4.24-8.57,8.39-13.68,11.56c2.91-0.34,5.81-0.73,8.71-1.18c0.29-1.38,2.6-2.84,3.35-3.55
									c2.78-2.65,5.62-5.23,8.52-7.76c0.71-0.62,1.78,0.39,1.07,1.01c-1.98,1.73-3.94,3.48-5.87,5.27c-0.42,0.39-4,3.42-5.22,4.73
									c2.71-0.44,5.41-0.91,8.1-1.43c0-0.01,0.01-0.01,0.01-0.02c3.78-3.91,7.96-7.26,12.59-10.1c0.81-0.49,1.57,0.76,0.76,1.26
									c-3.91,2.4-7.49,5.17-10.77,8.34c5.14-1.04,10.25-2.23,15.32-3.52c0.06-0.1,0.14-0.19,0.28-0.26
									c3.96-1.95,7.91-3.9,11.87-5.85c0.84-0.42,1.61,0.84,0.76,1.26c-2.09,1.03-4.19,2.07-6.28,3.1
									c3.32-0.91,6.63-1.87,9.92-2.86C390.45,268.87,390.86,270.28,389.95,270.56z"/>
							</g>
						</g>
						<g>
							<g>
								<g>
									<g>
										
											<linearGradient id="SVGID_00000023959972578189576540000008491374774012687267_" gradientUnits="userSpaceOnUse" x1="411.6743" y1="-89.1739" x2="463.6714" y2="-35.1769" gradientTransform="matrix(0.9721 0.2348 0.2348 -0.9721 -48.5074 62.2557)">
											<stop  offset="0.0117" style="stop-color:#5692A3"/>
											<stop  offset="0.1678" style="stop-color:#629DA5"/>
											<stop  offset="0.9961" style="stop-color:#A0D6AD"/>
										</linearGradient>
										<path style="fill:url(#SVGID_00000023959972578189576540000008491374774012687267_);" d="M378.59,200.25
											c-2.31,0.2-12.78,5.87-17.47,8.46c-1.43,0.79-2.45,2.15-2.81,3.73c-0.53,2.33-1.36,5.72-2.09,7.51
											c-0.98-2.68-1.76-5.48-2.96-8.14c-2.61,0.8-5.23,2.35-7.82,3.31c-2.66,0.99-5.38,2.11-7.89,3.48
											c-2.28,1.24-5.85,2.57-6.62,4.83c-0.79,2.31-1.01,5.98-1.33,8.44c-0.87-1.55-1.28-3.56-1.76-5.35
											c-0.88-3.22-1.27-2.71-4.64-1.72c-4.01,1.17-7.9,2.69-11.59,4.63c-4.74,2.5-8.68,5.09-12.83,8.23
											c-2.41,1.82-2.44,1.53-2.08,4.58c0.24,2.05,0.29,4.32,0.31,6.4c-2.97,0.1-5.39-4.36-6.68-6.48
											c-5.78,2.93-8.53,12.2-10.48,17.93c-0.38,1.12-3.78,12.55-3.96,13.13c-1.88,6.38,3.32,12.65,9.96,11.98
											c3.47-0.35,7.74-0.95,12.94-1.95c4.57-0.87,24.99-6.8,29.73-11.17c-2.19-2.31-5.08-4.38-6.92-7.04
											c3.1,0.1,6.34,2.13,8.82,3.84c0.29,0.2,0.98,0.65,1.76,1.15c1.96,1.26,4.49,1.19,6.38-0.17
											c5.06-3.64,13.8-11.54,17.62-15.7c-2.67-1.81-4.98-2.64-7.77-4.44c3.12-0.45,6.56,1.53,9.65,1.75
											c2.21,0.16,1.65,0.68,3.03-1.35c0.77-1.13,1.29-2.32,2.05-3.45c-3.91-1.12-7.63-3.38-11.59-4.74
											c2.76,0.94,6.15,0.82,9.02,1.16c3.88,0.47,4.3,0.28,6.47-2.98c3.72-5.61,7.66-11.83,10.47-17.86
											c2.24-4.82,5.85-11.68,5.58-17.03C382.91,201.92,382.48,199.92,378.59,200.25z"/>
									</g>
								</g>
								<path class="st10" d="M372.2,213.27c-5.04,4.91-10.22,9.73-15.54,14.38c6.08-2.34,11.78-5.44,17.05-9.31
									c0.75-0.55,1.77,0.51,1.01,1.07c-6.34,4.65-13.23,8.24-20.68,10.75c-0.12,0.04-0.22,0.05-0.32,0.03
									c-2.07,1.77-4.17,3.51-6.29,5.23c5.4,0.38,10.76,0.03,16.07-1.08c0.93-0.19,1.28,1.23,0.35,1.43
									c-5.89,1.23-11.84,1.58-17.84,1.02c-0.08-0.01-0.15-0.04-0.21-0.06c-2.03,1.62-4.09,3.2-6.17,4.75
									c2.1,0.5,4.21,0.89,6.27,1.59c2.45,0.84,4.83,1.89,7.2,2.93c0.87,0.38,0.09,1.63-0.77,1.25c-4.73-2.07-9.32-3.27-14.23-4.63
									c-2.52,1.86-5.07,3.66-7.65,5.41c2.43,0.64,4.94,0.97,7.35,1.75c2.53,0.81,4.93,1.89,7.28,3.13
									c0.84,0.44,0.07,1.7-0.77,1.25c-2.58-1.37-5.25-2.51-8.06-3.32c-2.44-0.71-4.99-0.98-7.4-1.75
									c-2.38,1.58-4.79,3.12-7.22,4.6c5.35,1.73,10.24,4.42,15.13,7.21c0.82,0.47,0.06,1.73-0.77,1.25
									c-5.15-2.94-10.3-5.79-16.03-7.46c-4.24,2.53-8.57,4.91-12.99,7.1c4.46,2.56,8.63,5.5,12.55,8.84
									c0.72,0.61-0.36,1.62-1.07,1.01c-4.06-3.47-8.42-6.47-13.08-9.07c-2.58,1.25-5.2,2.43-7.85,3.54
									c4.38,1.75,8.44,4.11,11.75,7.53c0.66,0.68-0.41,1.69-1.07,1.01c-3.42-3.54-7.65-5.87-12.23-7.58
									c-0.12-0.05-0.21-0.11-0.29-0.19c-2.68,1.09-5.4,2.11-8.15,3.06c3.35,0.64,6.49,1.95,9.36,3.92
									c0.78,0.54,0.02,1.79-0.76,1.25c-3.57-2.45-7.51-3.83-11.83-4.11c-2.3,0.74-4.62,1.44-6.97,2.07
									c-0.92,0.25-1.27-1.18-0.35-1.43c2.29-0.61,4.54-1.29,6.78-2c0.09-0.06,0.21-0.1,0.34-0.11c0.07-0.02,0.13-0.04,0.2-0.07
									c2.77-5.4,3.88-11.2,3.36-17.26c-0.08-0.94,1.39-0.91,1.47,0.03c0.5,5.8-0.5,11.37-2.89,16.59
									c2.88-0.98,5.72-2.03,8.53-3.17c-0.09-0.19-0.11-0.41,0.01-0.65c3.18-6.39,6.26-12.81,7.19-19.96
									c0.12-0.93,1.59-0.91,1.47,0.03c-0.92,7.12-3.86,13.54-7.01,19.9c4.21-1.75,8.33-3.68,12.38-5.76
									c1.53-8.43,2.95-16.94,1.26-25.46c-0.18-0.93,1.25-1.28,1.43-0.35c1.65,8.35,0.43,16.68-1.05,24.95
									c2.67-1.41,5.3-2.88,7.9-4.41c1.53-7.09,3.69-14.39,2.37-21.68c-0.17-0.93,1.26-1.28,1.43-0.35
									c1.28,7.06-0.53,14.1-2.07,20.99c2.26-1.36,4.49-2.77,6.69-4.22c-0.03-0.15-0.01-0.32,0.11-0.5
									c3.77-5.58,5.88-11.87,7.9-18.24c0.29-0.9,1.7-0.5,1.42,0.4c-1.81,5.73-3.71,11.4-6.77,16.56c2.42-1.64,4.81-3.32,7.17-5.06
									c-0.39-1.36,0.99-3.72,1.32-4.69c1.24-3.63,2.56-7.23,3.96-10.81c0.34-0.87,1.76-0.48,1.42,0.4
									c-0.95,2.45-1.88,4.9-2.76,7.38c-0.19,0.54-1.96,4.88-2.43,6.6c2.2-1.64,4.37-3.3,6.52-5.01c0-0.01,0-0.01,0-0.02
									c1.54-5.21,3.69-10.11,6.48-14.76c0.49-0.81,1.75-0.05,1.26,0.76c-2.36,3.93-4.24,8.04-5.68,12.36
									c4.07-3.29,8.05-6.7,11.95-10.19c0.01-0.12,0.04-0.23,0.13-0.36c2.6-3.55,5.2-7.11,7.8-10.66c0.55-0.76,1.82,0,1.26,0.76
									c-1.38,1.88-2.75,3.76-4.13,5.64c2.52-2.34,5.01-4.71,7.47-7.11C371.87,211.54,372.88,212.61,372.2,213.27z"/>
							</g>
						</g>
						<g>
							<g>
								<g>
									<g>
										
											<linearGradient id="SVGID_00000163068304722516605610000005399821181460567457_" gradientUnits="userSpaceOnUse" x1="294.1867" y1="114.2976" x2="340.1867" y2="160.9642" gradientTransform="matrix(1 0 0 -1 0 350.0847)">
											<stop  offset="0.0117" style="stop-color:#5692A3"/>
											<stop  offset="0.1678" style="stop-color:#629DA5"/>
											<stop  offset="0.9961" style="stop-color:#A0D6AD"/>
										</linearGradient>
										<path style="fill:url(#SVGID_00000163068304722516605610000005399821181460567457_);" d="M350.1,149.33
											c-2.11,0.95-10.11,9.76-13.67,13.75c-1.08,1.22-1.6,2.83-1.41,4.45c0.27,2.37,0.61,5.85,0.52,7.78
											c-1.81-2.21-3.48-4.59-5.49-6.71c-2.2,1.62-4.16,3.94-6.28,5.71c-2.19,1.81-4.38,3.77-6.29,5.89
											c-1.74,1.92-4.67,4.36-4.65,6.74c0.02,2.44,1.03,5.98,1.54,8.41c-1.33-1.17-2.38-2.94-3.44-4.47
											c-1.9-2.76-2.1-2.14-4.95-0.1c-3.39,2.42-6.57,5.14-9.4,8.19c-3.64,3.93-6.51,7.67-9.37,12c-1.67,2.52-1.8,2.25-0.44,5.01
											c0.91,1.85,1.7,3.99,2.42,5.94c-2.77,1.07-6.53-2.34-8.45-3.92c-4.48,4.67-4.01,14.33-3.94,20.39
											c0.01,1.19,0.59,13.09,0.62,13.7c0.34,6.65,7.32,10.85,13.37,8.03c3.16-1.47,6.99-3.45,11.56-6.1
											c4.02-2.33,21.32-14.66,24.34-20.34c-2.83-1.46-6.24-2.46-8.86-4.37c2.95-0.92,6.69-0.08,9.59,0.72
											c0.34,0.09,1.14,0.29,2.04,0.5c2.27,0.54,4.63-0.35,5.96-2.26c3.57-5.11,9.19-15.44,11.42-20.63
											c-3.12-0.82-5.57-0.85-8.8-1.64c2.8-1.45,6.7-0.72,9.68-1.53c2.14-0.58,1.78,0.1,2.41-2.27c0.35-1.32,0.45-2.61,0.79-3.93
											c-4.06,0.23-8.31-0.68-12.5-0.66c2.92-0.03,6.08-1.25,8.89-1.87c3.81-0.84,4.15-1.15,5.12-4.95
											c1.65-6.52,3.31-13.69,3.96-20.32c0.52-5.29,1.65-12.96-0.38-17.92C354.73,149.48,353.66,147.73,350.1,149.33z"/>
									</g>
								</g>
								<path class="st10" d="M348.39,163.73c-3.13,6.3-6.41,12.55-9.9,18.7c4.96-4.21,9.31-9.02,13-14.41
									c0.53-0.77,1.84-0.1,1.31,0.68c-4.43,6.48-9.75,12.14-15.95,16.96c-0.1,0.07-0.19,0.12-0.29,0.14
									c-1.37,2.35-2.77,4.69-4.2,7.01c5.22-1.42,10.16-3.52,14.8-6.32c0.81-0.49,1.62,0.74,0.8,1.23
									c-5.15,3.1-10.65,5.39-16.49,6.84c-0.08,0.02-0.15,0.01-0.22,0.01c-1.38,2.2-2.8,4.37-4.25,6.52
									c2.15-0.22,4.27-0.55,6.44-0.57c2.59-0.02,5.18,0.2,7.76,0.4c0.94,0.07,0.63,1.51-0.31,1.44c-5.15-0.4-9.87-0.02-14.95,0.31
									c-1.76,2.58-3.57,5.13-5.43,7.63c2.51-0.19,4.98-0.71,7.51-0.77c2.66-0.06,5.28,0.16,7.91,0.56
									c0.94,0.14,0.63,1.58-0.31,1.44c-2.89-0.44-5.78-0.64-8.7-0.48c-2.54,0.14-5.03,0.72-7.56,0.79
									c-1.72,2.28-3.48,4.52-5.29,6.72c5.63-0.13,11.13,0.8,16.66,1.83c0.93,0.17,0.63,1.61-0.31,1.44
									c-5.83-1.09-11.64-2.07-17.59-1.76c-3.16,3.79-6.46,7.46-9.91,10.98c5.06,0.94,9.97,2.35,14.77,4.22
									c0.88,0.34,0.2,1.64-0.68,1.3c-4.98-1.93-10.08-3.34-15.35-4.26c-2.02,2.03-4.11,4.01-6.24,5.93
									c4.72,0.21,9.32,1.1,13.58,3.24c0.85,0.43,0.17,1.73-0.68,1.3c-4.4-2.21-9.16-3.03-14.05-3.13c-0.13,0-0.24-0.04-0.34-0.09
									c-2.17,1.92-4.4,3.77-6.67,5.57c3.37-0.5,6.77-0.3,10.13,0.62c0.91,0.25,0.61,1.69-0.31,1.44
									c-4.18-1.14-8.35-1.15-12.52,0.02c-1.93,1.45-3.88,2.88-5.89,4.25c-0.78,0.53-1.59-0.7-0.8-1.23
									c1.95-1.33,3.86-2.71,5.74-4.13c0.07-0.09,0.16-0.16,0.29-0.22c0.06-0.04,0.11-0.09,0.16-0.13
									c0.82-6.01-0.05-11.86-2.55-17.41c-0.39-0.86,1.01-1.32,1.4-0.46c2.39,5.31,3.29,10.9,2.77,16.62c2.39-1.87,4.73-3.81,7-5.8
									c-0.15-0.15-0.24-0.35-0.21-0.61c0.88-7.08,1.67-14.16,0.17-21.21c-0.19-0.92,1.2-1.38,1.4-0.46
									c1.49,7.03,0.85,14.05-0.02,21.1c3.39-3.04,6.64-6.22,9.77-9.52c-1.35-8.46-2.83-16.96-7.24-24.46
									c-0.48-0.81,0.75-1.62,1.24-0.8c4.32,7.34,5.93,15.61,7.27,23.9c2.05-2.21,4.05-4.47,5.99-6.77
									c-0.91-7.2-1.29-14.81-4.95-21.26c-0.47-0.82,0.77-1.62,1.24-0.8c3.55,6.25,4.17,13.49,5.01,20.5
									c1.68-2.03,3.32-4.09,4.92-6.19c-0.08-0.14-0.12-0.3-0.06-0.5c1.71-6.51,1.62-13.14,1.41-19.82
									c-0.03-0.95,1.44-1.03,1.47-0.09c0.19,6.01,0.28,11.98-0.9,17.86c1.74-2.35,3.44-4.72,5.09-7.14
									c-0.81-1.16-0.3-3.84-0.31-4.87c-0.04-3.84,0.02-7.67,0.15-11.51c0.03-0.94,1.5-1.03,1.47-0.09
									c-0.09,2.62-0.15,5.25-0.16,7.88c0,0.57-0.23,5.26-0.11,7.04c1.53-2.27,3.03-4.56,4.49-6.87c0-0.01,0-0.01,0-0.02
									c-0.27-5.42,0.13-10.76,1.22-16.08c0.19-0.93,1.63-0.62,1.44,0.31c-0.92,4.48-1.34,8.99-1.26,13.55
									c2.75-4.45,5.38-8.98,7.9-13.55c-0.03-0.11-0.04-0.23,0-0.38c1.28-4.21,2.55-8.43,3.83-12.64c0.27-0.9,1.72-0.6,1.44,0.31
									c-0.68,2.23-1.35,4.46-2.03,6.69c1.6-3.04,3.17-6.1,4.69-9.17C347.5,162.21,348.81,162.88,348.39,163.73z"/>
							</g>
						</g>
					</g>
					<g>
						<g>
							<g>
								<g>
									<g>
										
											<linearGradient id="SVGID_00000020365011037331681030000010485568291030682529_" gradientUnits="userSpaceOnUse" x1="1788.1077" y1="401.2693" x2="1910.2842" y2="401.2693" gradientTransform="matrix(-0.9255 0.3787 -0.3787 -0.9255 1960.2418 -51.893)">
											<stop  offset="0.0117" style="stop-color:#5692A3"/>
											<stop  offset="0.1678" style="stop-color:#629DA5"/>
											<stop  offset="0.9961" style="stop-color:#A0D6AD"/>
										</linearGradient>
										<path style="fill:url(#SVGID_00000020365011037331681030000010485568291030682529_);" d="M31.91,270.4
											c1.98-1.2,13.8-2.8,19.12-3.47c1.62-0.2,3.25,0.29,4.48,1.35c1.8,1.56,4.48,3.81,6.13,4.83c-0.8-2.74-1.82-5.46-2.42-8.31
											c2.58-0.89,5.62-1.19,8.28-1.94c2.74-0.77,5.6-1.47,8.44-1.85c2.58-0.34,6.25-1.37,8.21-0.01c2,1.39,4.35,4.23,6.07,6.02
											c-0.21-1.76-1.07-3.62-1.74-5.35c-1.2-3.12-0.57-2.93,2.73-4.12c3.93-1.42,7.97-2.49,12.1-3.1
											c5.31-0.77,10.03-1.01,15.23-0.92c3.03,0.05,2.88-0.21,4.39,2.47c1.01,1.79,2.33,3.66,3.53,5.35
											c2.46-1.67,1.77-6.69,1.56-9.16c6.4-1.04,14.11,4.81,19.07,8.28c0.97,0.68,10.48,7.89,10.97,8.26
											c5.29,4.04,4.8,12.15-0.96,15.53c-3.01,1.76-6.82,3.79-11.61,6.05c-4.21,1.99-24.21,9.24-30.63,8.51
											c0.4-3.16,1.51-6.52,1.43-9.75c-2.44,1.91-3.86,5.46-4.86,8.29c-0.11,0.33-0.41,1.1-0.75,1.96
											c-0.84,2.17-2.92,3.61-5.25,3.62c-6.24,0.04-17.97-1.17-23.52-2.27c1.09-3.03,2.46-5.06,3.65-8.16
											c-2.79,1.48-4.4,5.1-6.76,7.09c-1.7,1.43-0.93,1.52-3.25,0.7c-1.29-0.46-2.42-1.1-3.7-1.57c2.5-3.21,4.16-7.22,6.56-10.65
											c-1.68,2.38-4.49,4.29-6.6,6.25c-2.86,2.66-3.31,2.76-6.99,1.41c-6.32-2.33-13.19-5.02-19.03-8.23
											c-4.66-2.56-11.64-5.97-14.58-10.45C29.4,274.29,28.56,272.43,31.91,270.4z"/>
									</g>
								</g>
								<path class="st10" d="M44.77,277.14c6.98,0.99,14.01,1.82,21.06,2.44c-6.3,1.7-12.73,2.55-19.28,2.54
									c-0.94,0-1.13,1.46-0.18,1.46c7.87,0.02,15.56-1.15,23.07-3.52c0.12-0.04,0.21-0.09,0.28-0.16c2.72,0.2,5.45,0.37,8.18,0.51
									c-4.14,3.49-8.68,6.36-13.62,8.6c-0.86,0.39-0.3,1.75,0.56,1.36c5.49-2.48,10.5-5.7,15.01-9.69
									c0.06-0.05,0.1-0.12,0.13-0.18c2.6,0.11,5.2,0.17,7.8,0.2c-1.4,1.64-2.88,3.2-4.13,4.98c-1.49,2.12-2.78,4.37-4.08,6.6
									c-0.47,0.82,0.89,1.37,1.36,0.56c2.59-4.46,5.59-8.13,8.75-12.12c3.13,0.01,6.26-0.04,9.39-0.14
									c-1.58,1.95-3.42,3.7-4.9,5.74c-1.56,2.15-2.87,4.43-4.03,6.81c-0.41,0.85,0.95,1.41,1.36,0.56
									c1.28-2.62,2.76-5.11,4.54-7.43c1.55-2.01,3.45-3.72,4.95-5.77c2.86-0.12,5.71-0.31,8.56-0.54
									c-3.3,4.55-5.66,9.6-7.96,14.73c-0.39,0.87,0.97,1.43,1.36,0.56c2.42-5.41,4.9-10.74,8.54-15.45
									c4.92-0.46,9.83-1.09,14.7-1.93c-2.09,4.69-3.72,9.52-4.91,14.53c-0.22,0.92,1.24,1.09,1.46,0.18
									c1.23-5.19,2.97-10.18,5.2-15.02c2.83-0.52,5.64-1.11,8.44-1.77c-2.5,4-4.39,8.29-5.03,13c-0.13,0.94,1.33,1.12,1.46,0.18
									c0.67-4.86,2.7-9.24,5.4-13.32c0.07-0.11,0.11-0.22,0.12-0.32c2.81-0.7,5.61-1.48,8.39-2.34c-2.33,2.49-4.09,5.4-5.24,8.68
									c-0.31,0.89,1.05,1.46,1.36,0.56c1.43-4.08,3.8-7.51,7.12-10.28c2.3-0.76,4.58-1.56,6.85-2.44c0.89-0.34,0.32-1.7-0.56-1.36
									c-2.21,0.85-4.43,1.64-6.67,2.38c-0.11,0-0.23,0.04-0.34,0.12c-0.07,0.02-0.13,0.04-0.2,0.06
									c-5.43-2.73-9.76-6.74-12.93-11.94c-0.49-0.81-1.66,0.09-1.17,0.89c3.03,4.97,7.13,8.87,12.15,11.67
									c-2.91,0.91-5.83,1.73-8.77,2.47c-0.04-0.2-0.16-0.4-0.39-0.52c-6.35-3.28-12.64-6.63-17.61-11.85
									c-0.65-0.68-1.83,0.21-1.17,0.89c4.96,5.2,11.12,8.64,17.44,11.92c-4.44,1.07-8.91,1.94-13.41,2.65
									c-6.22-5.89-12.4-11.92-16.08-19.78c-0.4-0.85-1.76-0.29-1.36,0.56c3.61,7.7,9.52,13.7,15.61,19.49
									c-2.99,0.44-5.99,0.8-8.99,1.09c-5.43-4.82-11.5-9.43-14.74-16.09c-0.41-0.85-1.78-0.29-1.36,0.56
									c3.15,6.45,8.77,11.05,14.09,15.71c-2.63,0.23-5.26,0.41-7.9,0.55c-0.07-0.14-0.18-0.27-0.38-0.34
									c-6.35-2.27-11.77-6.1-17.17-10.05c-0.76-0.56-1.67,0.6-0.91,1.16c4.86,3.55,9.74,7,15.26,9.36
									c-2.92,0.1-5.85,0.15-8.78,0.15c-0.49-1.32-3-2.41-3.84-3c-3.15-2.2-6.35-4.32-9.59-6.38c-0.79-0.5-1.7,0.65-0.91,1.16
									c2.22,1.41,4.42,2.85,6.59,4.32c0.47,0.32,4.47,2.78,5.87,3.89c-2.74-0.03-5.48-0.09-8.23-0.2c-0.01,0-0.01-0.01-0.01-0.01
									c-4.32-3.29-8.96-5.97-13.97-8.08c-0.87-0.37-1.44,0.99-0.56,1.36c4.23,1.78,8.19,3.98,11.91,6.62
									c-5.23-0.26-10.47-0.66-15.68-1.17c-0.07-0.09-0.17-0.17-0.31-0.21c-4.2-1.33-8.41-2.66-12.61-4
									c-0.9-0.28-1.47,1.07-0.56,1.36c2.23,0.71,4.45,1.41,6.68,2.12c-3.42-0.4-6.84-0.85-10.24-1.33
									C44.01,275.55,43.83,277.01,44.77,277.14z"/>
							</g>
						</g>
						<g>
							<g>
								<g>
									<g>
										
											<linearGradient id="SVGID_00000057835433924727225810000001903887009071764629_" gradientUnits="userSpaceOnUse" x1="1839.0309" y1="440.4741" x2="1885.0317" y2="498.1418" gradientTransform="matrix(-0.9255 0.3787 -0.3787 -0.9255 1960.2418 -51.893)">
											<stop  offset="0.0117" style="stop-color:#5692A3"/>
											<stop  offset="0.1678" style="stop-color:#629DA5"/>
											<stop  offset="0.9961" style="stop-color:#A0D6AD"/>
										</linearGradient>
										<path style="fill:url(#SVGID_00000057835433924727225810000001903887009071764629_);" d="M45.4,205.92
											c2.31-0.15,13.52,3.88,18.54,5.73c1.53,0.57,2.74,1.75,3.34,3.27c0.87,2.22,2.21,5.45,3.2,7.11
											c0.56-2.8,0.92-5.68,1.7-8.5c2.7,0.4,5.53,1.53,8.23,2.1c2.78,0.57,5.64,1.27,8.33,2.25c2.44,0.88,6.17,1.66,7.28,3.77
											c1.13,2.16,1.9,5.76,2.59,8.15c0.62-1.66,0.72-3.71,0.94-5.56c0.38-3.32,0.85-2.87,4.33-2.4
											c4.14,0.55,8.22,1.46,12.16,2.83c5.06,1.76,9.35,3.72,13.92,6.2c2.66,1.44,2.64,1.14,2.74,4.21
											c0.07,2.06,0.37,4.32,0.65,6.38c2.95-0.35,4.67-5.12,5.63-7.41c6.15,2.03,10.28,10.77,13.06,16.15
											c0.55,1.05,5.63,11.83,5.89,12.39c2.82,6.03-1.38,13-8.04,13.35c-3.48,0.18-7.79,0.23-13.08,0.02
											c-4.64-0.18-25.73-2.96-31.07-6.56c1.82-2.62,4.36-5.09,5.78-8c-3.04,0.57-5.95,3.06-8.14,5.12
											c-0.25,0.24-0.87,0.79-1.57,1.4c-1.75,1.54-4.26,1.85-6.33,0.79c-5.55-2.84-15.38-9.33-19.79-12.86
											c2.37-2.19,4.52-3.36,7.01-5.56c-3.15,0.03-6.26,2.5-9.27,3.18c-2.16,0.49-1.52,0.92-3.2-0.88c-0.93-1-1.63-2.09-2.55-3.1
											c3.7-1.7,7.03-4.49,10.74-6.43c-2.59,1.34-5.96,1.74-8.74,2.51c-3.76,1.05-4.21,0.93-6.85-1.97
											c-4.53-4.98-9.35-10.54-13.04-16.08c-2.94-4.42-7.55-10.66-8.08-16C41.37,208.22,41.49,206.18,45.4,205.92z"/>
									</g>
								</g>
								<path class="st10" d="M53.67,217.83c5.72,4.09,11.57,8.08,17.53,11.87c-6.36-1.39-12.46-3.6-18.26-6.64
									c-0.83-0.43-1.68,0.77-0.84,1.21c6.97,3.65,14.32,6.15,22.07,7.51c0.12,0.02,0.23,0.01,0.32-0.01
									c2.32,1.44,4.65,2.84,7.01,4.22c-5.28,1.19-10.63,1.65-16.05,1.35c-0.95-0.05-1.08,1.41-0.13,1.46
									c6.01,0.33,11.94-0.23,17.79-1.68c0.08-0.02,0.14-0.06,0.2-0.09c2.25,1.29,4.53,2.54,6.82,3.77c-2,0.81-4.03,1.51-5.96,2.52
									c-2.3,1.2-4.49,2.6-6.68,3.98c-0.8,0.51,0.15,1.63,0.95,1.12c4.36-2.76,8.72-4.64,13.36-6.72c2.77,1.46,5.56,2.85,8.38,4.2
									c-2.31,1-4.74,1.71-7,2.84c-2.38,1.19-4.59,2.61-6.72,4.19c-0.76,0.57,0.19,1.69,0.95,1.12c2.35-1.74,4.81-3.27,7.46-4.5
									c2.31-1.07,4.78-1.72,7.05-2.84c2.59,1.21,5.2,2.36,7.83,3.46c-5.03,2.52-9.46,5.91-13.87,9.41
									c-0.74,0.59,0.2,1.71,0.95,1.12c4.64-3.69,9.31-7.28,14.72-9.79c4.57,1.86,9.21,3.56,13.92,5.06
									c-4.03,3.2-7.71,6.74-11.08,10.64c-0.62,0.71,0.6,1.54,1.21,0.83c3.5-4.04,7.34-7.67,11.56-10.94
									c2.74,0.84,5.51,1.61,8.3,2.32c-4.07,2.4-7.72,5.34-10.48,9.22c-0.55,0.77,0.66,1.61,1.21,0.83
									c2.84-4.01,6.67-6.96,10.95-9.34c0.11-0.06,0.19-0.14,0.26-0.23c2.81,0.68,5.66,1.27,8.52,1.79
									c-3.21,1.14-6.12,2.91-8.66,5.29c-0.69,0.65,0.25,1.78,0.95,1.12c3.16-2.96,6.84-4.92,11.07-5.85
									c2.39,0.38,4.78,0.73,7.2,0.99c0.94,0.1,1.07-1.36,0.13-1.46c-2.35-0.26-4.69-0.59-7.01-0.96c-0.1-0.05-0.22-0.07-0.36-0.06
									c-0.07-0.01-0.14-0.02-0.21-0.04c-3.55-4.92-5.53-10.49-5.93-16.56c-0.06-0.94-1.51-0.69-1.45,0.25
									c0.38,5.8,2.21,11.16,5.36,15.96c-3-0.53-5.97-1.15-8.91-1.84c0.06-0.2,0.04-0.42-0.11-0.64
									c-4.11-5.83-8.12-11.72-10.12-18.64c-0.26-0.9-1.71-0.66-1.45,0.25c1.98,6.9,5.85,12.8,9.93,18.62
									c-4.43-1.1-8.79-2.38-13.1-3.83c-2.79-8.1-5.47-16.3-5.09-24.98c0.04-0.94-1.43-1.07-1.47-0.13
									c-0.37,8.5,2.09,16.56,4.8,24.5c-2.85-0.99-5.67-2.05-8.47-3.17c-2.58-6.78-5.82-13.67-5.61-21.08
									c0.03-0.94-1.44-1.07-1.47-0.13c-0.2,7.18,2.65,13.86,5.21,20.44c-2.44-1.01-4.86-2.06-7.25-3.16
									c0.01-0.16-0.04-0.32-0.18-0.47c-4.57-4.95-7.61-10.84-10.56-16.84c-0.42-0.85-1.76-0.24-1.34,0.61
									c2.66,5.39,5.38,10.71,9.19,15.35c-2.64-1.26-5.26-2.56-7.85-3.92c0.18-1.4-1.54-3.53-2.01-4.44
									c-1.77-3.41-3.62-6.76-5.54-10.09c-0.47-0.81-1.81-0.21-1.34,0.61c1.31,2.27,2.6,4.56,3.84,6.88
									c0.27,0.5,2.67,4.53,3.4,6.16c-2.42-1.29-4.82-2.6-7.2-3.97c0-0.01,0-0.01,0-0.02c-2.31-4.92-5.17-9.43-8.64-13.62
									c-0.6-0.73-1.73,0.22-1.13,0.95c2.92,3.53,5.41,7.31,7.48,11.37c-4.52-2.64-8.97-5.41-13.35-8.27
									c-0.02-0.11-0.07-0.23-0.18-0.33c-3.11-3.12-6.22-6.24-9.32-9.36c-0.66-0.67-1.8,0.27-1.13,0.95
									c1.65,1.65,3.29,3.3,4.94,4.96c-2.85-1.93-5.67-3.9-8.45-5.9C53.74,216.07,52.9,217.28,53.67,217.83z"/>
							</g>
						</g>
						<g>
							<g>
								<g>
									<g>
										
											<linearGradient id="SVGID_00000047061817101267178360000017302123586144327095_" gradientUnits="userSpaceOnUse" x1="1777.3979" y1="468.1339" x2="1842.6653" y2="468.1339" gradientTransform="matrix(-0.9255 0.3787 -0.3787 -0.9255 1960.2418 -51.893)">
											<stop  offset="0.0117" style="stop-color:#5692A3"/>
											<stop  offset="0.1678" style="stop-color:#629DA5"/>
											<stop  offset="0.9961" style="stop-color:#A0D6AD"/>
										</linearGradient>
										<path style="fill:url(#SVGID_00000047061817101267178360000017302123586144327095_);" d="M65.88,151.29
											c2.23,0.62,11.47,8.12,15.59,11.53c1.26,1.04,2.01,2.56,2.07,4.19c0.09,2.39,0.28,5.87,0.66,7.77
											c1.46-2.46,2.75-5.07,4.42-7.46c2.42,1.27,4.7,3.27,7.07,4.69c2.43,1.46,4.9,3.06,7.11,4.87c2.01,1.64,5.27,3.6,5.61,5.96
											c0.35,2.41-0.12,6.07-0.26,8.55c1.14-1.36,1.91-3.27,2.72-4.94c1.46-3.01,1.75-2.43,4.88-0.84
											c3.72,1.88,7.27,4.09,10.53,6.68c4.19,3.33,7.59,6.6,11.08,10.45c2.03,2.24,2.12,1.95,1.19,4.88
											c-0.62,1.97-1.08,4.2-1.49,6.24c2.9,0.64,6.1-3.3,7.76-5.15c5.13,3.95,6.12,13.56,6.97,19.56
											c0.17,1.18,1.39,13.03,1.45,13.64c0.67,6.62-5.6,11.83-12,9.96c-3.35-0.98-7.43-2.36-12.35-4.29
											c-4.32-1.7-23.29-11.27-27.13-16.44c2.58-1.87,5.8-3.37,8.1-5.65c-3.06-0.47-6.63,0.93-9.37,2.15
											c-0.32,0.14-1.08,0.46-1.94,0.8c-2.16,0.88-4.63,0.35-6.24-1.34c-4.29-4.51-11.42-13.88-14.4-18.67
											c2.96-1.28,5.38-1.68,8.46-2.94c-2.99-1.01-6.73,0.3-9.8-0.05c-2.2-0.25-1.74,0.37-2.72-1.88
											c-0.55-1.25-0.84-2.51-1.37-3.77c4.05-0.38,8.12-1.93,12.26-2.53c-2.89,0.41-6.2-0.32-9.07-0.51
											c-3.9-0.25-4.28-0.51-5.8-4.12c-2.62-6.2-5.33-13.04-6.98-19.49c-1.31-5.15-3.59-12.56-2.33-17.78
											C61.32,152.14,62.11,150.25,65.88,151.29z"/>
									</g>
								</g>
								<path class="st10" d="M69.74,165.27c4.04,5.75,8.23,11.44,12.6,16.99c-5.54-3.41-10.56-7.51-15.02-12.29
									c-0.64-0.68-1.84,0.18-1.19,0.87c5.36,5.74,11.47,10.53,18.33,14.36c0.11,0.06,0.21,0.09,0.31,0.09
									c1.71,2.12,3.45,4.22,5.21,6.29c-5.37-0.62-10.57-1.94-15.59-4.01c-0.87-0.36-1.49,0.98-0.61,1.34
									c5.56,2.29,11.34,3.72,17.33,4.27c0.08,0.01,0.15-0.01,0.22-0.02c1.7,1.96,3.43,3.89,5.18,5.81c-2.15,0.1-4.3,0.1-6.46,0.41
									c-2.57,0.37-5.09,0.97-7.61,1.56c-0.92,0.21-0.39,1.59,0.52,1.37c5.03-1.17,9.76-1.51,14.83-1.95
									c2.13,2.29,4.3,4.53,6.51,6.73c-2.51,0.19-5.03,0.05-7.54,0.37c-2.64,0.34-5.2,0.95-7.73,1.75
									c-0.91,0.28-0.38,1.66,0.52,1.37c2.79-0.87,5.62-1.5,8.53-1.79c2.53-0.25,5.08-0.05,7.59-0.36
									c2.04,1.99,4.12,3.94,6.24,5.85c-5.58,0.72-10.88,2.47-16.2,4.32c-0.9,0.31-0.38,1.69,0.52,1.37
									c5.6-1.95,11.19-3.81,17.12-4.39c3.7,3.27,7.51,6.4,11.45,9.36c-4.86,1.7-9.5,3.83-13.97,6.4
									c-0.82,0.47,0.05,1.66,0.87,1.19c4.63-2.66,9.47-4.82,14.53-6.52c2.31,1.7,4.66,3.34,7.06,4.93
									c-4.63,0.92-9.05,2.49-12.93,5.25c-0.77,0.55,0.09,1.74,0.87,1.19c4.01-2.85,8.6-4.38,13.41-5.21
									c0.13-0.02,0.23-0.07,0.32-0.14c2.43,1.57,4.91,3.06,7.44,4.5c-3.41,0.02-6.74,0.73-9.92,2.14
									c-0.86,0.38-0.35,1.76,0.52,1.37c3.96-1.76,8.08-2.39,12.38-1.87c2.12,1.15,4.27,2.26,6.46,3.31
									c0.86,0.41,1.46-0.93,0.61-1.34c-2.13-1.02-4.22-2.1-6.29-3.21c-0.08-0.08-0.18-0.14-0.32-0.17
									c-0.06-0.03-0.12-0.07-0.18-0.1c-1.72-5.82-1.74-11.73-0.11-17.59c0.25-0.91-1.2-1.15-1.45-0.24
									c-1.56,5.61-1.61,11.27-0.23,16.85c-2.65-1.49-5.25-3.05-7.79-4.68c0.12-0.17,0.18-0.39,0.11-0.64
									c-1.94-6.86-3.78-13.74-3.37-20.95c0.05-0.94-1.4-1.19-1.45-0.24c-0.42,7.17,1.28,14.02,3.2,20.86
									c-3.81-2.5-7.51-5.15-11.09-7.94c0.06-8.57,0.24-17.2,3.47-25.27c0.35-0.88-0.99-1.48-1.34-0.6
									c-3.17,7.91-3.51,16.33-3.59,24.73c-2.36-1.87-4.67-3.8-6.94-5.79c-0.19-7.25-0.96-14.83,1.69-21.76
									c0.34-0.88-1-1.49-1.34-0.6c-2.56,6.71-2.09,13.96-1.86,21.02c-1.96-1.75-3.9-3.54-5.8-5.37c0.06-0.15,0.07-0.32-0.01-0.51
									c-2.67-6.18-3.58-12.75-4.38-19.38c-0.11-0.94-1.58-0.8-1.47,0.14c0.72,5.97,1.53,11.89,3.58,17.52
									c-2.07-2.06-4.11-4.15-6.11-6.29c0.63-1.27-0.28-3.84-0.43-4.86c-0.54-3.8-1.18-7.58-1.89-11.36
									c-0.17-0.92-1.64-0.79-1.47,0.14c0.48,2.58,0.94,5.17,1.35,7.76c0.09,0.56,1.02,5.16,1.17,6.94
									c-1.85-2.01-3.68-4.05-5.48-6.12c0-0.01,0-0.01,0-0.02c-0.55-5.4-1.75-10.62-3.64-15.71c-0.33-0.89-1.71-0.37-1.38,0.52
									c1.59,4.29,2.68,8.69,3.29,13.2c-3.39-3.98-6.67-8.06-9.85-12.21c0.01-0.11,0.01-0.24-0.06-0.37
									c-1.9-3.97-3.79-7.94-5.69-11.92c-0.4-0.85-1.79-0.33-1.38,0.52c1,2.1,2.01,4.21,3.01,6.31c-2.04-2.77-4.05-5.55-6.02-8.36
									C70.39,163.63,69.19,164.49,69.74,165.27z"/>
							</g>
						</g>
					</g>
				</g>
				<path class="st16" d="M347.85,337.44c-2.13,0-4.2,0.03-6.19,0.08c-10.36-2.32-73.54-4.11-149.95-4.11
					c-83.64,0-151.45,2.14-151.45,4.78c0,0.22,0.47,0.43,1.37,0.64c-18.67,0.88-30.7,2.25-30.7,3.79c0,2.64,35.33,4.78,78.92,4.78
					c41.93,0,76.2-1.98,78.75-4.49c7.54,0.04,15.25,0.06,23.11,0.06c54.76,0,102.74-0.92,129.34-2.29
					c1.26,1.51,12.78,2.69,26.8,2.69c14.87,0,26.92-1.33,26.92-2.97S362.72,337.44,347.85,337.44z"/>
				<g>
					<g>
						
							<linearGradient id="SVGID_00000116199007330360620090000010645550737908363680_" gradientUnits="userSpaceOnUse" x1="230.005" y1="0.583" x2="230.005" y2="43.928" gradientTransform="matrix(1 0 0 -1 0 350.0847)">
							<stop  offset="7.131410e-03" style="stop-color:#D7DFF2"/>
							<stop  offset="0.1964" style="stop-color:#D3DDF1"/>
							<stop  offset="0.3829" style="stop-color:#C7D7EF"/>
							<stop  offset="0.5684" style="stop-color:#B3CEEC"/>
							<stop  offset="0.7534" style="stop-color:#98C0E7"/>
							<stop  offset="0.9362" style="stop-color:#74AFE1"/>
							<stop  offset="1" style="stop-color:#66A8DE"/>
						</linearGradient>
						
							<rect x="217.1" y="288.58" style="fill:url(#SVGID_00000116199007330360620090000010645550737908363680_);" width="25.81" height="41.98"/>
						
							<linearGradient id="SVGID_00000062884556051676474530000015629853256025678983_" gradientUnits="userSpaceOnUse" x1="230.43" y1="10.0876" x2="230.43" y2="53.4329" gradientTransform="matrix(1 0 0 -1 0 350.0847)">
							<stop  offset="7.131410e-03" style="stop-color:#D7DFF2"/>
							<stop  offset="0.1276" style="stop-color:#B8D0EC"/>
							<stop  offset="0.27" style="stop-color:#9AC1E7"/>
							<stop  offset="0.4213" style="stop-color:#83B6E3"/>
							<stop  offset="0.5834" style="stop-color:#73AEE0"/>
							<stop  offset="0.764" style="stop-color:#69A9DF"/>
							<stop  offset="1" style="stop-color:#66A8DE"/>
						</linearGradient>
						<path style="fill:url(#SVGID_00000062884556051676474530000015629853256025678983_);" d="M286.27,335.84H174.59v-0.25
							c0-4.66,3.77-8.43,8.43-8.43h94.82c4.66,0,8.43,3.77,8.43,8.43V335.84z"/>
					</g>
					
						<linearGradient id="SVGID_00000015336779311001199890000003144336740141490070_" gradientUnits="userSpaceOnUse" x1="230.43" y1="221.4444" x2="230.43" y2="82.8596" gradientTransform="matrix(1 0 0 -1 0 350.0847)">
						<stop  offset="7.131410e-03" style="stop-color:#D7DFF2"/>
						<stop  offset="0.1958" style="stop-color:#C7D7EF"/>
						<stop  offset="0.5628" style="stop-color:#9EC3E8"/>
						<stop  offset="1" style="stop-color:#66A8DE"/>
					</linearGradient>
					<path style="fill:url(#SVGID_00000015336779311001199890000003144336740141490070_);" d="M323.78,313.25h-186.7
						c-2.92,0-5.29-2.37-5.29-5.29v-139.1c0-2.92,2.37-5.29,5.29-5.29h186.7c2.92,0,5.29,2.37,5.29,5.29v139.09
						C329.08,310.88,326.71,313.25,323.78,313.25z"/>
					
						<linearGradient id="SVGID_00000049204060428037735910000012437510012040708237_" gradientUnits="userSpaceOnUse" x1="230.43" y1="107.8159" x2="230.43" y2="188.9348" gradientTransform="matrix(1 0 0 -1 0 350.0847)">
						<stop  offset="1.963140e-03" style="stop-color:#D7DFF2"/>
						<stop  offset="0.4855" style="stop-color:#E9ECF1"/>
						<stop  offset="1" style="stop-color:#F1F1F1"/>
					</linearGradient>
					
						<rect x="139.29" y="170.83" style="fill:url(#SVGID_00000049204060428037735910000012437510012040708237_);" width="182.28" height="120.64"/>
					<path class="st21" d="M237.02,303.03c-0.71,3.64-4.24,6.02-7.88,5.31s-6.02-4.23-5.31-7.88c0.71-3.64,4.23-6.02,7.88-5.31
						C235.36,295.86,237.73,299.39,237.02,303.03z"/>
					<rect x="139.32" y="271.85" class="st21" width="182.24" height="19.61"/>
					<g>
						<path class="st22" d="M169.21,205.58h4.36c0.13,2.36,1.71,3.94,4.91,3.94c2.88,0,4.43-1.2,4.43-3.3
							c0-1.71-1.16-2.65-3.46-3.07l-3.17-0.62c-4.04-0.78-6.47-2.65-6.47-6.3c0-4.11,3.2-6.4,8.34-6.4c5.21,0,8.63,2.46,8.63,6.69
							h-4.37c0-1.97-1.62-3.14-4.2-3.14c-2.68,0-3.94,1.26-3.94,2.98c0,1.39,0.87,2.49,2.97,2.88l3.01,0.58
							c5.01,0.94,7.15,2.88,7.15,6.4c0,4.49-3.56,6.85-8.96,6.85C172.67,213.08,169.21,210.27,169.21,205.58z"/>
						<path class="st22" d="M205.66,205.42h-12.12c0.26,3.2,1.84,4.62,4.66,4.62c1.97,0,3.1-0.81,3.65-2.49h3.69
							c-0.87,3.72-3.72,5.63-7.6,5.63c-4.56,0-8.31-2.72-8.31-8.76c0-6.08,3.69-8.79,8.25-8.79c4.69,0,7.89,2.78,7.89,8.7
							C205.76,204.74,205.72,205.1,205.66,205.42z M201.84,203.12c-0.1-2.68-1.42-4.33-4.04-4.33c-2.49,0-4.01,1.49-4.27,4.33
							H201.84z"/>
						<path class="st22" d="M207.76,204.39c0-6.05,3.94-8.76,8.34-8.76c1.84,0,3.52,0.49,4.98,1.49c1.46,1,2.3,2.72,2.59,5.14h-3.69
							c-0.39-2.17-1.84-3.17-3.91-3.17c-2.81,0-4.43,2.04-4.43,5.3c0,3.23,1.62,5.24,4.43,5.24c2.07,0,3.52-1.03,3.91-3.2h3.69
							c-0.23,2.42-1.1,4.14-2.55,5.14s-3.14,1.52-5.01,1.52C211.71,213.08,207.76,210.34,207.76,204.39z"/>
						<path class="st22" d="M242.04,195.95v16.81h-4.14v-3.46h-0.16c-0.39,1.65-2.13,3.78-5.5,3.78c-3.46,0-5.85-2.2-5.85-6.56
							v-10.57h4.14v9.6c0,2.75,1.16,4.11,3.46,4.11c2.33,0,3.91-1.42,3.91-4.11v-9.6H242.04z"/>
						<path class="st22" d="M256.01,195.98v3.49c-0.48-0.06-0.94-0.1-1.29-0.1c-2.97,0-5.08,1.81-5.08,5.56v7.82h-4.14v-16.81h4.14
							v4.01h0.1c0.61-2.46,2.3-4.14,4.98-4.14C255.2,195.82,255.62,195.88,256.01,195.98z"/>
						<path class="st22" d="M257.95,191.06c0-1.36,1.1-2.39,2.46-2.39c1.29,0,2.39,1.03,2.39,2.39c0,1.29-1.1,2.33-2.39,2.33
							C259.05,193.39,257.95,192.36,257.95,191.06z M258.34,195.95h4.14v16.81h-4.14V195.95z"/>
						<path class="st22" d="M275.25,209.66v3.23c-0.55,0.07-1.36,0.1-2.43,0.1c-3.27,0-5.21-1.55-5.21-4.95v-8.89h-2.81v-3.2h2.81
							v-4.3h4.14v4.3h3.3v3.2h-3.3v8.25c0,1.52,0.58,2.26,2.1,2.26H275.25z"/>
						<path class="st22" d="M278.3,215.64c0.45,0.06,0.84,0.1,1.2,0.1c1.97,0,2.81-0.78,3.33-2.04c0.16-0.36,0.26-0.74,0.26-1.13
							s-0.1-0.78-0.26-1.13l-6.21-15.49h4.24l4.3,11.64l4.33-11.64h4.27l-6.98,17.27c-1.78,4.36-3.65,6.05-7.05,6.05
							c-0.45,0-0.94-0.03-1.42-0.1L278.3,215.64L278.3,215.64z"/>
						<path class="st22" d="M184.61,240.25c0-7.28,4.11-11.61,10.44-11.61c5.17,0,8.83,2.65,9.34,7.83h-4.14
							c-0.71-2.75-2.46-4.14-5.21-4.14c-4.01,0-6.08,3.04-6.08,7.92c0,4.91,2.04,7.95,6.08,7.95c2.62,0,4.46-1.36,5.21-4.17h4.14
							c-0.52,5.17-4.17,7.86-9.34,7.86C188.71,251.89,184.61,247.59,184.61,240.25z"/>
						<path class="st22" d="M222.73,241v10.57h-4.14v-9.6c0-2.72-1.2-4.11-3.43-4.11c-2.36,0-3.91,1.42-3.91,4.11v9.6h-4.14v-22.63
							h4.14v9.28h0.13c0.39-1.65,2.13-3.78,5.5-3.78C220.37,234.43,222.73,236.63,222.73,241z"/>
						<path class="st22" d="M241.46,244.23h-12.12c0.26,3.2,1.84,4.62,4.66,4.62c1.97,0,3.1-0.81,3.65-2.49h3.69
							c-0.87,3.72-3.72,5.63-7.6,5.63c-4.56,0-8.31-2.72-8.31-8.76c0-6.08,3.69-8.79,8.25-8.79c4.69,0,7.89,2.78,7.89,8.7
							C241.56,243.55,241.52,243.91,241.46,244.23z M237.64,241.93c-0.1-2.68-1.42-4.33-4.04-4.33c-2.49,0-4.01,1.49-4.27,4.33
							H237.64z"/>
						<path class="st22" d="M243.56,243.19c0-6.05,3.94-8.76,8.34-8.76c1.84,0,3.52,0.49,4.98,1.49c1.46,1,2.3,2.72,2.59,5.14h-3.69
							c-0.39-2.17-1.84-3.17-3.91-3.17c-2.81,0-4.43,2.04-4.43,5.3c0,3.23,1.62,5.24,4.43,5.24c2.07,0,3.52-1.03,3.91-3.2h3.69
							c-0.23,2.42-1.1,4.14-2.55,5.14s-3.14,1.52-5.01,1.52C247.51,251.89,243.56,249.14,243.56,243.19z"/>
						<path class="st22" d="M274.09,251.57l-5.72-6.98l-2.04,2.13v4.85h-4.14v-22.63h4.14v13.35l6.85-7.53h4.59l-6.89,7.21l7.79,9.6
							H274.09z"/>
					</g>
				</g>
				<g>
					<path class="st23" d="M216.86,127.27c1.68,6.4-1.77,14.08-4.69,20.02c0,0,16.4,11.72,37.01,0.93l-1.69-4.49
						c-2.01-4.87-2.6-10.22-1.67-15.41l3.49-19.39c0.81-4.52-1.86-8.94-6.23-10.34l-4.67-1.48l-1.46-0.46
						c-1.73-0.55-3.54-0.83-5.36-0.83h-1.9c-2.85,0-5.65,0.68-8.18,2l0,0l-4.41,2.29c-3.8,1.97-5.72,6.31-4.63,10.44L216.86,127.27z
						"/>
					<path class="st23" d="M245.51,99.65c0,0,2,0.43,3.96,2.43c1.8,1.83,17.88,30.23,17.88,30.23c0.58,3.41-11.25,5.33-11.25,5.33
						l-10.65-17.79L245.51,99.65z"/>
					<path class="st24" d="M264.46,129.5c-3.82-0.05-7.35,1.22-10.28,3.68c-0.26,0.22,0.12,0.59,0.38,0.38
						c2.82-2.37,6.22-3.57,9.9-3.53C264.8,130.03,264.8,129.5,264.46,129.5z"/>
					<path class="st23" d="M217.88,99.65c0,0-2,0.43-3.96,2.43c-1.8,1.83-17.88,30.23-17.88,30.23c-0.58,3.41,11.25,5.33,11.25,5.33
						l10.65-17.79L217.88,99.65z"/>
					<path class="st24" d="M209.87,133.49c-2.72-3.04-6.58-4.56-10.64-4.16c-0.34,0.03-0.34,0.56,0,0.53
						c3.93-0.38,7.63,1.06,10.27,4.01C209.72,134.12,210.1,133.75,209.87,133.49z"/>
					<polygon class="st10" points="249.19,148.22 260.54,148.22 242.33,164.11 224.78,165.38 201.23,147.63 214.7,147.21 					"/>
					<polygon class="st10" points="249.19,148.22 260.54,148.22 242.33,164.11 224.78,165.38 201.23,147.63 214.7,147.21 					"/>
					<g>
						
							<linearGradient id="SVGID_00000125580899727024814080000012247937456677652386_" gradientUnits="userSpaceOnUse" x1="215.3022" y1="231.4423" x2="216.4053" y2="231.4423" gradientTransform="matrix(1 0 0 -1 0 350.0847)">
							<stop  offset="1.963140e-03" style="stop-color:#D7DFF2"/>
							<stop  offset="0.4855" style="stop-color:#E9ECF1"/>
							<stop  offset="1" style="stop-color:#F1F1F1"/>
						</linearGradient>
						<path style="fill:url(#SVGID_00000125580899727024814080000012247937456677652386_);" d="M216,110.6
							c0.02-0.34-0.51-0.34-0.53,0c-0.32,5.38-0.18,10.73,0.4,16.09c0.04,0.34,0.57,0.34,0.53,0
							C215.82,121.34,215.68,115.99,216,110.6z"/>
						
							<linearGradient id="SVGID_00000174593740227966605460000009062981646810469782_" gradientUnits="userSpaceOnUse" x1="1886.8372" y1="231.4423" x2="1887.9403" y2="231.4423" gradientTransform="matrix(-1 0 0 -1 2133.7383 350.0847)">
							<stop  offset="1.963140e-03" style="stop-color:#D7DFF2"/>
							<stop  offset="0.4855" style="stop-color:#E9ECF1"/>
							<stop  offset="1" style="stop-color:#F1F1F1"/>
						</linearGradient>
						<path style="fill:url(#SVGID_00000174593740227966605460000009062981646810469782_);" d="M246.2,110.6
							c-0.02-0.34,0.51-0.34,0.53,0c0.32,5.38,0.18,10.73-0.4,16.09c-0.04,0.34-0.57,0.34-0.53,0
							C246.39,121.34,246.52,115.99,246.2,110.6z"/>
					</g>
					<path class="st27" d="M230.64,100.56L230.64,100.56c1.99,0,3.6-1.61,3.6-3.6v-7.28c0-0.55-0.44-0.99-0.99-0.99h-5.23
						c-0.55,0-0.99,0.44-0.99,0.99v7.28C227.03,98.95,228.65,100.56,230.64,100.56z"/>
					<path class="st28" d="M230.64,97.97L230.64,97.97c1.99,0,3.6-1.61,3.6-3.6v-7.28c0-0.55-0.44-0.99-0.99-0.99h-5.23
						c-0.55,0-0.99,0.44-0.99,0.99v7.28C227.03,96.35,228.65,97.97,230.64,97.97z"/>
					<g>
						<path class="st27" d="M244.04,84.68c-0.54,2.33-2.3,3.07-3.95,3.54c-0.75,1.55-1.81,3.06-3.04,4.33
							c-1.28,1.51-2.94,2.63-4.82,3.09l-0.16,0.03c-0.11,0.02-0.22,0.05-0.33,0.08c-0.08,0.01-0.15,0.01-0.23,0.02
							c-0.07,0.01-0.12,0.01-0.19,0.02c-0.14,0.01-0.3,0.02-0.44,0.02c-0.15,0-0.3-0.01-0.44-0.02c-0.07-0.01-0.13-0.01-0.2-0.02
							c-0.08-0.01-0.15-0.01-0.22-0.02c-0.12-0.02-0.22-0.05-0.33-0.08c-0.05-0.01-0.11-0.02-0.18-0.03
							c-1.88-0.46-3.54-1.58-4.82-3.09c-1.05-1.1-1.98-2.37-2.7-3.68c-0.12-0.22-0.23-0.43-0.34-0.65c-0.49-0.13-0.99-0.3-1.46-0.54
							c-1.12-0.51-2.1-1.36-2.48-3c-0.3-1.3-0.14-2.89,0.53-3.77c0.27-0.37,0.64-0.61,1.08-0.65c0.46-0.04,0.99,0.13,1.49,0.43
							c0.68-3.08,2.3-6.37,4.3-8.62c0.84-1.12,1.81-1.84,2.86-2.29c0.57-0.27,1.14-0.46,1.72-0.5c0.39-0.04,0.79-0.05,1.17-0.04
							c0.38-0.01,0.78,0,1.17,0.04c0.57,0.04,1.15,0.23,1.71,0.5c1.05,0.45,2.02,1.17,2.86,2.29c2.01,2.26,3.63,5.55,4.3,8.62
							c0.22-0.13,0.45-0.23,0.67-0.31c0.28-0.1,0.57-0.14,0.82-0.12C243.96,80.39,244.46,82.83,244.04,84.68z"/>
					</g>
					<g>
						<path class="st29" d="M244.36,72.52c-2.15-0.17-4.11-2.46-5.7-3.77c-1.8-1.48-3.46-1.98-5.69-2.2
							c-0.91-0.09-1.91-0.26-2.86-0.1c-1.17,0.19-1.83,0.92-2.97,0.99c-3.16,0.2-4.39,0.1-6.31,2.83c-1.38,1.96-2.85,4.46-5.07,5.56
							c0.54,0.04,2.7-0.32,3.11,0.03c0.44,0.38-0.08,1.93-0.06,2.59c0.06,1.46,0.75,2.8,1.58,3.97c0.32,2.16,0.97,4.29,1.77,6.29
							c-0.06-4.01,0.29-8.72,2.45-12.21c0.19,0.96,0.12,1.94,0.17,2.92c1.57-1.29,2.7-3.01,4.11-4.43c1.11,1.61,2.14,2.99,3.92,3.97
							c0.1-1.63,0.67-3.02,1.13-4.56c0.93,1.28,1.46,2.78,2.35,4.08c1.02,1.49,2.26,2.85,2.92,4.57c0.89,2.33,0.67,5.3,0.44,7.76
							c0.8-1.89,1.83-3.43,2.22-5.5c0.26-1.42,0.4-2.95,0.4-4.4c-0.01-2.73-0.46-5.24-0.55-7.9
							C242.69,72.96,243.51,73.05,244.36,72.52z"/>
					</g>
					<g>
						<g>
							<g>
								<path class="st30" d="M225.16,81.94c0.12,0.01,0.24-0.06,0.3-0.17c0.93-1.76,2.55-1.04,2.62-1.01
									c0.16,0.07,0.34,0,0.42-0.15c0.07-0.16,0-0.34-0.15-0.42c-0.77-0.36-2.48-0.54-3.44,1.29c-0.08,0.15-0.02,0.34,0.13,0.42
									C225.07,81.93,225.12,81.94,225.16,81.94z"/>
							</g>
						</g>
						<g>
							<g>
								<path class="st30" d="M234.32,81.15c0.07,0.07,0.18,0.09,0.28,0.06c1.56-0.61,2.19,0.74,2.22,0.8
									c0.06,0.13,0.22,0.19,0.35,0.13c0.13-0.06,0.19-0.22,0.13-0.35c-0.29-0.65-1.28-1.7-2.89-1.07
									c-0.14,0.05-0.2,0.21-0.15,0.34C234.27,81.09,234.29,81.12,234.32,81.15z"/>
							</g>
						</g>
						<g>
							<g>
								<path class="st30" d="M230.53,90.46c-0.04-0.11-0.13-0.2-0.26-0.22c-1.97-0.25-1.86-2.02-1.86-2.1
									c0.01-0.17-0.12-0.32-0.29-0.33s-0.32,0.12-0.33,0.29c-0.06,0.84,0.36,2.5,2.4,2.76c0.17,0.02,0.33-0.1,0.35-0.27
									C230.55,90.55,230.55,90.5,230.53,90.46z"/>
							</g>
						</g>
						<g>
							<path class="st30" d="M232.1,89.48c0.23,0,0.45-0.06,0.65-0.19c0.62-0.4,0.77-1.32,0.42-2.46l-0.8-3.79
								c-0.03-0.15-0.17-0.24-0.32-0.21c-0.15,0.03-0.24,0.18-0.21,0.32l0.81,3.81c0.33,1.08,0.12,1.67-0.19,1.87
								c-0.32,0.21-0.8,0.09-1.24-0.29c-0.11-0.1-0.29-0.1-0.39,0.01s-0.11,0.27,0,0.37C231.25,89.29,231.7,89.48,232.1,89.48z"/>
						</g>
						<path class="st30" d="M236.29,83.92c-0.04,0.56-0.49,0.98-1,0.94s-0.88-0.53-0.84-1.08c0.04-0.56,0.49-0.98,1-0.94
							C235.96,82.87,236.34,83.36,236.29,83.92z"/>
						<path class="st30" d="M228.14,83.92c-0.04,0.56-0.49,0.98-1,0.94s-0.88-0.53-0.84-1.08c0.04-0.56,0.49-0.98,1-0.94
							C227.81,82.87,228.19,83.36,228.14,83.92z"/>
					</g>
					<path class="st27" d="M234.44,146.53l-0.92-4.74c-0.18-0.95,0.31-1.9,1.2-2.31l1.01-0.46c1.12-0.51,2.42-0.36,3.39,0.4
						l3.57,2.78c0.55,0.44,1.33,0.5,1.94,0.13l0.2-0.12l2.82-1.64c0,0,15.28-12.83,19.7-8.26c2.1,3.16,0.45,7.45-3.21,8.4
						l-14.05,3.64l-3.77,0.98l-2.48,0.65c-0.5,0.12-1.04,0.11-1.53-0.04l-5.11-1.59c-0.34-0.11-0.7,0.11-0.76,0.47l-0.58,1.8
						C235.61,147.32,234.58,147.25,234.44,146.53z"/>
					<path class="st27" d="M228.95,146.53l0.92-4.74c0.18-0.95-0.31-1.9-1.2-2.31l-1.01-0.46c-1.12-0.51-2.42-0.36-3.39,0.4
						l-3.57,2.78c-0.55,0.44-1.33,0.5-1.94,0.13l-0.2-0.12l-2.82-1.64c0,0-15.28-12.83-19.7-8.26c-2.1,3.16-0.45,7.45,3.21,8.4
						l14.05,3.64l3.77,0.98l2.48,0.65c0.5,0.12,1.04,0.11,1.53-0.04l5.11-1.59c0.34-0.11,0.7,0.11,0.76,0.47l0.58,1.8
						C227.79,147.32,228.81,147.25,228.95,146.53z"/>
					<g>
						<g>
							
								<linearGradient id="SVGID_00000029740253527813504460000014591204631243790750_" gradientUnits="userSpaceOnUse" x1="230.89" y1="194.9108" x2="230.89" y2="242.025" gradientTransform="matrix(1 0 0 -1 0 350.0847)">
								<stop  offset="0" style="stop-color:#66A8DE"/>
								<stop  offset="0.4372" style="stop-color:#9EC3E8"/>
								<stop  offset="0.8042" style="stop-color:#C7D7EF"/>
								<stop  offset="0.9929" style="stop-color:#D7DFF2"/>
							</linearGradient>
							
								<rect x="209.48" y="124.87" style="fill:url(#SVGID_00000029740253527813504460000014591204631243790750_);" width="42.82" height="27.57"/>
							
								<linearGradient id="SVGID_00000121967326677242611110000012207923612976065433_" gradientUnits="userSpaceOnUse" x1="230.89" y1="193.7786" x2="230.89" y2="198.8655" gradientTransform="matrix(1 0 0 -1 0 350.0847)">
								<stop  offset="0" style="stop-color:#66A8DE"/>
								<stop  offset="0.4372" style="stop-color:#9EC3E8"/>
								<stop  offset="0.8042" style="stop-color:#C7D7EF"/>
								<stop  offset="0.9929" style="stop-color:#D7DFF2"/>
							</linearGradient>
							<path style="fill:url(#SVGID_00000121967326677242611110000012207923612976065433_);" d="M252.99,152.44h-44.2
								c-0.59,0-1.07,0.48-1.07,1.07l0,0c0,0.59,0.48,1.07,1.07,1.07h44.2c0.59,0,1.07-0.48,1.07-1.07l0,0
								C254.06,152.92,253.58,152.44,252.99,152.44z"/>
						</g>
						
							<linearGradient id="SVGID_00000139990908949871013110000006613630620634637495_" gradientUnits="userSpaceOnUse" x1="231.15" y1="197.548" x2="231.15" y2="212.6077" gradientTransform="matrix(1 0 0 -1 0 350.0847)">
							<stop  offset="0" style="stop-color:#66A8DE"/>
							<stop  offset="0.4372" style="stop-color:#9EC3E8"/>
							<stop  offset="0.8042" style="stop-color:#C7D7EF"/>
							<stop  offset="0.9929" style="stop-color:#D7DFF2"/>
						</linearGradient>
						<path style="fill:url(#SVGID_00000139990908949871013110000006613630620634637495_);" d="M234.88,140.62
							c0,2.06-1.67,3.73-3.73,3.73s-3.73-1.67-3.73-3.73s1.67-3.73,3.73-3.73C233.2,136.89,234.88,138.56,234.88,140.62z"/>
					</g>
					<g>
						<path class="st10" d="M193.47,157.46c0.72,3.16,3.22,5.45,6.19,6.09c0.26,0.05,0.53,0.1,0.8,0.13
							c10.31,2.83,21.67,4.84,33.89,6.15c3.33,0.37,6.74,0.67,10.19,0.93l5.97,5.55c0.05,0.04,0.11,0.1,0.17,0.14
							c2.69,2.11,6.56-0.33,5.97-3.7l-0.35-1.99c0-0.02-0.01-0.03-0.01-0.04c-0.72-1.95-2.46-3.34-4.51-3.71l-6.18-1.13
							c-2.98-0.94-5.92-1.89-8.78-2.85c-12.44-4.17-23.52-8.62-32.08-14.64c-1.58-0.74-3.39-0.99-5.22-0.58
							C195.21,148.8,192.49,153.12,193.47,157.46z"/>
						<path class="st30" d="M234.35,169.83c3.33,0.37,6.74,0.67,10.19,0.93l5.97,5.55c0.05,0.04,0.11,0.1,0.17,0.14
							c2.69,2.11,6.56-0.33,5.97-3.7l-0.35-1.99c0-0.02-0.01-0.03-0.01-0.04c-0.72-1.95-2.46-3.34-4.51-3.71l-6.18-1.13
							c-2.98-0.94-5.92-1.89-8.78-2.85L234.35,169.83z"/>
						<path class="st10" d="M212.72,175.95c0.06-0.05,0.12-0.1,0.17-0.14l6.05-5.63c3.09-0.32,6.14-0.65,9.14-1
							c13.33-1.54,25.47-3.38,34.42-6.03c0.27-0.03,0.53-0.07,0.8-0.13c2.97-0.63,5.46-2.92,6.18-6.09
							c0.99-4.34-1.73-8.64-6.06-9.63c-1.83-0.41-3.65-0.17-5.22,0.58c-9.17,5.93-20.05,10.72-32.05,14.73
							c-3.02,1.02-6.11,1.98-9.26,2.9l0.01,0.04l-5.29,0.97c-2.03,0.37-3.78,1.76-4.5,3.7c0,0.02-0.01,0.03-0.01,0.04l-0.35,1.99
							C206.16,175.62,210.03,178.06,212.72,175.95z"/>
						<path class="st30" d="M212.72,175.95c0.06-0.05,0.12-0.1,0.17-0.14l6.05-5.63c3.09-0.32,6.14-0.65,9.14-1
							c-0.48-1.66-1.28-4.34-1.93-6.56c-3.02,1.02-6.11,1.98-9.26,2.9l0.01,0.04l-5.29,0.97c-2.03,0.37-3.78,1.76-4.5,3.7
							c0,0.02-0.01,0.03-0.01,0.04l-0.35,1.99C206.16,175.62,210.03,178.06,212.72,175.95z"/>
					</g>
					<path class="st24" d="M236.77,97.14c-0.13-0.31-0.64-0.18-0.51,0.14c3.05,7.51-13.74,8.79-11.56-0.12
						c0.08-0.33-0.43-0.47-0.51-0.14C221.78,106.8,240.13,105.43,236.77,97.14z"/>
				</g>
				<g>
					<g>
						<g>
							<circle class="st21" cx="132.75" cy="334.25" r="4.95"/>
							<path class="st21" d="M105.63,334.25c0,2.73,2.21,4.95,4.95,4.95c2.73,0,4.95-2.21,4.95-4.95c0-2.73-2.21-4.95-4.95-4.95
								C107.84,329.31,105.63,331.52,105.63,334.25z"/>
							<circle class="st21" cx="90.42" cy="334.25" r="4.95"/>
							<g>
								
									<linearGradient id="SVGID_00000079478324621394125810000001508268685745893304_" gradientUnits="userSpaceOnUse" x1="108.87" y1="41.7623" x2="113.02" y2="41.7623" gradientTransform="matrix(1 0 0 -1 0 350.0847)">
									<stop  offset="7.131410e-03" style="stop-color:#D7DFF2"/>
									<stop  offset="0.1958" style="stop-color:#C7D7EF"/>
									<stop  offset="0.5628" style="stop-color:#9EC3E8"/>
									<stop  offset="1" style="stop-color:#66A8DE"/>
								</linearGradient>
								<path style="fill:url(#SVGID_00000079478324621394125810000001508268685745893304_);" d="M110.94,334.07L110.94,334.07
									c1.15,0,2.08-0.93,2.08-2.08v-49.41h-4.15v49.41C108.87,333.14,109.8,334.07,110.94,334.07z"/>
								<rect x="122.98" y="241.35" class="st35" width="4.15" height="29.56"/>
								
									<linearGradient id="SVGID_00000051369483096861614620000005599742393028388751_" gradientUnits="userSpaceOnUse" x1="93.4142" y1="93.9473" x2="97.5674" y2="93.9473" gradientTransform="matrix(1 0 0 -1 0 350.0847)">
									<stop  offset="7.131410e-03" style="stop-color:#D7DFF2"/>
									<stop  offset="0.1958" style="stop-color:#C7D7EF"/>
									<stop  offset="0.5628" style="stop-color:#9EC3E8"/>
									<stop  offset="1" style="stop-color:#66A8DE"/>
								</linearGradient>
								<polygon style="fill:url(#SVGID_00000051369483096861614620000005599742393028388751_);" points="93.41,270.92 
									97.57,270.92 97.57,241.36 93.41,241.36 								"/>
								
									<linearGradient id="SVGID_00000015329720946065880710000009540969832320507305_" gradientUnits="userSpaceOnUse" x1="105.81" y1="66.9073" x2="116.13" y2="66.9073" gradientTransform="matrix(1 0 0 -1 0 350.0847)">
									<stop  offset="7.131410e-03" style="stop-color:#D7DFF2"/>
									<stop  offset="0.1958" style="stop-color:#C7D7EF"/>
									<stop  offset="0.5628" style="stop-color:#9EC3E8"/>
									<stop  offset="1" style="stop-color:#66A8DE"/>
								</linearGradient>
								<polygon style="fill:url(#SVGID_00000015329720946065880710000009540969832320507305_);" points="105.81,289.48 
									116.13,289.48 116.13,276.88 105.81,276.88 								"/>
							</g>
							<path class="st21" d="M92.44,281.79h35.91c3.71,0,6.72-3.01,6.72-6.72l0,0c0-3.71-3.01-6.72-6.72-6.72H92.44
								c-3.71,0-6.72,3.01-6.72,6.72l0,0C85.72,278.78,88.73,281.79,92.44,281.79z"/>
							<path class="st21" d="M95.71,244.17h32.64c3.71,0,6.72-3.01,6.72-6.72l0,0c0-3.71-3.01-6.72-6.72-6.72H95.71
								c-3.71,0-6.72,3.01-6.72,6.72l0,0C88.99,241.16,92,244.17,95.71,244.17z"/>
							
								<linearGradient id="SVGID_00000170969961429913825460000002007603778550450860_" gradientUnits="userSpaceOnUse" x1="88.4894" y1="23.6222" x2="134.39" y2="23.6222" gradientTransform="matrix(1 0 0 -1 0 350.0847)">
								<stop  offset="7.131410e-03" style="stop-color:#D7DFF2"/>
								<stop  offset="0.1958" style="stop-color:#C7D7EF"/>
								<stop  offset="0.5628" style="stop-color:#9EC3E8"/>
								<stop  offset="1" style="stop-color:#66A8DE"/>
							</linearGradient>
							<path style="fill:url(#SVGID_00000170969961429913825460000002007603778550450860_);" d="M95.24,317.95h32.39
								c3.74,0,6.76,3.03,6.76,6.76v8.35c0,1.06-0.86,1.92-1.92,1.92l0,0c-1.06,0-1.92-0.86-1.92-1.92v-7.49
								c0-2.08-1.69-3.77-3.77-3.77H96.21c-2.08,0-3.77,1.69-3.77,3.77v7.49c0,1.06-0.86,1.92-1.92,1.92H90.5
								c-1.05,0-1.91-0.85-1.92-1.9l-0.09-8.3C88.44,321.02,91.48,317.95,95.24,317.95z"/>
						</g>
						<g>
							<path class="st23" d="M104.39,212.53l-3.27,21.9c-0.59,3.94-4.48,6.49-8.33,5.46l-21.48-5.79l0.49-5.21l20.11,1.77
								l1.85-15.81c0.54-4.61,3.37-8.63,7.52-10.7l0,0C104.64,202.72,104.93,208.92,104.39,212.53z"/>
							<g>
								<g>
									<path class="st21" d="M123.1,214.85c0.39-0.12,0.78-0.32,1.16-0.55C124.08,214.74,123.73,214.98,123.1,214.85z"/>
								</g>
								<g>
									<path class="st21" d="M101.57,188.85c0.41-2.3,0.39-4.66,0.93-6.95c0.52-2.19,1.51-4.07,2.62-5.85
										c0.75-1.2,1.76-2.21,2.85-2.87c0.82-0.49,2.59-1.25,3.44-0.47l5.35,0.57c1.67-0.5,3.76,0.52,5.2,1.63
										c2.11,1.61,3.08,4,4.23,6.67c0.93,2.16,1.14,4.29,0.95,6.73c-0.14,1.86-0.85,3.36-0.84,5.3c0.01,1.91,0.65,3.64,1.72,4.96
										c0.75,0.94,1.57,1.92,2.51,2.53c0.59,0.38,1.4,0.59,1.9,1.08c-1.05,0.35-2.85-0.52-3.88-0.92
										c-0.89-0.35-1.62-1.14-2.5-1.46c0.27,1.24,0.86,2.08,0.96,3.49c0.15,2.09-0.49,3.36-1.53,4.94
										c-1.42,2.17-3.38,3.52-5.17,5.14c-1.05,0.95-2.27,2.17-3.54,2.93c0.5-1.22-0.34-3.99-0.47-4.98
										c-0.15-1.06-0.61-1.9-0.64-2.99c-0.03-0.87-0.03-1.84,0.12-2.67c-2.13,3.46-5.48,7.89-3.91,12.73
										c-1.41-1.25-2.7-2.94-3.94-4.47c-1.27-1.55-2.71-3.16-3.81-4.9c-1.97-3.1-2.93-6.61-3.08-10.6
										C100.92,195.18,101.01,192,101.57,188.85z"/>
								</g>
							</g>
							<path class="st23" d="M116.36,249.31l-22.26,0.43l6.57-11.18c-1.45-8.16-3-20.53-3.31-28.13c-0.14-3.56,2.28-6.57,5.4-6.7
								l21.21-0.86c3.33-0.13-0.16,2.28-0.37,6.08s1.85,8.61,2.03,11.84c0.22,3.93-2.03,2.56-2.77,8.75
								c-0.13,1.12-0.16,2.26-0.12,3.4c0.14,4.74,1.2,9.41,2.96,13.82l0.94,2.35l-9.9,0.19c-0.02,0.02-0.05,0.05-0.07,0.07
								L116.36,249.31z"/>
							<path class="st24" d="M123.19,225.68c0.02-0.12,0.1-0.16,0.19-0.17c1.23-2.04,2.46-4.22,1.79-6.68
								c-0.46-1.69-1.52-3.1-1.89-4.84c-0.07-0.33,0.44-0.48,0.51-0.14c0.47,2.2,2.08,4.07,2.12,6.37c0.04,2.06-1.12,3.98-2.15,5.68
								c-0.02,0.04-0.06,0.04-0.08,0.06c-0.8,4.78-1.44,9.61,0.79,14.12c0.15,0.31-0.31,0.58-0.46,0.27
								C121.7,235.66,122.36,230.65,123.19,225.68z"/>
							<g>
								<path class="st21" d="M121.75,316.21c0,0-2.56,18.73-7.32,14.58c-0.26,1.48-0.65,2.72-1.31,3.66
									c-2.06,2.94,4.73,4,7.34,2.72c2.63-1.28,1.14-11.33,1.14-11.33S125.32,319.83,121.75,316.21z"/>
								<path class="st10" d="M96.67,248.93l27.66,0.15c4.75,0.03,8.61,4.46,8.58,9.85c-0.01,2.64-0.97,5.04-2.49,6.8
									c-0.04,0.12-0.08,0.25-0.14,0.37c-1.71,3.12-4.8,5.28-8.91,6.74c-0.22,0.07-2,0.77-2.75,1.04l-10.9-2.79v-0.05
									c0.12-0.9,0.39-1.71,0.77-2.43l-11.94-0.07c-4.75-0.03-8.61-4.46-8.58-9.85C88.02,253.29,91.92,248.9,96.67,248.93z"/>
								<path class="st39" d="M122.52,293.79c-0.02,1.15-0.04,2.31-0.07,3.48c-0.14,6.21-0.41,12.69-0.7,18.94
									c0,0-2.07,15.18-5.96,15.18c-0.44,0-0.88-0.18-1.36-0.6c0.33-3.19,0.72-6.23,1.21-8.94c0.11-0.63,0.23-1.23,0.35-1.8
									c0.06-0.32,0.14-0.66,0.22-1c0.23-0.94,0.5-1.89,0.84-2.87c-0.01-0.14-0.7-2.42-1.7-6.09c-0.9-3.34-2.08-7.8-3.24-12.83
									c-0.12-0.5-0.23-1.01-0.35-1.53c-1.51-6.66-2.96-14.19-3.74-21.29c-0.67-5.94-0.88-11.58-0.28-16.17l10.9,2.8
									c-0.16,0.05-0.28,0.09-0.32,0.11C122.03,262,122.79,276.48,122.52,293.79z"/>
								<path class="st10" d="M122.52,293.79c-0.02,1.15-0.04,2.31-0.07,3.48h-10.34c-0.12-0.5-0.23-1.01-0.35-1.53
									c-1.51-6.66-2.96-14.19-3.74-21.29c-0.67-5.94-0.88-11.58-0.28-16.17l10.9,2.8c-0.16,0.05-0.28,0.09-0.32,0.11
									C122.03,262,122.79,276.48,122.52,293.79z"/>
								<path class="st40" d="M117.03,316.18c-0.3,0.87-0.57,1.83-0.82,2.87c0.23-0.94,0.5-1.9,0.83-2.87H117.03z"/>
								<path class="st39" d="M120.41,257.24c0.26,10.87-8.51,24.6-18.35,38.67c-0.32,0.45-0.63,0.9-0.96,1.35
									c-3.69,5.26-7.48,10.57-11,15.76l-3.6-3.24l4.53-12.52l2.97-8.18l11.71-32.37c1.41-3.87,4.72-6.38,8.41-6.38
									c1.69,0,3.24,0.78,4.38,2.02C119.64,253.59,120.37,255.3,120.41,257.24z"/>
								<path class="st21" d="M82.27,327.71c2.52-2.98,5.96-6.9,7.83-14.68c-1.66,3.25-3.28,6.18-4.78,8.3
									c-1.97,2.8-5.87-0.13-4.35-3.27c2.02-4.13,5.52-8.27,5.52-8.27l-0.03-0.03c-5.62,5.35-7.7,8.12-9.33,14.87
									C76.2,328.5,79.84,330.58,82.27,327.71z"/>
								<path class="st39" d="M85.33,321.32c1.5-2.12,3.12-5.05,4.78-8.3l-3.6-3.23c0,0-3.5,4.14-5.52,8.27
									C79.45,321.19,83.35,324.12,85.33,321.32z"/>
							</g>
							<g>
								<path class="st24" d="M112.27,216.47c-3.36-0.75-5.97-3.21-6.93-6.52c0.69-0.29,1.31-0.68,1.85-1.21
									c0.11-0.1,0.04-0.24-0.06-0.29c0.03-0.09,0-0.21-0.12-0.24c-0.46-0.12-0.9-0.29-1.32-0.53c-0.21-0.12-0.8-0.42-0.99-0.73
									c0.66-0.31,1.23-0.89,1.77-1.33c0.86-0.7,1.7-1.42,2.53-2.17c0.18-0.16-0.09-0.41-0.27-0.25c-0.7,0.63-1.4,1.24-2.12,1.84
									c-0.59,0.49-1.3,1.23-2.05,1.58c-0.09-0.05-0.21-0.01-0.26,0.1c-0.03,0.01-0.06,0.03-0.1,0.03
									c-0.23,0.06-0.12,0.41,0.11,0.35c0.01,0,0.02-0.01,0.03-0.01c0.16,0.31,0.56,0.52,0.85,0.71c0.52,0.34,1.08,0.58,1.67,0.75
									c-0.54,0.5-1.16,0.89-1.85,1.14c-0.17,0.06-0.15,0.29-0.02,0.35c0.99,3.44,3.71,6,7.2,6.79
									C112.42,216.88,112.5,216.52,112.27,216.47z"/>
								<path class="st24" d="M121.1,206.98c-1.59-1.13-2.95-2.48-4.09-4.07c-0.14-0.19-0.45,0-0.31,0.2
									c1.13,1.58,2.49,2.93,4.05,4.07c-0.03,0.01-0.06,0.03-0.09,0.06c-0.25,0.43-1.43,0.54-1.89,0.63
									c-0.7,0.14-1.41,0.22-2.13,0.26c-0.2,0.01-0.21,0.25-0.08,0.34c-0.01,0.04-0.01,0.09,0.03,0.14
									c0.52,0.75,1.19,1.35,1.97,1.8c-1.02,2.54-2.84,4.55-5.27,5.82c-0.21,0.11-0.02,0.42,0.2,0.31
									c2.53-1.32,4.42-3.43,5.46-6.09c0.02-0.06,0.02-0.11,0-0.15c0-0.06-0.02-0.11-0.08-0.15c-0.76-0.42-1.4-0.98-1.91-1.68
									c0.78-0.06,1.56-0.16,2.33-0.34c0.55-0.13,1.39-0.19,1.7-0.72c0.02-0.03,0.01-0.06,0.01-0.09
									C121.16,207.33,121.27,207.1,121.1,206.98z"/>
								<g>
									
										<linearGradient id="SVGID_00000122696190728882916070000000694641624916172469_" gradientUnits="userSpaceOnUse" x1="113.64" y1="104.3923" x2="128.44" y2="104.3923" gradientTransform="matrix(1 0 0 -1 0 350.0847)">
										<stop  offset="7.131410e-03" style="stop-color:#D7DFF2"/>
										<stop  offset="0.1958" style="stop-color:#C7D7EF"/>
										<stop  offset="0.5628" style="stop-color:#9EC3E8"/>
										<stop  offset="1" style="stop-color:#66A8DE"/>
									</linearGradient>
									<polygon style="fill:url(#SVGID_00000122696190728882916070000000694641624916172469_);" points="128.44,247.07 
										113.64,247.07 113.64,244.32 127.6,246.29 									"/>
									
										<linearGradient id="SVGID_00000070803898519162319060000002320266667049340050_" gradientUnits="userSpaceOnUse" x1="85.49" y1="104.3923" x2="113.64" y2="104.3923" gradientTransform="matrix(1 0 0 -1 0 350.0847)">
										<stop  offset="7.131410e-03" style="stop-color:#D7DFF2"/>
										<stop  offset="0.1958" style="stop-color:#C7D7EF"/>
										<stop  offset="0.5628" style="stop-color:#9EC3E8"/>
										<stop  offset="1" style="stop-color:#66A8DE"/>
									</linearGradient>
									<polygon style="fill:url(#SVGID_00000070803898519162319060000002320266667049340050_);" points="85.49,244.32 
										113.64,244.32 113.64,247.07 85.49,247.07 									"/>
								</g>
							</g>
							<g>
								<path class="st39" d="M115.82,208.04l-3.56,7.17l-2.76-8.4c-0.35-1.06-0.51-2.18-0.46-3.3l0.05-1.18l-0.01-0.2l-0.06-3.79
									l7.8-1.08l-0.02,3.14c0,0.57-0.01,1.16-0.05,1.74c0,0.14,0.02,0.78,0.04,1.5c0.01,0.16,0.01,0.33-0.01,0.49
									C116.76,205.48,116.43,206.81,115.82,208.04z"/>
								<path class="st28" d="M116.78,204.11c-1.24,0.24-2.56,0.22-3.87-0.09c-1.46-0.34-2.75-1-3.82-1.89l-0.06-3.79l7.8-1.08
									l-0.02,3.14c0,0.57-0.01,1.16-0.05,1.74c0,0.14,0.02,0.78,0.04,1.5C116.8,203.79,116.79,203.95,116.78,204.11z"/>
								<path class="st39" d="M102.49,182.47c0.46,0.03,0.95,0.27,1.4,0.64c1.11-2.94,3.18-5.93,5.47-7.87
									c0.99-0.98,2.04-1.56,3.14-1.84c0.6-0.19,1.19-0.29,1.76-0.26c0.39,0.02,0.78,0.07,1.16,0.13c0.38,0.05,0.76,0.12,1.15,0.21
									c0.56,0.13,1.1,0.4,1.62,0.75c0.97,0.58,1.81,1.44,2.48,2.66c1.64,2.51,2.77,5.97,2.99,9.1c0.55-0.22,1.08-0.32,1.53-0.21
									c1.49,0.35,1.64,2.82,0.95,4.57c-0.86,2.22-2.71,2.69-4.38,2.91c-0.96,1.41-2.22,2.75-3.61,3.83
									c-1.48,1.3-3.27,2.17-5.19,2.35c-0.06,0.01-0.11,0.01-0.17,0.01c-0.11,0.01-0.22,0.03-0.33,0.03
									c-0.08,0-0.15-0.01-0.23-0.01c-0.06,0-0.13-0.01-0.19-0.01c-0.15-0.01-0.29-0.02-0.44-0.04c-0.15-0.02-0.29-0.05-0.43-0.08
									c-0.06-0.01-0.12-0.03-0.18-0.05c-0.07-0.02-0.15-0.03-0.22-0.05c-0.11-0.04-0.21-0.08-0.31-0.12
									c-0.05-0.02-0.11-0.04-0.16-0.06c-1.79-0.72-3.26-2.06-4.3-3.73c-1.02-1.42-1.85-3.07-2.36-4.7
									c-1.54-0.69-3.18-1.67-3.37-4.05C100.12,184.7,100.96,182.38,102.49,182.47z"/>
								<g>
									<g>
										<path class="st21" d="M113.27,194.54c1.11-0.18,2.38-0.78,3.13-2.47c0.06-0.14,0-0.3-0.14-0.36s-0.3,0-0.36,0.14
											c-1.33,3.02-4.51,2.1-4.64,2.06c-0.15-0.04-0.3,0.04-0.34,0.18c-0.04,0.15,0.04,0.3,0.18,0.34
											C111.11,194.43,112.1,194.72,113.27,194.54z"/>
									</g>
									<g>
										<path class="st21" d="M117.74,188.5c-0.11,0.51-0.61,0.83-1.11,0.72s-0.82-0.61-0.71-1.11c0.11-0.51,0.61-0.83,1.11-0.72
											C117.53,187.49,117.85,187.99,117.74,188.5z"/>
									</g>
									<g>
										<path class="st21" d="M110.26,187.4c-0.11,0.51-0.61,0.83-1.11,0.72s-0.82-0.61-0.71-1.11c0.11-0.51,0.61-0.83,1.11-0.72
											S110.37,186.9,110.26,187.4z"/>
									</g>
									<g>
										<path class="st21" d="M119.21,186.33c0.01,0,0.02,0,0.03-0.01c0.15-0.04,0.23-0.19,0.19-0.34
											c-0.48-1.75-1.97-1.91-2.7-1.76c-0.15,0.03-0.24,0.18-0.21,0.33c0.03,0.15,0.16,0.24,0.33,0.21
											c0.05-0.01,1.6-0.32,2.05,1.36C118.94,186.27,119.07,186.36,119.21,186.33z"/>
									</g>
									<g>
										<path class="st21" d="M111.15,184.08c0.01-0.01,0.01-0.02,0.02-0.02c0.09-0.12,0.06-0.3-0.06-0.38
											c-1.48-1.05-2.74-0.22-3.2,0.36c-0.09,0.12-0.07,0.29,0.04,0.39c0.12,0.1,0.28,0.09,0.39-0.04
											c0.03-0.04,1.03-1.26,2.45-0.25C110.9,184.2,111.05,184.18,111.15,184.08z"/>
									</g>
									<g>
										<path class="st21" d="M111.76,191.51c0.15,0.02,0.28-0.08,0.3-0.22c0.02-0.15-0.08-0.28-0.22-0.3
											c-0.01,0-0.51-0.09-0.6-0.38c-0.04-0.13-0.04-0.53,0.82-1.34c0.11-0.1,0.11-0.27,0.01-0.38s-0.27-0.11-0.38-0.01
											c-0.81,0.76-1.13,1.37-0.97,1.89C110.92,191.38,111.72,191.51,111.76,191.51L111.76,191.51z"/>
									</g>
								</g>
							</g>
							<g>
								<path class="st21" d="M125.89,181.44c-0.18-1.85-1.05-5.02-3.21-5.33l-0.39,0.53c-0.73,3.14-0.4,7.23,1.45,10
									C124.83,185.15,126.07,183.38,125.89,181.44z"/>
							</g>
							<path class="st23" d="M145.59,224.37c1.29,1.52,1.77,3.43,1.51,5.24c-0.34,2.38-2.11,4.32-4.36,5.17l-20.43,5.88l-2.35-2.44
								l16.7-9.41L126,216.99c-3.11-3.44-4.69-6.11-3.5-10.6l0.32-1.3c0.6-2.45,3.73-3.19,5.37-1.26L145.59,224.37z"/>
							<path class="st39" d="M120.61,237.9c0,0-10.25,0.82-10.14,7.25c0,0-0.12,2.22,1.87-1.99c0,0,0.94-1.29,1.64-1.17
								c0,0-2.48,3.22-2.39,4.17c0.04,0.48,1.45,1.32,3.32-3.47c0,0-1.9,4.76,0.04,4.5l1.24-4.27l-0.2,3.84c0,0,1.38,1.77,1.61-3.37
								l0,0c0.01,0,0.03,0.02,0.04,0.01c1.92-0.29,3.46-0.78,4.67-2.39l0.16-0.42L120.61,237.9z"/>
							<g>
								<path class="st21" d="M125.31,178.87c-0.43-2.47-1.81-4.73-4.13-6.18c-2.93-1.83-6.94-2.42-10.31-1.74
									c-5.01,1-8.12,7.3-7.07,12.16c0.13,0.62,0.23,1.2,0.24,1.63c1.61-0.05,3.13-1.41,4.32-2.36c1.36-1.1,3-2.62,3.91-4.13
									c-0.8,2.12,1.36,4.27,2.92,5.32c-0.97-1.97,0.83-3.88,2.4-4.92c0.15,1.1-0.12,1.95,0.46,3.05c0.35,0.66,0.76,1.3,1.21,1.88
									c1.37,1.79,2.25,3.98,2.27,6.25c1.01-0.52,1.72-2.25,2.25-3.22C124.92,184.51,125.7,181.09,125.31,178.87z"/>
							</g>
							<path class="st23" d="M103.74,190.24c0,0.61-0.5,1.11-1.11,1.11s-1.11-0.5-1.11-1.11s0.5-1.11,1.11-1.11
								C103.24,189.14,103.74,189.63,103.74,190.24z"/>
							<path class="st23" d="M123.8,193.3c0,0.61-0.5,1.11-1.11,1.11s-1.11-0.5-1.11-1.11s0.5-1.11,1.11-1.11
								S123.8,192.69,123.8,193.3z"/>
							<path class="st24" d="M101.09,225.3c-0.02-0.12-0.1-0.16-0.19-0.17c-1.23-2.04-2.46-4.22-1.79-6.68
								c0.46-1.69,1.52-3.1,1.89-4.84c0.07-0.33-0.44-0.48-0.51-0.14c-0.47,2.2-2.08,4.07-2.12,6.37c-0.04,2.06,1.12,3.98,2.15,5.68
								c0.02,0.04,0.06,0.04,0.08,0.06c0.8,4.78,1.44,9.61-0.79,14.12c-0.15,0.31,0.31,0.58,0.46,0.27
								C102.58,235.29,101.92,230.28,101.09,225.3z"/>
							<path class="st10" d="M120.41,257.24c0.26,10.87-8.51,24.6-18.35,38.67c-0.32,0.45-0.63,0.9-0.96,1.35l-8.89-3.02l1.78-5.17
								l11.71-32.37c1.41-3.87,4.72-6.38,8.41-6.38c1.69,0,3.24,0.78,4.38,2.02C119.64,253.59,120.37,255.3,120.41,257.24z"/>
						</g>
					</g>
					<g>
						<g>
							<polygon class="st21" points="165.4,339.2 168.76,339.2 154.64,251.66 150.27,251.66 							"/>
							<polygon class="st21" points="151.04,339.2 154.4,339.2 140.27,251.66 135.91,251.66 							"/>
							<polygon class="st21" points="43.47,339.2 40.11,339.2 54.24,251.66 58.6,251.66 							"/>
							<polygon class="st21" points="57.83,339.2 54.47,339.2 68.6,251.66 72.96,251.66 							"/>
						</g>
						<path class="st43" d="M42.71,252.93h123.46c0.98,0,1.77-1.33,1.77-2.96l0,0c0-1.63-0.79-2.96-1.77-2.96H42.71
							c-0.98,0-1.77,1.33-1.77,2.96l0,0C40.94,251.61,41.73,252.93,42.71,252.93z"/>
					</g>
					<g>
						<g>
							
								<linearGradient id="SVGID_00000020369664799176269640000006514341279344672445_" gradientUnits="userSpaceOnUse" x1="65.935" y1="117.3866" x2="65.935" y2="168.5397" gradientTransform="matrix(1 0 0 -1 0 350.0847)">
								<stop  offset="0" style="stop-color:#66A8DE"/>
								<stop  offset="0.4372" style="stop-color:#9EC3E8"/>
								<stop  offset="0.8042" style="stop-color:#C7D7EF"/>
								<stop  offset="0.9929" style="stop-color:#D7DFF2"/>
							</linearGradient>
							<polygon style="fill:url(#SVGID_00000020369664799176269640000006514341279344672445_);" points="38.96,200.09 86.73,200.09 
								92.91,237.8 45.14,237.8 							"/>
							
								<linearGradient id="SVGID_00000168115075730690689160000005399559143640503429_" gradientUnits="userSpaceOnUse" x1="64.6393" y1="134.6273" x2="69.905" y2="114.0225" gradientTransform="matrix(1 0 0 -1 0 350.0847)">
								<stop  offset="0" style="stop-color:#66A8DE"/>
								<stop  offset="0.4372" style="stop-color:#9EC3E8"/>
								<stop  offset="0.8042" style="stop-color:#C7D7EF"/>
								<stop  offset="0.9929" style="stop-color:#D7DFF2"/>
							</linearGradient>
							<polygon style="fill:url(#SVGID_00000168115075730690689160000005399559143640503429_);" points="54.12,214.12 76.06,214.12 
								78.89,231.44 56.96,231.44 							"/>
							
								<linearGradient id="SVGID_00000013172171183567772260000001758778847166587019_" gradientUnits="userSpaceOnUse" x1="76.0555" y1="128.0973" x2="79.9799" y2="128.0973" gradientTransform="matrix(1 0 0 -1 0 350.0847)">
								<stop  offset="0" style="stop-color:#66A8DE"/>
								<stop  offset="0.4372" style="stop-color:#9EC3E8"/>
								<stop  offset="0.8042" style="stop-color:#C7D7EF"/>
								<stop  offset="0.9929" style="stop-color:#D7DFF2"/>
							</linearGradient>
							<polygon style="fill:url(#SVGID_00000013172171183567772260000001758778847166587019_);" points="76.06,214.12 77.25,212.54 
								79.98,229.94 78.89,231.44 							"/>
							
								<linearGradient id="SVGID_00000113336955359976372910000001050078308054896015_" gradientUnits="userSpaceOnUse" x1="54.12" y1="136.7573" x2="77.25" y2="136.7573" gradientTransform="matrix(1 0 0 -1 0 350.0847)">
								<stop  offset="0" style="stop-color:#66A8DE"/>
								<stop  offset="0.4372" style="stop-color:#9EC3E8"/>
								<stop  offset="0.8042" style="stop-color:#C7D7EF"/>
								<stop  offset="0.9929" style="stop-color:#D7DFF2"/>
							</linearGradient>
							<polygon style="fill:url(#SVGID_00000113336955359976372910000001050078308054896015_);" points="77.25,212.54 55.24,212.54 
								54.12,214.12 76.06,214.12 							"/>
							
								<linearGradient id="SVGID_00000032641215976683426600000005802723985188847033_" gradientUnits="userSpaceOnUse" x1="86.73" y1="131.8873" x2="93.94" y2="131.8873" gradientTransform="matrix(1 0 0 -1 0 350.0847)">
								<stop  offset="0" style="stop-color:#66A8DE"/>
								<stop  offset="0.4372" style="stop-color:#9EC3E8"/>
								<stop  offset="0.8042" style="stop-color:#C7D7EF"/>
								<stop  offset="0.9929" style="stop-color:#D7DFF2"/>
							</linearGradient>
							<polygon style="fill:url(#SVGID_00000032641215976683426600000005802723985188847033_);" points="92.91,237.8 93.94,236.23 
								88.02,198.6 86.73,200.09 							"/>
							
								<linearGradient id="SVGID_00000124150856852710524260000002504692208514216868_" gradientUnits="userSpaceOnUse" x1="38.96" y1="150.7423" x2="88.02" y2="150.7423" gradientTransform="matrix(1 0 0 -1 0 350.0847)">
								<stop  offset="0" style="stop-color:#66A8DE"/>
								<stop  offset="0.4372" style="stop-color:#9EC3E8"/>
								<stop  offset="0.8042" style="stop-color:#C7D7EF"/>
								<stop  offset="0.9929" style="stop-color:#D7DFF2"/>
							</linearGradient>
							<polygon style="fill:url(#SVGID_00000124150856852710524260000002504692208514216868_);" points="88.02,198.6 40.12,198.6 
								38.96,200.09 86.73,200.09 							"/>
						</g>
						
							<linearGradient id="SVGID_00000112598217628837671060000016611694288183167134_" gradientUnits="userSpaceOnUse" x1="67.51" y1="103.7338" x2="67.51" y2="107.88" gradientTransform="matrix(1 0 0 -1 0 350.0847)">
							<stop  offset="7.131410e-03" style="stop-color:#D7DFF2"/>
							<stop  offset="0.1958" style="stop-color:#C7D7EF"/>
							<stop  offset="0.5628" style="stop-color:#9EC3E8"/>
							<stop  offset="1" style="stop-color:#66A8DE"/>
						</linearGradient>
						<path style="fill:url(#SVGID_00000112598217628837671060000016611694288183167134_);" d="M55.27,243.68h24.48
							c1.79,0,3.23,1.45,3.23,3.23l0,0H52.04l0,0C52.04,245.12,53.48,243.68,55.27,243.68z"/>
						
							<linearGradient id="SVGID_00000060031563207046561800000006113849353170803636_" gradientUnits="userSpaceOnUse" x1="67.06" y1="104.0772" x2="67.06" y2="127.2027" gradientTransform="matrix(1 0 0 -1 0 350.0847)">
							<stop  offset="0" style="stop-color:#66A8DE"/>
							<stop  offset="0.4372" style="stop-color:#9EC3E8"/>
							<stop  offset="0.8042" style="stop-color:#C7D7EF"/>
							<stop  offset="0.9929" style="stop-color:#D7DFF2"/>
						</linearGradient>
						<path style="fill:url(#SVGID_00000060031563207046561800000006113849353170803636_);" d="M75.12,243.68l-1.31-16.53
							c-0.28-3.52-3.22-6.23-6.75-6.23l0,0c-3.53,0-6.47,2.71-6.75,6.23L59,243.68H75.12z"/>
					</g>
				</g>
				<g>
					<g>
						<g>
							<g>
								
									<linearGradient id="SVGID_00000116934377438756444090000004271354381294189757_" gradientUnits="userSpaceOnUse" x1="333.375" y1="139.5867" x2="373.5316" y2="139.5867" gradientTransform="matrix(1 0 0 -1 0 350.0847)">
									<stop  offset="0.0117" style="stop-color:#5692A3"/>
									<stop  offset="0.1678" style="stop-color:#629DA5"/>
									<stop  offset="0.9961" style="stop-color:#A0D6AD"/>
								</linearGradient>
								<path style="fill:url(#SVGID_00000116934377438756444090000004271354381294189757_);" d="M333.38,210.09
									c0.07-3.57,1.47-7.39,4.54-9.38c3.72-2.41,7.64-0.23,11.34,1.47c-1.09-2.79-4.37-3.58-6.62-5.12
									c9.95-6.48,22.79-4.99,22.79-4.99s7.59,8.88,7.95,13.05c-2.14-0.5-4.25-1.22-6.48-1.49c2.13,0.78,5.39,4,6.41,6.94
									c0.86,2.47-0.98,6.86-2.16,9.2c-2.33,4.63-10.08,13.31-15.42,7.21c-4.46-5.1-2.48-12.16-11.53-9.95
									C337.42,218.68,333.21,218.53,333.38,210.09z"/>
							</g>
							<path class="st10" d="M339.76,262.15c-0.4-12.22-0.75-24.75,2.84-36.58c1.34-4.4,3.23-9.05,5.5-13.23
								c-1-0.61-1.88-1.61-2.86-2.19c-1.63-0.97-3.41-1.59-5.27-1.95c-0.6-0.12-0.33-1.03,0.27-0.91c1.62,0.31,3.18,0.83,4.65,1.58
								c0.71,0.36,1.4,0.78,2.05,1.25c0.49,0.35,1.05,0.96,1.62,1.35c0.4-0.71,0.82-1.41,1.25-2.09c0.15-0.24,0.32-0.46,0.48-0.7
								c-1.36-2.02-3.04-3.73-5.04-5.13c-0.5-0.35-0.01-1.17,0.5-0.82c2.01,1.41,3.71,3.12,5.11,5.12c1.1-1.5,2.37-2.92,3.7-4.29
								c-0.72-2.21-1.73-4.25-3.05-6.17c-0.35-0.51,0.49-0.97,0.84-0.46c1.26,1.83,2.22,3.79,2.95,5.88
								c1.36-1.36,2.78-2.67,4.17-3.97c-0.67-1.32-1.28-2.67-1.85-4.04c-0.23-0.56,0.6-1.03,0.83-0.46c0.53,1.3,1.12,2.57,1.74,3.82
								c0.82-0.77,1.63-1.54,2.41-2.32c0.44-0.44,1.1,0.25,0.66,0.69c-0.72,0.72-1.47,1.44-2.23,2.15c1.83,0.11,3.67,0.23,5.5,0.34
								c0.61,0.04,0.59,0.99-0.03,0.95c-1.98-0.12-3.96-0.24-5.95-0.37c-0.15-0.01-0.26-0.07-0.33-0.16
								c-1.35,1.27-2.73,2.55-4.06,3.87c1.76,0.08,3.48,0.38,5.2,0.78c1.54,0.36,3.11,0.61,4.3,1.71c0.45,0.42-0.24,1.08-0.69,0.66
								c-1.15-1.06-3.02-1.26-4.49-1.59c-1.68-0.37-3.36-0.62-5.08-0.63c-0.05,0-0.08-0.02-0.12-0.03c-1.18,1.21-2.3,2.46-3.3,3.78
								c4.78,0.49,9.51,1.38,13.18,4.73c0.45,0.42-0.24,1.08-0.69,0.66c-3.63-3.32-8.43-4.05-13.15-4.5
								c-0.39,0.56-0.77,1.12-1.1,1.69c-0.25,0.43-0.49,0.86-0.73,1.3c2.31,0.53,4.77,0.91,6.83,2.14c1.78,1.06,3.15,2.63,4.35,4.29
								c0.36,0.5-0.48,0.96-0.83,0.46c-1.21-1.68-2.65-3.26-4.52-4.23c-1.92-0.99-4.2-1.31-6.29-1.8c-0.01,0-0.01,0-0.02,0
								c-2.49,4.61-4.57,9.61-5.95,14.62c-3.12,11.3-2.74,23.21-2.36,34.81C340.73,262.8,339.78,262.77,339.76,262.15z"/>
						</g>
						<g>
							<g>
								
									<linearGradient id="SVGID_00000052794691064000586660000007434021136858087342_" gradientUnits="userSpaceOnUse" x1="310.6125" y1="127.2595" x2="342.9336" y2="127.2595" gradientTransform="matrix(1 0 0 -1 0 350.0847)">
									<stop  offset="0.0117" style="stop-color:#5692A3"/>
									<stop  offset="0.1678" style="stop-color:#629DA5"/>
									<stop  offset="0.9961" style="stop-color:#A0D6AD"/>
								</linearGradient>
								<path style="fill:url(#SVGID_00000052794691064000586660000007434021136858087342_);" d="M342.93,222.5
									c-0.06-2.87-1.19-5.95-3.65-7.55c-2.99-1.94-6.15-0.19-9.13,1.18c0.88-2.25,3.51-2.88,5.33-4.12
									c-8.01-5.22-18.35-4.02-18.35-4.02s-6.11,7.15-6.4,10.5c1.73-0.4,3.42-0.98,5.22-1.2c-1.72,0.63-4.34,3.22-5.16,5.59
									c-0.69,1.99,0.79,5.52,1.74,7.41c1.87,3.73,8.11,10.72,12.42,5.8c3.59-4.1,2-9.78,9.28-8.01
									C339.68,229.41,343.06,229.3,342.93,222.5z"/>
							</g>
							<path class="st10" d="M337.8,264.41c0.32-9.83,0.61-19.93-2.29-29.44c-1.08-3.54-2.6-7.29-4.43-10.65
								c0.8-0.49,1.51-1.3,2.3-1.76c1.31-0.78,2.74-1.28,4.24-1.57c0.48-0.09,0.26-0.83-0.22-0.74c-1.3,0.25-2.56,0.67-3.74,1.27
								c-0.57,0.29-1.13,0.63-1.65,1.01c-0.4,0.29-0.85,0.77-1.31,1.09c-0.33-0.57-0.66-1.14-1-1.68c-0.12-0.19-0.26-0.37-0.39-0.56
								c1.1-1.62,2.45-3,4.06-4.13c0.4-0.28,0.01-0.94-0.4-0.66c-1.62,1.13-2.98,2.51-4.12,4.12c-0.89-1.21-1.9-2.35-2.98-3.45
								c0.58-1.78,1.39-3.42,2.45-4.96c0.28-0.41-0.39-0.78-0.67-0.37c-1.01,1.47-1.79,3.05-2.37,4.73c-1.1-1.09-2.24-2.15-3.36-3.2
								c0.54-1.07,1.03-2.15,1.49-3.25c0.19-0.45-0.48-0.83-0.67-0.37c-0.43,1.04-0.9,2.07-1.4,3.08c-0.66-0.62-1.31-1.24-1.94-1.87
								c-0.35-0.35-0.88,0.2-0.53,0.55c0.58,0.58,1.18,1.16,1.8,1.73c-1.48,0.09-2.95,0.18-4.43,0.27c-0.49,0.03-0.47,0.8,0.02,0.77
								c1.6-0.1,3.19-0.2,4.79-0.29c0.12-0.01,0.21-0.06,0.27-0.13c1.09,1.02,2.2,2.05,3.27,3.11c-1.42,0.07-2.8,0.3-4.19,0.63
								c-1.24,0.29-2.5,0.49-3.46,1.37c-0.37,0.34,0.19,0.87,0.55,0.53c0.93-0.85,2.43-1.02,3.62-1.28c1.35-0.3,2.7-0.5,4.09-0.51
								c0.04,0,0.07-0.01,0.1-0.02c0.95,0.98,1.85,1.98,2.65,3.04c-3.84,0.39-7.66,1.11-10.61,3.81c-0.37,0.33,0.19,0.87,0.55,0.53
								c2.92-2.67,6.78-3.26,10.58-3.62c0.31,0.45,0.62,0.9,0.89,1.36c0.2,0.34,0.39,0.69,0.59,1.04c-1.86,0.42-3.84,0.74-5.5,1.72
								c-1.43,0.85-2.54,2.12-3.5,3.45c-0.29,0.4,0.39,0.77,0.67,0.37c0.98-1.36,2.14-2.62,3.64-3.4c1.55-0.8,3.38-1.06,5.06-1.45
								c0.01,0,0.01,0,0.02,0c2.01,3.71,3.68,7.74,4.79,11.77c2.51,9.1,2.21,18.68,1.9,28.02
								C337.01,264.93,337.78,264.9,337.8,264.41z"/>
						</g>
						<g>
							<g>
								
									<linearGradient id="SVGID_00000114763181151913263610000004371440818838446487_" gradientUnits="userSpaceOnUse" x1="343.9502" y1="121.7643" x2="378.1954" y2="121.7643" gradientTransform="matrix(1 0 0 -1 0 350.0847)">
									<stop  offset="0.0117" style="stop-color:#5692A3"/>
									<stop  offset="0.1678" style="stop-color:#629DA5"/>
									<stop  offset="0.9961" style="stop-color:#A0D6AD"/>
								</linearGradient>
								<path style="fill:url(#SVGID_00000114763181151913263610000004371440818838446487_);" d="M344.44,222.95
									c0.77-2.9,2.67-5.76,5.57-6.77c3.52-1.23,6.29,1.33,8.99,3.45c-0.34-2.5-2.86-3.79-4.4-5.5c9.42-3.33,19.64,0.44,19.64,0.44
									s4.45,8.77,3.91,12.25c-1.65-0.84-3.24-1.84-5.01-2.51c1.59,1.06,3.61,4.34,3.87,6.95c0.21,2.19-2.17,5.42-3.59,7.1
									c-2.82,3.32-10.89,8.89-14.05,2.83c-2.64-5.05,0.38-10.44-7.46-10.43C346.04,230.78,342.62,229.83,344.44,222.95z"/>
							</g>
							<path class="st10" d="M339.32,266.81c2.1-10.07,4.3-20.4,9.58-29.36c1.97-3.33,4.43-6.76,7.12-9.73
								c-0.7-0.69-1.21-1.69-1.9-2.36c-1.14-1.11-2.47-1.98-3.92-2.64c-0.47-0.21-0.06-0.91,0.41-0.69
								c1.26,0.58,2.43,1.31,3.49,2.22c0.51,0.44,0.99,0.92,1.43,1.43c0.33,0.39,0.67,0.99,1.06,1.43c0.47-0.5,0.95-0.99,1.43-1.46
								c0.17-0.16,0.36-0.31,0.53-0.47c-0.72-1.92-1.75-3.65-3.1-5.19c-0.34-0.39,0.23-0.96,0.57-0.57c1.37,1.55,2.41,3.29,3.17,5.2
								c1.2-1.01,2.51-1.92,3.88-2.77c-0.15-1.95-0.57-3.82-1.27-5.65c-0.18-0.48,0.59-0.69,0.77-0.21
								c0.66,1.75,1.07,3.54,1.25,5.39c1.38-0.84,2.8-1.63,4.2-2.42c-0.28-1.22-0.52-2.44-0.71-3.67c-0.08-0.51,0.7-0.72,0.77-0.21
								c0.18,1.17,0.41,2.32,0.67,3.47c0.83-0.47,1.64-0.94,2.43-1.42c0.44-0.27,0.85,0.42,0.41,0.69
								c-0.73,0.44-1.49,0.88-2.25,1.32c1.48,0.46,2.95,0.91,4.43,1.37c0.49,0.15,0.28,0.93-0.21,0.78
								c-1.6-0.49-3.19-0.99-4.79-1.48c-0.12-0.04-0.2-0.11-0.24-0.2c-1.36,0.77-2.74,1.54-4.09,2.36c1.42,0.42,2.77,1,4.1,1.67
								c1.19,0.6,2.42,1.11,3.18,2.25c0.29,0.43-0.41,0.83-0.69,0.41c-0.73-1.1-2.22-1.63-3.36-2.19c-1.3-0.64-2.62-1.17-4.03-1.53
								c-0.04-0.01-0.06-0.03-0.09-0.04c-1.2,0.76-2.37,1.56-3.45,2.43c3.81,1.35,7.51,3.02,9.84,6.49
								c0.29,0.43-0.41,0.83-0.69,0.41c-2.31-3.44-6.09-4.99-9.86-6.29c-0.43,0.38-0.85,0.76-1.24,1.17
								c-0.29,0.3-0.57,0.61-0.86,0.92c1.79,0.89,3.72,1.69,5.17,3.11c1.25,1.22,2.06,2.78,2.71,4.37c0.19,0.48-0.58,0.69-0.78,0.21
								c-0.66-1.62-1.52-3.19-2.86-4.35c-1.37-1.19-3.18-1.91-4.79-2.72c-0.01,0-0.01,0-0.02-0.01c-2.96,3.28-5.65,6.96-7.77,10.78
								c-4.8,8.62-6.85,18.44-8.84,28.01C339.99,267.53,339.22,267.32,339.32,266.81z"/>
						</g>
					</g>
					<g>
						<g>
							<g>
								
									<linearGradient id="SVGID_00000117661523910215026210000007870586564385559986_" gradientUnits="userSpaceOnUse" x1="335.077" y1="114.6935" x2="358.0061" y2="114.6935" gradientTransform="matrix(1 0 0 -1 0 350.0847)">
									<stop  offset="0.0117" style="stop-color:#5692A3"/>
									<stop  offset="0.1678" style="stop-color:#629DA5"/>
									<stop  offset="0.9961" style="stop-color:#A0D6AD"/>
								</linearGradient>
								<path style="fill:url(#SVGID_00000117661523910215026210000007870586564385559986_);" d="M335.08,235.15
									c0.04-2.04,0.84-4.22,2.59-5.35c2.12-1.37,4.36-0.13,6.48,0.84c-0.62-1.59-2.49-2.04-3.78-2.92
									c5.68-3.7,13.01-2.85,13.01-2.85s4.33,5.07,4.54,7.45c-1.22-0.29-2.43-0.7-3.7-0.85c1.22,0.45,3.08,2.28,3.66,3.97
									c0.49,1.41-0.56,3.92-1.23,5.25c-1.33,2.64-5.76,7.6-8.81,4.11c-2.55-2.91-1.42-6.94-6.59-5.68
									C337.38,240.06,334.98,239.98,335.08,235.15z"/>
							</g>
							<path class="st10" d="M338.72,264.88c-0.23-6.97-0.43-14.13,1.62-20.89c0.76-2.51,1.84-5.17,3.14-7.55
								c-0.57-0.35-1.07-0.92-1.63-1.25c-0.93-0.55-1.95-0.91-3.01-1.11c-0.34-0.07-0.19-0.59,0.16-0.52
								c0.93,0.18,1.81,0.47,2.65,0.9c0.41,0.21,0.8,0.45,1.17,0.71c0.28,0.2,0.6,0.55,0.93,0.77c0.23-0.41,0.47-0.81,0.71-1.19
								c0.09-0.14,0.19-0.26,0.28-0.4c-0.78-1.15-1.73-2.13-2.88-2.93c-0.29-0.2,0-0.67,0.28-0.47c1.15,0.8,2.12,1.78,2.92,2.92
								c0.63-0.86,1.35-1.67,2.11-2.45c-0.41-1.26-0.99-2.43-1.74-3.52c-0.2-0.29,0.28-0.55,0.48-0.26
								c0.72,1.05,1.27,2.16,1.68,3.36c0.78-0.78,1.59-1.53,2.38-2.27c-0.38-0.76-0.73-1.52-1.06-2.31
								c-0.13-0.32,0.34-0.59,0.48-0.26c0.3,0.74,0.64,1.47,0.99,2.18c0.47-0.44,0.93-0.88,1.37-1.32c0.25-0.25,0.63,0.14,0.38,0.39
								c-0.41,0.41-0.84,0.82-1.27,1.23c1.05,0.06,2.09,0.13,3.14,0.19c0.35,0.02,0.33,0.57-0.02,0.54
								c-1.13-0.07-2.26-0.14-3.4-0.21c-0.08-0.01-0.15-0.04-0.19-0.09c-0.77,0.72-1.56,1.45-2.32,2.21c1,0.05,1.99,0.22,2.97,0.44
								c0.88,0.2,1.78,0.35,2.46,0.97c0.26,0.24-0.14,0.61-0.39,0.38c-0.66-0.61-1.72-0.72-2.57-0.91c-0.96-0.21-1.92-0.35-2.9-0.36
								c-0.03,0-0.05-0.01-0.07-0.01c-0.67,0.69-1.31,1.41-1.88,2.16c2.73,0.28,5.43,0.79,7.52,2.7c0.26,0.24-0.13,0.61-0.39,0.38
								c-2.07-1.9-4.81-2.31-7.51-2.57c-0.22,0.32-0.44,0.64-0.63,0.97c-0.14,0.24-0.28,0.49-0.42,0.74c1.32,0.3,2.73,0.52,3.9,1.22
								c1.02,0.6,1.8,1.5,2.48,2.45c0.21,0.28-0.27,0.55-0.48,0.26c-0.69-0.96-1.52-1.86-2.58-2.41c-1.1-0.57-2.4-0.75-3.59-1.03
								h-0.01c-1.42,2.63-2.61,5.49-3.4,8.35c-1.78,6.45-1.57,13.25-1.35,19.88C339.27,265.25,338.73,265.23,338.72,264.88z"/>
						</g>
						<g>
							<g>
								
									<linearGradient id="SVGID_00000047750792632330903860000014971882100539856007_" gradientUnits="userSpaceOnUse" x1="322.07" y1="107.6665" x2="340.5318" y2="107.6665" gradientTransform="matrix(1 0 0 -1 0 350.0847)">
									<stop  offset="0.0117" style="stop-color:#5692A3"/>
									<stop  offset="0.1678" style="stop-color:#629DA5"/>
									<stop  offset="0.9961" style="stop-color:#A0D6AD"/>
								</linearGradient>
								<path style="fill:url(#SVGID_00000047750792632330903860000014971882100539856007_);" d="M340.53,242.24
									c-0.03-1.64-0.68-3.4-2.09-4.31c-1.71-1.11-3.51-0.11-5.21,0.67c0.5-1.28,2.01-1.65,3.04-2.35
									c-4.57-2.98-10.48-2.3-10.48-2.3s-3.49,4.08-3.65,6c0.99-0.23,1.95-0.56,2.98-0.69c-0.98,0.36-2.48,1.84-2.95,3.19
									c-0.39,1.14,0.45,3.15,0.99,4.23c1.07,2.13,4.63,6.12,7.09,3.31c2.05-2.34,1.14-5.59,5.3-4.57
									C338.67,246.19,340.6,246.12,340.53,242.24z"/>
							</g>
							<path class="st10" d="M337.6,266.17c0.18-5.61,0.35-11.38-1.31-16.81c-0.61-2.02-1.48-4.16-2.53-6.08
								c0.46-0.28,0.86-0.74,1.31-1.01c0.75-0.44,1.57-0.73,2.42-0.9c0.28-0.05,0.15-0.47-0.13-0.42c-0.74,0.14-1.46,0.38-2.14,0.73
								c-0.33,0.17-0.64,0.36-0.94,0.58c-0.23,0.16-0.48,0.44-0.75,0.62c-0.19-0.33-0.38-0.65-0.57-0.96
								c-0.07-0.11-0.15-0.21-0.22-0.32c0.63-0.93,1.4-1.71,2.32-2.36c0.23-0.16,0-0.54-0.23-0.37c-0.92,0.65-1.7,1.44-2.35,2.35
								c-0.51-0.69-1.09-1.34-1.7-1.97c0.33-1.01,0.8-1.95,1.4-2.83c0.16-0.23-0.23-0.44-0.38-0.21c-0.58,0.84-1.02,1.74-1.36,2.7
								c-0.63-0.62-1.28-1.23-1.92-1.83c0.31-0.61,0.59-1.23,0.85-1.86c0.11-0.26-0.28-0.47-0.38-0.21c-0.25,0.6-0.51,1.18-0.8,1.76
								c-0.38-0.35-0.75-0.71-1.11-1.06c-0.2-0.2-0.5,0.12-0.3,0.32c0.33,0.33,0.68,0.66,1.03,0.99c-0.84,0.05-1.68,0.1-2.53,0.16
								c-0.28,0.02-0.27,0.46,0.01,0.44c0.91-0.06,1.82-0.11,2.73-0.17c0.07,0,0.12-0.03,0.15-0.08c0.62,0.58,1.25,1.17,1.86,1.78
								c-0.81,0.04-1.6,0.17-2.39,0.36c-0.71,0.16-1.43,0.28-1.98,0.78c-0.21,0.19,0.11,0.49,0.32,0.3
								c0.53-0.49,1.39-0.58,2.07-0.73c0.77-0.17,1.54-0.28,2.33-0.29c0.02,0,0.04-0.01,0.06-0.01c0.54,0.56,1.06,1.13,1.52,1.74
								c-2.19,0.22-4.37,0.63-6.06,2.17c-0.21,0.19,0.11,0.49,0.32,0.3c1.67-1.53,3.87-1.86,6.04-2.07
								c0.18,0.26,0.35,0.51,0.51,0.78c0.11,0.2,0.23,0.4,0.34,0.6c-1.06,0.24-2.19,0.42-3.14,0.98c-0.82,0.49-1.45,1.21-2,1.97
								c-0.17,0.23,0.22,0.44,0.38,0.21c0.56-0.77,1.22-1.5,2.08-1.94c0.88-0.46,1.93-0.6,2.89-0.83h0.01
								c1.15,2.12,2.1,4.42,2.74,6.72c1.44,5.19,1.26,10.67,1.09,16C337.15,266.47,337.59,266.45,337.6,266.17z"/>
						</g>
						<g>
							<g>
								
									<linearGradient id="SVGID_00000176759168144418898890000003641198790926473641_" gradientUnits="userSpaceOnUse" x1="341.1097" y1="104.5237" x2="360.6562" y2="104.5237" gradientTransform="matrix(1 0 0 -1 0 350.0847)">
									<stop  offset="0.0117" style="stop-color:#5692A3"/>
									<stop  offset="0.1678" style="stop-color:#629DA5"/>
									<stop  offset="0.9961" style="stop-color:#A0D6AD"/>
								</linearGradient>
								<path style="fill:url(#SVGID_00000176759168144418898890000003641198790926473641_);" d="M341.39,242.5
									c0.44-1.66,1.53-3.29,3.18-3.87c2.01-0.7,3.59,0.76,5.13,1.97c-0.19-1.43-1.63-2.17-2.51-3.14
									c5.38-1.9,11.21,0.25,11.21,0.25s2.54,5.01,2.23,6.99c-0.94-0.48-1.85-1.05-2.86-1.43c0.91,0.61,2.06,2.48,2.21,3.97
									c0.12,1.25-1.24,3.09-2.05,4.05c-1.61,1.9-6.22,5.08-8.02,1.62c-1.51-2.89,0.22-5.96-4.26-5.95
									C342.3,246.97,340.35,246.43,341.39,242.5z"/>
							</g>
							<path class="st10" d="M338.47,267.54c1.2-5.75,2.45-11.65,5.47-16.76c1.12-1.9,2.53-3.86,4.07-5.56
								c-0.4-0.4-0.69-0.96-1.09-1.35c-0.65-0.64-1.41-1.13-2.24-1.51c-0.27-0.12-0.04-0.52,0.23-0.4c0.72,0.33,1.39,0.75,1.99,1.27
								c0.29,0.25,0.56,0.52,0.82,0.82c0.19,0.22,0.38,0.57,0.61,0.82c0.27-0.29,0.54-0.57,0.82-0.84c0.1-0.09,0.2-0.18,0.3-0.27
								c-0.41-1.1-1-2.09-1.77-2.97c-0.19-0.22,0.13-0.55,0.32-0.32c0.78,0.88,1.38,1.88,1.81,2.97c0.68-0.58,1.44-1.09,2.21-1.58
								c-0.08-1.11-0.33-2.18-0.72-3.23c-0.11-0.28,0.34-0.4,0.44-0.12c0.38,1,0.61,2.02,0.71,3.08c0.79-0.48,1.6-0.93,2.4-1.38
								c-0.16-0.69-0.3-1.39-0.41-2.1c-0.04-0.29,0.4-0.41,0.44-0.12c0.1,0.67,0.23,1.33,0.38,1.98c0.47-0.27,0.94-0.54,1.39-0.81
								c0.25-0.15,0.48,0.24,0.23,0.4c-0.42,0.25-0.85,0.5-1.29,0.75c0.84,0.26,1.69,0.52,2.53,0.78c0.28,0.09,0.16,0.53-0.12,0.44
								c-0.91-0.28-1.82-0.56-2.74-0.84c-0.07-0.02-0.11-0.06-0.14-0.11c-0.77,0.44-1.56,0.88-2.33,1.35
								c0.81,0.24,1.58,0.57,2.34,0.95c0.68,0.34,1.38,0.64,1.82,1.28c0.16,0.25-0.23,0.48-0.4,0.23c-0.42-0.63-1.27-0.93-1.92-1.25
								c-0.74-0.36-1.5-0.67-2.3-0.87c-0.02-0.01-0.04-0.02-0.05-0.03c-0.69,0.43-1.35,0.89-1.97,1.39c2.18,0.77,4.29,1.72,5.62,3.7
								c0.17,0.25-0.23,0.48-0.4,0.23c-1.32-1.96-3.48-2.85-5.63-3.59c-0.24,0.22-0.48,0.43-0.71,0.67
								c-0.16,0.17-0.33,0.35-0.49,0.52c1.02,0.51,2.13,0.97,2.95,1.77c0.71,0.7,1.17,1.58,1.55,2.5c0.11,0.27-0.33,0.39-0.44,0.12
								c-0.38-0.92-0.87-1.82-1.63-2.49c-0.78-0.68-1.81-1.09-2.73-1.55h-0.01c-1.69,1.87-3.22,3.97-4.44,6.15
								c-2.74,4.92-3.91,10.53-5.05,15.99C338.85,267.95,338.41,267.83,338.47,267.54z"/>
						</g>
						<g>
							<g>
								
									<linearGradient id="SVGID_00000127015438217748646670000015612887025137628289_" gradientUnits="userSpaceOnUse" x1="324.2543" y1="96.6385" x2="336.4951" y2="96.6385" gradientTransform="matrix(1 0 0 -1 0 350.0847)">
									<stop  offset="0.0117" style="stop-color:#5692A3"/>
									<stop  offset="0.1678" style="stop-color:#629DA5"/>
									<stop  offset="0.9961" style="stop-color:#A0D6AD"/>
								</linearGradient>
								<path style="fill:url(#SVGID_00000127015438217748646670000015612887025137628289_);" d="M336.32,251.53
									c-0.27-1.04-0.96-2.06-1.99-2.42c-1.26-0.44-2.25,0.47-3.21,1.23c0.12-0.89,1.02-1.36,1.57-1.97
									c-3.37-1.19-7.02,0.16-7.02,0.16s-1.59,3.14-1.4,4.38c0.59-0.3,1.16-0.66,1.79-0.9c-0.57,0.38-1.29,1.55-1.38,2.49
									c-0.08,0.78,0.77,1.94,1.28,2.54c1.01,1.19,3.89,3.18,5.02,1.01c0.94-1.81-0.14-3.73,2.67-3.73
									C335.75,254.33,336.97,253.99,336.32,251.53z"/>
							</g>
							<path class="st10" d="M338.15,267.21c-0.75-3.6-1.54-7.29-3.43-10.5c-0.7-1.19-1.59-2.42-2.55-3.48
								c0.25-0.25,0.43-0.6,0.68-0.84c0.41-0.4,0.88-0.71,1.4-0.94c0.17-0.08,0.02-0.32-0.14-0.25c-0.45,0.21-0.87,0.47-1.25,0.79
								c-0.18,0.16-0.35,0.33-0.51,0.51c-0.12,0.14-0.24,0.35-0.38,0.51c-0.17-0.18-0.34-0.36-0.51-0.52
								c-0.06-0.06-0.13-0.11-0.19-0.17c0.26-0.69,0.62-1.31,1.11-1.86c0.12-0.14-0.08-0.34-0.2-0.2c-0.49,0.55-0.86,1.18-1.13,1.86
								c-0.43-0.36-0.9-0.69-1.39-0.99c0.05-0.7,0.2-1.37,0.45-2.02c0.07-0.17-0.21-0.25-0.28-0.08c-0.24,0.62-0.38,1.27-0.45,1.93
								c-0.49-0.3-1-0.58-1.5-0.87c0.1-0.43,0.19-0.87,0.25-1.31c0.03-0.18-0.25-0.26-0.28-0.08c-0.06,0.42-0.15,0.83-0.24,1.24
								c-0.3-0.17-0.59-0.34-0.87-0.51c-0.16-0.1-0.3,0.15-0.15,0.25c0.26,0.16,0.53,0.32,0.81,0.47c-0.53,0.16-1.06,0.33-1.58,0.49
								c-0.18,0.05-0.1,0.33,0.08,0.28c0.57-0.18,1.14-0.35,1.71-0.53c0.04-0.01,0.07-0.04,0.09-0.07c0.49,0.27,0.98,0.55,1.46,0.84
								c-0.51,0.15-0.99,0.36-1.47,0.6c-0.42,0.21-0.87,0.4-1.14,0.8c-0.1,0.15,0.15,0.3,0.25,0.15c0.26-0.39,0.79-0.58,1.2-0.78
								c0.46-0.23,0.94-0.42,1.44-0.55c0.01,0,0.02-0.01,0.03-0.02c0.43,0.27,0.85,0.56,1.23,0.87c-1.36,0.48-2.68,1.08-3.52,2.32
								c-0.1,0.15,0.15,0.3,0.25,0.14c0.83-1.23,2.18-1.78,3.53-2.25c0.15,0.13,0.3,0.27,0.44,0.42c0.1,0.11,0.2,0.22,0.31,0.33
								c-0.64,0.32-1.33,0.61-1.85,1.11c-0.45,0.44-0.74,0.99-0.97,1.56c-0.07,0.17,0.21,0.25,0.28,0.08
								c0.24-0.58,0.55-1.14,1.02-1.56c0.49-0.43,1.14-0.68,1.71-0.97c0,0,0,0,0.01,0c1.06,1.17,2.02,2.49,2.78,3.85
								c1.72,3.08,2.45,6.59,3.16,10.01C337.91,267.47,338.19,267.39,338.15,267.21z"/>
						</g>
					</g>
					
						<linearGradient id="SVGID_00000060720049541177208760000000734519108223072167_" gradientUnits="userSpaceOnUse" x1="326.7984" y1="47.7523" x2="350.8284" y2="47.7523" gradientTransform="matrix(1 0 0 -1 0 350.0847)">
						<stop  offset="0.357" style="stop-color:#D7DFF2"/>
						<stop  offset="0.4792" style="stop-color:#C7D7EF"/>
						<stop  offset="0.7168" style="stop-color:#9EC3E8"/>
						<stop  offset="1" style="stop-color:#66A8DE"/>
					</linearGradient>
					<path style="fill:url(#SVGID_00000060720049541177208760000000734519108223072167_);" d="M351.04,309.03
						c0-9.84-1.78-18.61-4.55-24.29c-3.13-6.42-4.62-13.51-4.62-20.65l0,0h-5.69l0,0c0,7.14-1.49,14.24-4.62,20.65
						c-2.77,5.68-4.55,14.44-4.55,24.29c0,13.64,3.42,25.22,8.16,29.36v2.19h7.7v-2.19C347.62,334.25,351.04,322.68,351.04,309.03z"
						/>
				</g>
			</g>
		</g>
	</g>
</g>
<g id="DESIGNED_BY_FREEPIK">
</g>
</svg>
