<?xml version="1.0" encoding="utf-8"?>
<!-- Generator: Adobe Illustrator 27.7.0, SVG Export Plug-In . SVG Version: 6.00 Build 0)  -->
<svg version="1.1" xmlns="http://www.w3.org/2000/svg" xmlns:xlink="http://www.w3.org/1999/xlink" x="0px" y="0px"
	 viewBox="0 0 750.1 500" style="enable-background:new 0 0 750.1 500;" xml:space="preserve">
<style type="text/css">
	.st0{fill:url(#SVGID_1_);}
	.st1{opacity:0.43;}
	.st2{fill:url(#SVGID_00000069375308067953639980000015018187241837735299_);}
	.st3{fill:url(#SVGID_00000071519216472923631260000005303223835268937883_);}
	.st4{display:none;}
	.st5{display:inline;}
	.st6{fill:url(#SVGID_00000160890136788532652480000015920025908083701405_);}
	.st7{fill:url(#SVGID_00000128450290112370052040000008307719003082732183_);}
	.st8{fill:url(#SVGID_00000150794248314911789170000018407471333194000532_);}
	.st9{fill:#29A9E0;}
	.st10{fill:url(#SVGID_00000121984548528321765840000017619994443825113240_);}
	.st11{fill:#4D8593;}
	.st12{fill:url(#SVGID_00000081615975125304572560000011253848241676279948_);}
	.st13{fill:url(#SVGID_00000047770785041976893920000008819192105357575071_);}
	.st14{fill:url(#SVGID_00000065034844681088203300000004613386150252024225_);}
	.st15{fill:url(#SVGID_00000101088728960299238480000018071092707748211379_);}
	.st16{fill:url(#SVGID_00000126301663649853094550000014127514661874219180_);}
	.st17{fill:#F2F2F2;}
	.st18{fill:url(#SVGID_00000093153011390063581800000006792690477972610194_);}
	.st19{fill:url(#SVGID_00000018206386240235253870000001482059396800490377_);}
	.st20{fill:url(#SVGID_00000086668252589996347350000005523594468443836574_);}
	.st21{fill:url(#SVGID_00000041995233747384964120000007096057769840745878_);}
	.st22{fill:#001E48;}
	.st23{fill:#274EF2;}
	.st24{fill:#E26B6D;}
	.st25{fill:#FFFFFF;}
	.st26{fill:url(#SVGID_00000016796605738294986470000009286335039548049801_);}
	.st27{fill:url(#SVGID_00000011001239554220641670000013837161668576705975_);}
	.st28{fill:#F1CBB3;}
	.st29{fill:#E29F77;}
	.st30{fill:#EAAB3B;}
	.st31{fill:#253770;}
	.st32{fill:url(#SVGID_00000085219263608434710420000011831299808390627456_);}
	.st33{fill:url(#SVGID_00000155861642761899856030000014074824668448272768_);}
	.st34{fill:url(#SVGID_00000101084486668675072810000011982616142185732745_);}
	.st35{fill:url(#SVGID_00000041277250426314349230000015213223839677003923_);}
	.st36{fill:#A7ADC0;}
	.st37{fill:url(#SVGID_00000056414599542702915670000006084020449391395234_);}
	.st38{fill:url(#SVGID_00000112628842890003001860000011070598053321478049_);}
	.st39{fill:url(#SVGID_00000175296914508531301810000007445198760704409531_);}
	.st40{fill:#EDC2A9;}
	.st41{fill:#DBBDAF;}
	.st42{fill:url(#SVGID_00000008119873443374763470000011538993505834240385_);}
	.st43{fill:url(#SVGID_00000021809908237128758560000014976394115298103965_);}
	.st44{fill:#5DA1F0;}
	.st45{fill:url(#SVGID_00000034777733222199916760000012752804312388178096_);}
	.st46{fill:url(#SVGID_00000057862155889816024100000003546185099483960754_);}
	.st47{fill:url(#SVGID_00000125601811289750119350000010079656073300287670_);}
	.st48{fill:url(#SVGID_00000139292596498044955230000007371227119620064690_);}
	.st49{fill:url(#SVGID_00000168839923775894069700000005632422828648598944_);}
	.st50{fill:url(#SVGID_00000052793563385834876260000010763293350286775950_);}
	.st51{fill:url(#SVGID_00000076584623315603012620000009650809091866314386_);}
	.st52{fill:url(#SVGID_00000003822244072988043850000001351586155493541300_);}
	.st53{fill:url(#SVGID_00000109732816102873505400000013307272446894383030_);}
	.st54{fill:url(#SVGID_00000128480139969531724280000012612991174997422992_);}
	.st55{fill:url(#SVGID_00000016782299010964019190000000780945480367628941_);}
	.st56{fill:url(#SVGID_00000136375078665081629140000015971572973351331724_);}
	.st57{fill:url(#SVGID_00000076583001310529147580000008876416121143274627_);}
	.st58{fill:url(#SVGID_00000117664295544080341830000011621039003130362540_);}
	.st59{fill:url(#SVGID_00000183940184853665819950000014281917973582946439_);}
	.st60{fill:url(#SVGID_00000025418812804003298120000005715631265302802336_);}
</style>
<g id="BACKGROUND">
	<g>
		<g>
			<linearGradient id="SVGID_1_" gradientUnits="userSpaceOnUse" x1="375" y1="548.055" x2="375" y2="39.17">
				<stop  offset="0" style="stop-color:#66A8DE"/>
				<stop  offset="0.1715" style="stop-color:#85B9E5"/>
				<stop  offset="0.5657" style="stop-color:#C6DFF3"/>
				<stop  offset="0.8526" style="stop-color:#EFF6FC"/>
				<stop  offset="1" style="stop-color:#FFFFFF"/>
			</linearGradient>
			<rect class="st0" width="750" height="500"/>
		</g>
		<g class="st1">
			<g>
				
					<linearGradient id="SVGID_00000121248983606752559350000013630757216332806300_" gradientUnits="userSpaceOnUse" x1="432.9017" y1="97.5916" x2="246.0475" y2="284.4458">
					<stop  offset="0" style="stop-color:#66A8DE"/>
					<stop  offset="0.1715" style="stop-color:#85B9E5"/>
					<stop  offset="0.5657" style="stop-color:#C6DFF3"/>
					<stop  offset="0.8526" style="stop-color:#EFF6FC"/>
					<stop  offset="1" style="stop-color:#FFFFFF"/>
				</linearGradient>
				<path style="fill:url(#SVGID_00000121248983606752559350000013630757216332806300_);" d="M748.64,0.23
					c-1.11,0,1.45,86.25,1.45,86.25s-12.69,12.17-111.43,7.15c-38.89-1.98-78.29-10.24-116.95-2.39
					c-39.45,8.02-74.92,30-114.21,38.79c-36.76,8.22-76.12,4.3-110.53-11.01c-19.92-8.87-38.53-21.8-50.94-39.73
					c-8.96-12.95-14.41-28.08-17.52-43.52c-2.44-12.1-4.15-35.73-4.15-35.73S583.37,0.11,748.64,0.23z"/>
			</g>
			<g>
				
					<linearGradient id="SVGID_00000068670993090788436330000014402839628496475785_" gradientUnits="userSpaceOnUse" x1="375" y1="500" x2="375" y2="245.1">
					<stop  offset="0" style="stop-color:#66A8DE"/>
					<stop  offset="0.1715" style="stop-color:#85B9E5"/>
					<stop  offset="0.5657" style="stop-color:#C6DFF3"/>
					<stop  offset="0.8526" style="stop-color:#EFF6FC"/>
					<stop  offset="1" style="stop-color:#FFFFFF"/>
				</linearGradient>
				<path style="fill:url(#SVGID_00000068670993090788436330000014402839628496475785_);" d="M750,393.11v106.51
					c-0.08,0.13-0.17,0.25-0.25,0.38H0V310.12c8.75,4.34,16.8,10.47,23.58,18.2c9.56,10.91,34.81,22.19,48.27,12.1
					c15.9-11.92,20.52-40.83,32.01-56.44c11.94-16.23,35.31-22.12,53.55-26.93c22.84-6.02,46.66-10.57,70.27-11.77
					c48.26-2.47,93.48,20.72,125.9,54.77c20.06,21.06,45.89,26.29,74.03,26c18.91-0.2,36.17-4.16,54.92,1.22
					c10.61,3.05,18.59,3.52,28.83-0.22l-1,2c16.08,0,31.07-0.2,45.49,7.96c24.33,13.77,33.26,35.67,63.92,36.04
					c33.23,0.4,71.11-15.37,103.64-0.72C733.26,376.76,742.57,384.14,750,393.11z"/>
			</g>
		</g>
	</g>
</g>
<g id="OBJECTS" class="st4">
	<g class="st5">
		<g>
			
				<linearGradient id="SVGID_00000148638520996875845010000016569828824579908535_" gradientUnits="userSpaceOnUse" x1="-461.0315" y1="430.2601" x2="-461.0315" y2="193.8023">
				<stop  offset="1.963140e-03" style="stop-color:#D7DFF2"/>
				<stop  offset="0.4855" style="stop-color:#E9ECF1"/>
				<stop  offset="1" style="stop-color:#F1F1F1"/>
			</linearGradient>
			
				<rect x="-761.09" y="57.49" style="fill:url(#SVGID_00000148638520996875845010000016569828824579908535_);" width="600.11" height="381.25"/>
		</g>
		<g>
			<g>
				<g>
					<g>
						
							<linearGradient id="SVGID_00000017485541577443530320000005994570084305542842_" gradientUnits="userSpaceOnUse" x1="-639.7331" y1="330.7136" x2="-447.1032" y2="138.0837">
							<stop  offset="0" style="stop-color:#66A8DE"/>
							<stop  offset="0.1715" style="stop-color:#85B9E5"/>
							<stop  offset="0.5657" style="stop-color:#C6DFF3"/>
							<stop  offset="0.8526" style="stop-color:#EFF6FC"/>
							<stop  offset="1" style="stop-color:#FFFFFF"/>
						</linearGradient>
						<path style="fill:url(#SVGID_00000017485541577443530320000005994570084305542842_);" d="M-329.62,398.46h-431.47
							c0,0,0-324.25,0-324.25c20-3.62,39.42,4.83,46.34,24.42c6.45,18.25,6.13,40.53,26.1,50.34c13.95,6.86,29.91,2.69,44.54,1.09
							c15.62-1.71,32.72,0.97,46.44,9.51c16.42,10.22,22.11,26.61,28.92,43.72c8.91,22.38,23.71,40.08,48.57,44.13
							c28.86,4.69,68.71-0.87,92.79,19.04c20.01,16.55,14.22,46.97,30.36,66.22C-375.37,358.49-323.24,344.89-329.62,398.46z"/>
					</g>
					<g>
						
							<linearGradient id="SVGID_00000123407592074395978330000000791015420547615646_" gradientUnits="userSpaceOnUse" x1="-634.642" y1="322.6012" x2="-474.1312" y2="162.0905">
							<stop  offset="0" style="stop-color:#66A8DE"/>
							<stop  offset="0.1715" style="stop-color:#85B9E5"/>
							<stop  offset="0.5657" style="stop-color:#C6DFF3"/>
							<stop  offset="0.8526" style="stop-color:#EFF6FC"/>
							<stop  offset="1" style="stop-color:#FFFFFF"/>
						</linearGradient>
						<path style="fill:url(#SVGID_00000123407592074395978330000000791015420547615646_);" d="M-358.57,398.46h-402.52
							c0,0,0-301.34,0-301.34c18.59-3.36,38.16,4.49,44.59,22.69c5.99,16.96,5.7,37.66,24.26,46.79c12.96,6.37,27.8,2.5,41.39,1.01
							c14.52-1.59,30.41,0.9,43.16,8.84c15.26,9.5,20.55,24.73,26.88,40.63c8.28,20.8,22.03,37.25,45.13,41.01
							c26.82,4.36,63.86-0.8,86.24,17.7c18.6,15.38,13.21,43.65,28.22,61.54C-401.08,361.31-352.64,348.67-358.57,398.46z"/>
					</g>
				</g>
				<path class="st9" d="M-309.81,401.46h-451.28v-4h451.28c1.1,0,2,0.9,2,2l0,0C-307.81,400.57-308.7,401.46-309.81,401.46z"/>
			</g>
			<g>
				<g>
					<g>
						<g>
							<g>
								<g>
									<g>
										
											<linearGradient id="SVGID_00000158003854833510861040000014050843900354056377_" gradientUnits="userSpaceOnUse" x1="-449.9391" y1="350.5233" x2="-333.2724" y2="363.8567">
											<stop  offset="0.0117" style="stop-color:#5692A3"/>
											<stop  offset="0.1678" style="stop-color:#629DA5"/>
											<stop  offset="0.9961" style="stop-color:#A0D6AD"/>
										</linearGradient>
										<path style="fill:url(#SVGID_00000158003854833510861040000014050843900354056377_);" d="M-359.44,335.34
											c-2.14-0.89-14.07-0.68-19.42-0.55c-1.63,0.04-3.17,0.77-4.22,2.01c-1.55,1.82-3.86,4.44-5.33,5.7
											c0.38-2.83,0.97-5.67,1.14-8.58c-2.69-0.49-5.73-0.33-8.48-0.67c-2.82-0.35-5.75-0.61-8.62-0.55
											c-2.6,0.05-6.38-0.42-8.12,1.23c-1.77,1.68-3.66,4.84-5.09,6.87c-0.05-1.77,0.52-3.74,0.91-5.55
											c0.71-3.26,0.12-2.98-3.32-3.66c-4.1-0.81-8.26-1.26-12.43-1.23c-5.37,0.04-10.07,0.51-15.2,1.39
											c-2.99,0.5-2.87,0.23-3.96,3.1c-0.73,1.93-1.75,3.96-2.69,5.82c-2.68-1.28-2.76-6.34-2.93-8.82
											c-6.49-0.06-13.23,6.88-17.61,11.07c-0.86,0.82-9.17,9.38-9.59,9.82c-4.62,4.79-2.91,12.74,3.29,15.21
											c3.24,1.29,7.31,2.72,12.39,4.23c4.46,1.33,25.33,5.48,31.56,3.79c-0.87-3.06-2.48-6.22-2.88-9.43
											c2.7,1.52,4.64,4.81,6.05,7.46c0.16,0.31,0.57,1.02,1.03,1.83c1.16,2.02,3.43,3.12,5.74,2.79
											c6.18-0.9,17.59-3.87,22.91-5.8c-1.54-2.83-3.2-4.63-4.84-7.52c2.98,1.04,5.12,4.38,7.75,5.99
											c1.89,1.16,1.15,1.36,3.31,0.2c1.21-0.65,2.22-1.46,3.42-2.11c-2.95-2.79-5.2-6.51-8.09-9.54
											c2.02,2.1,5.08,3.56,7.46,5.19c3.22,2.2,3.69,2.23,7.12,0.34c5.9-3.25,12.28-6.95,17.57-11.01
											c4.22-3.24,10.61-7.65,12.84-12.53C-356.38,338.82-355.83,336.84-359.44,335.34z"/>
									</g>
								</g>
								<path class="st11" d="M-371.14,343.95c-6.75,2.03-13.57,3.92-20.45,5.59c6.48,0.73,12.97,0.6,19.45-0.4
									c0.92-0.14,1.34,1.27,0.4,1.41c-7.78,1.21-15.56,1.21-23.34,0c-0.12-0.02-0.22-0.06-0.3-0.12
									c-2.66,0.61-5.33,1.19-8.01,1.73c4.62,2.82,9.54,4.98,14.77,6.44c0.91,0.26,0.56,1.68-0.35,1.43
									c-5.8-1.62-11.24-4.06-16.3-7.31c-0.07-0.04-0.11-0.1-0.16-0.15c-2.55,0.5-5.11,0.95-7.68,1.37
									c1.63,1.41,3.33,2.73,4.83,4.3c1.79,1.87,3.41,3.9,5.03,5.91c0.59,0.74-0.67,1.49-1.26,0.76
									c-3.24-4.01-6.75-7.19-10.48-10.66c-3.09,0.49-6.19,0.91-9.3,1.27c1.86,1.69,3.93,3.14,5.71,4.94
									c1.87,1.89,3.51,3.95,5.01,6.13c0.54,0.78-0.72,1.54-1.26,0.76c-1.66-2.4-3.49-4.64-5.61-6.65
									c-1.84-1.75-3.97-3.16-5.76-4.96c-2.84,0.31-5.69,0.56-8.54,0.75c3.95,4,7.05,8.63,10.09,13.36
									c0.51,0.8-0.75,1.56-1.26,0.76c-3.2-4.98-6.46-9.88-10.77-13.99c-4.94,0.29-9.88,0.4-14.82,0.31
									c2.78,4.32,5.12,8.85,7.05,13.62c0.35,0.87-1.07,1.27-1.42,0.4c-2-4.94-4.47-9.61-7.41-14.06
									c-2.87-0.08-5.74-0.25-8.61-0.48c3.08,3.57,5.59,7.53,6.94,12.09c0.27,0.91-1.15,1.31-1.42,0.4
									c-1.4-4.71-4.07-8.73-7.34-12.35c-0.09-0.1-0.14-0.2-0.17-0.3c-2.89-0.27-5.77-0.62-8.65-1.05
									c2.68,2.11,4.86,4.72,6.49,7.79c0.44,0.83-0.81,1.6-1.26,0.76c-2.03-3.82-4.89-6.86-8.59-9.09
									c-2.38-0.41-4.77-0.85-7.14-1.38c-0.93-0.21-0.58-1.63,0.35-1.43c2.31,0.51,4.63,0.95,6.95,1.35c0.11-0.01,0.23,0,0.36,0.06
									c0.07,0.01,0.14,0.02,0.21,0.03c4.96-3.52,8.63-8.14,10.98-13.75c0.37-0.87,1.66-0.16,1.3,0.7
									c-2.24,5.37-5.71,9.84-10.25,13.37c3.01,0.46,6.02,0.83,9.04,1.12c0.01-0.21,0.1-0.42,0.31-0.57
									c5.78-4.2,11.49-8.46,15.62-14.38c0.54-0.77,1.84-0.07,1.3,0.7c-4.11,5.89-9.69,10.22-15.44,14.41
									c4.55,0.38,9.1,0.58,13.66,0.59c5.26-6.76,10.46-13.65,12.92-21.98c0.27-0.91,1.7-0.56,1.43,0.35
									c-2.4,8.16-7.35,14.98-12.49,21.63c3.02-0.02,6.04-0.11,9.06-0.27c4.64-5.58,9.94-11.06,12.15-18.13
									c0.28-0.9,1.71-0.55,1.43,0.35c-2.14,6.85-7,12.25-11.56,17.65c2.63-0.17,5.27-0.38,7.89-0.65
									c0.05-0.15,0.14-0.29,0.32-0.39c5.93-3.21,10.72-7.81,15.46-12.52c0.67-0.67,1.74,0.34,1.07,1.01
									c-4.26,4.24-8.57,8.39-13.68,11.56c2.91-0.34,5.81-0.73,8.71-1.18c0.29-1.38,2.6-2.84,3.35-3.55
									c2.78-2.65,5.62-5.23,8.52-7.76c0.71-0.62,1.78,0.39,1.07,1.01c-1.98,1.73-3.94,3.48-5.87,5.27c-0.42,0.39-4,3.42-5.22,4.73
									c2.71-0.44,5.41-0.91,8.1-1.43c0-0.01,0.01-0.01,0.01-0.02c3.78-3.91,7.96-7.26,12.59-10.1c0.81-0.49,1.57,0.76,0.76,1.26
									c-3.91,2.4-7.49,5.17-10.77,8.34c5.14-1.04,10.25-2.23,15.32-3.52c0.06-0.1,0.14-0.19,0.28-0.26
									c3.96-1.95,7.91-3.9,11.87-5.85c0.84-0.42,1.61,0.84,0.76,1.26c-2.09,1.03-4.19,2.07-6.28,3.1
									c3.32-0.91,6.63-1.87,9.92-2.86C-370.63,342.26-370.23,343.67-371.14,343.95z"/>
							</g>
						</g>
						<g>
							<g>
								<g>
									<g>
										
											<linearGradient id="SVGID_00000004539340607801550340000006914365191902049675_" gradientUnits="userSpaceOnUse" x1="-403.4628" y1="518.6276" x2="-351.4657" y2="464.6306" gradientTransform="matrix(0.9721 0.2348 -0.2348 0.9721 83.6391 -90.4241)">
											<stop  offset="0.0117" style="stop-color:#5692A3"/>
											<stop  offset="0.1678" style="stop-color:#629DA5"/>
											<stop  offset="0.9961" style="stop-color:#A0D6AD"/>
										</linearGradient>
										<path style="fill:url(#SVGID_00000004539340607801550340000006914365191902049675_);" d="M-382.5,273.64
											c-2.31,0.2-12.78,5.87-17.47,8.46c-1.43,0.79-2.45,2.15-2.81,3.73c-0.53,2.33-1.36,5.72-2.09,7.51
											c-0.98-2.68-1.76-5.48-2.96-8.14c-2.61,0.8-5.23,2.35-7.82,3.31c-2.66,0.99-5.38,2.11-7.89,3.48
											c-2.28,1.24-5.85,2.57-6.62,4.83c-0.79,2.31-1.01,5.98-1.33,8.44c-0.87-1.55-1.28-3.56-1.76-5.35
											c-0.88-3.22-1.27-2.71-4.64-1.72c-4.01,1.17-7.9,2.69-11.59,4.63c-4.74,2.5-8.68,5.09-12.83,8.23
											c-2.41,1.82-2.44,1.53-2.08,4.58c0.24,2.05,0.29,4.32,0.31,6.4c-2.97,0.1-5.39-4.36-6.68-6.48
											c-5.78,2.93-8.53,12.2-10.48,17.93c-0.38,1.12-3.78,12.55-3.96,13.13c-1.88,6.38,3.32,12.65,9.96,11.98
											c3.47-0.35,7.74-0.95,12.94-1.95c4.57-0.87,24.99-6.8,29.73-11.17c-2.19-2.31-5.08-4.38-6.92-7.04
											c3.1,0.1,6.34,2.13,8.82,3.84c0.29,0.2,0.98,0.65,1.76,1.15c1.96,1.26,4.49,1.19,6.38-0.17
											c5.06-3.64,13.8-11.54,17.62-15.7c-2.67-1.81-4.98-2.64-7.77-4.44c3.12-0.45,6.56,1.53,9.65,1.75
											c2.21,0.16,1.65,0.68,3.03-1.35c0.77-1.13,1.29-2.32,2.05-3.45c-3.91-1.12-7.63-3.38-11.59-4.74
											c2.76,0.94,6.15,0.82,9.02,1.16c3.88,0.47,4.3,0.28,6.47-2.98c3.72-5.61,7.66-11.83,10.47-17.86
											c2.24-4.82,5.85-11.68,5.58-17.03C-378.18,275.31-378.6,273.31-382.5,273.64z"/>
									</g>
								</g>
								<path class="st11" d="M-388.88,286.66c-5.04,4.91-10.22,9.73-15.54,14.38c6.08-2.34,11.78-5.44,17.05-9.31
									c0.75-0.55,1.77,0.51,1.01,1.07c-6.34,4.65-13.23,8.24-20.68,10.75c-0.12,0.04-0.22,0.05-0.32,0.03
									c-2.07,1.77-4.17,3.51-6.29,5.23c5.4,0.38,10.76,0.03,16.07-1.08c0.93-0.19,1.28,1.23,0.35,1.43
									c-5.89,1.23-11.84,1.58-17.84,1.02c-0.08-0.01-0.15-0.04-0.21-0.06c-2.03,1.62-4.09,3.2-6.17,4.75
									c2.1,0.5,4.21,0.89,6.27,1.59c2.45,0.84,4.83,1.89,7.2,2.93c0.87,0.38,0.09,1.63-0.77,1.25c-4.73-2.07-9.32-3.27-14.23-4.63
									c-2.52,1.86-5.07,3.66-7.65,5.41c2.43,0.64,4.94,0.98,7.35,1.75c2.53,0.81,4.93,1.89,7.28,3.13
									c0.84,0.44,0.07,1.7-0.76,1.25c-2.58-1.37-5.25-2.51-8.06-3.32c-2.44-0.71-4.99-0.98-7.4-1.75
									c-2.38,1.58-4.79,3.12-7.22,4.6c5.35,1.73,10.24,4.42,15.13,7.21c0.82,0.47,0.06,1.73-0.76,1.25
									c-5.15-2.94-10.3-5.79-16.03-7.46c-4.24,2.53-8.57,4.91-12.99,7.1c4.46,2.56,8.63,5.5,12.55,8.84
									c0.72,0.61-0.36,1.62-1.07,1.01c-4.06-3.47-8.42-6.47-13.08-9.07c-2.58,1.25-5.2,2.43-7.85,3.54
									c4.38,1.75,8.44,4.11,11.75,7.53c0.66,0.68-0.41,1.69-1.07,1.01c-3.42-3.54-7.65-5.87-12.23-7.58
									c-0.12-0.05-0.21-0.11-0.29-0.19c-2.68,1.09-5.4,2.11-8.15,3.06c3.35,0.64,6.49,1.95,9.36,3.92
									c0.78,0.53,0.02,1.79-0.76,1.25c-3.57-2.45-7.51-3.83-11.83-4.11c-2.3,0.74-4.62,1.44-6.97,2.07
									c-0.92,0.25-1.27-1.18-0.35-1.43c2.29-0.61,4.54-1.29,6.78-2c0.09-0.06,0.21-0.1,0.34-0.11c0.07-0.02,0.13-0.04,0.2-0.07
									c2.77-5.4,3.88-11.2,3.36-17.26c-0.08-0.94,1.39-0.91,1.47,0.03c0.5,5.8-0.5,11.37-2.89,16.59
									c2.88-0.98,5.72-2.03,8.53-3.17c-0.09-0.19-0.11-0.41,0.01-0.65c3.18-6.39,6.26-12.81,7.19-19.96
									c0.12-0.93,1.59-0.91,1.47,0.03c-0.92,7.12-3.86,13.54-7.01,19.9c4.21-1.75,8.33-3.68,12.38-5.76
									c1.53-8.43,2.95-16.94,1.26-25.46c-0.18-0.93,1.25-1.28,1.43-0.35c1.65,8.35,0.43,16.68-1.05,24.95
									c2.67-1.41,5.3-2.88,7.9-4.41c1.53-7.09,3.69-14.39,2.37-21.68c-0.17-0.93,1.26-1.28,1.43-0.35
									c1.28,7.06-0.53,14.1-2.07,20.99c2.26-1.36,4.49-2.77,6.69-4.22c-0.03-0.15-0.01-0.32,0.11-0.5
									c3.77-5.58,5.88-11.87,7.9-18.24c0.29-0.9,1.7-0.5,1.42,0.4c-1.81,5.73-3.71,11.4-6.77,16.56c2.42-1.64,4.81-3.32,7.17-5.06
									c-0.39-1.36,0.99-3.72,1.32-4.69c1.24-3.63,2.56-7.23,3.96-10.81c0.34-0.87,1.76-0.48,1.42,0.4
									c-0.95,2.45-1.88,4.9-2.76,7.38c-0.19,0.54-1.96,4.88-2.43,6.6c2.2-1.64,4.37-3.3,6.52-5.01c0-0.01,0-0.01,0-0.02
									c1.54-5.21,3.69-10.11,6.48-14.76c0.49-0.81,1.75-0.05,1.26,0.76c-2.36,3.93-4.24,8.04-5.68,12.36
									c4.07-3.29,8.05-6.7,11.95-10.19c0.01-0.12,0.04-0.23,0.13-0.36c2.6-3.55,5.2-7.11,7.8-10.66c0.55-0.76,1.82,0,1.26,0.76
									c-1.38,1.88-2.75,3.76-4.13,5.64c2.52-2.34,5.01-4.71,7.47-7.11C-389.22,284.93-388.2,286-388.88,286.66z"/>
							</g>
						</g>
						<g>
							<g>
								<g>
									<g>
										
											<linearGradient id="SVGID_00000138540909643443353720000008766541180804278673_" gradientUnits="userSpaceOnUse" x1="-466.913" y1="309.1678" x2="-420.913" y2="262.5012">
											<stop  offset="0.0117" style="stop-color:#5692A3"/>
											<stop  offset="0.1678" style="stop-color:#629DA5"/>
											<stop  offset="0.9961" style="stop-color:#A0D6AD"/>
										</linearGradient>
										<path style="fill:url(#SVGID_00000138540909643443353720000008766541180804278673_);" d="M-410.99,222.72
											c-2.11,0.95-10.11,9.76-13.67,13.75c-1.08,1.22-1.6,2.83-1.41,4.45c0.27,2.37,0.61,5.85,0.52,7.78
											c-1.81-2.21-3.48-4.59-5.49-6.71c-2.2,1.62-4.16,3.94-6.28,5.71c-2.19,1.81-4.38,3.77-6.29,5.89
											c-1.74,1.93-4.67,4.36-4.65,6.74c0.02,2.44,1.03,5.98,1.54,8.41c-1.33-1.18-2.38-2.94-3.44-4.47
											c-1.9-2.76-2.1-2.14-4.95-0.1c-3.39,2.42-6.57,5.14-9.4,8.19c-3.64,3.93-6.51,7.67-9.37,12c-1.67,2.52-1.8,2.25-0.44,5.01
											c0.91,1.85,1.7,3.99,2.42,5.94c-2.77,1.07-6.53-2.34-8.45-3.92c-4.48,4.67-4.01,14.33-3.94,20.39
											c0.01,1.19,0.59,13.09,0.62,13.7c0.34,6.65,7.32,10.85,13.37,8.03c3.16-1.47,6.99-3.45,11.56-6.11
											c4.02-2.33,21.32-14.66,24.34-20.34c-2.83-1.46-6.24-2.46-8.86-4.37c2.95-0.92,6.69-0.08,9.59,0.72
											c0.34,0.09,1.14,0.29,2.04,0.5c2.27,0.54,4.63-0.35,5.96-2.26c3.57-5.11,9.19-15.44,11.42-20.63
											c-3.12-0.82-5.57-0.85-8.8-1.64c2.8-1.45,6.7-0.72,9.68-1.53c2.14-0.58,1.78,0.1,2.41-2.27c0.35-1.32,0.45-2.61,0.79-3.93
											c-4.06,0.23-8.31-0.68-12.5-0.66c2.92-0.03,6.08-1.25,8.89-1.87c3.81-0.83,4.15-1.15,5.12-4.95
											c1.65-6.52,3.31-13.69,3.96-20.32c0.52-5.29,1.65-12.96-0.38-17.92C-406.36,222.87-407.42,221.12-410.99,222.72z"/>
									</g>
								</g>
								<path class="st11" d="M-412.69,237.12c-3.13,6.3-6.41,12.55-9.9,18.7c4.96-4.21,9.31-9.02,13-14.41
									c0.53-0.77,1.84-0.1,1.31,0.68c-4.43,6.48-9.75,12.14-15.95,16.96c-0.1,0.08-0.19,0.12-0.29,0.14
									c-1.37,2.35-2.77,4.69-4.2,7.01c5.22-1.42,10.16-3.52,14.8-6.32c0.81-0.49,1.62,0.74,0.8,1.23
									c-5.15,3.1-10.65,5.39-16.49,6.84c-0.08,0.02-0.15,0.01-0.22,0.01c-1.38,2.2-2.8,4.37-4.25,6.52
									c2.15-0.22,4.27-0.55,6.44-0.57c2.59-0.02,5.18,0.2,7.76,0.4c0.94,0.07,0.63,1.51-0.31,1.44c-5.15-0.4-9.87-0.02-14.95,0.31
									c-1.76,2.58-3.57,5.13-5.43,7.63c2.51-0.19,4.98-0.71,7.51-0.77c2.66-0.06,5.28,0.16,7.91,0.56
									c0.94,0.14,0.63,1.58-0.31,1.44c-2.89-0.44-5.78-0.64-8.7-0.48c-2.54,0.14-5.03,0.72-7.56,0.79
									c-1.72,2.28-3.48,4.52-5.29,6.72c5.63-0.13,11.13,0.8,16.66,1.83c0.93,0.17,0.63,1.61-0.31,1.44
									c-5.83-1.08-11.64-2.07-17.59-1.76c-3.16,3.79-6.46,7.46-9.91,10.98c5.06,0.94,9.97,2.35,14.77,4.22
									c0.88,0.34,0.2,1.64-0.68,1.3c-4.98-1.93-10.08-3.34-15.35-4.26c-2.02,2.03-4.11,4.01-6.24,5.93
									c4.72,0.21,9.32,1.1,13.58,3.24c0.85,0.43,0.17,1.73-0.68,1.3c-4.4-2.21-9.16-3.03-14.05-3.13c-0.13,0-0.24-0.04-0.34-0.09
									c-2.17,1.92-4.4,3.77-6.67,5.57c3.37-0.5,6.77-0.3,10.13,0.62c0.91,0.25,0.61,1.69-0.31,1.44
									c-4.18-1.14-8.35-1.15-12.52,0.01c-1.93,1.45-3.88,2.88-5.89,4.25c-0.78,0.53-1.59-0.7-0.8-1.23
									c1.95-1.33,3.86-2.71,5.74-4.13c0.07-0.09,0.16-0.16,0.29-0.22c0.06-0.04,0.11-0.09,0.16-0.13
									c0.82-6.01-0.05-11.86-2.55-17.41c-0.39-0.86,1.01-1.32,1.4-0.46c2.39,5.31,3.29,10.9,2.77,16.62c2.39-1.87,4.73-3.81,7-5.8
									c-0.15-0.15-0.24-0.35-0.21-0.61c0.88-7.08,1.67-14.16,0.17-21.21c-0.19-0.92,1.2-1.38,1.4-0.46
									c1.49,7.03,0.85,14.05-0.02,21.1c3.39-3.04,6.64-6.22,9.77-9.52c-1.35-8.46-2.83-16.96-7.24-24.46
									c-0.48-0.81,0.75-1.62,1.24-0.8c4.32,7.34,5.93,15.61,7.27,23.9c2.05-2.21,4.05-4.47,5.99-6.77
									c-0.91-7.2-1.29-14.81-4.95-21.26c-0.47-0.82,0.77-1.62,1.24-0.8c3.55,6.25,4.17,13.49,5.01,20.5
									c1.68-2.03,3.32-4.09,4.92-6.19c-0.08-0.14-0.12-0.3-0.06-0.5c1.71-6.51,1.62-13.14,1.41-19.82
									c-0.03-0.95,1.44-1.03,1.47-0.09c0.19,6.01,0.28,11.98-0.9,17.86c1.74-2.35,3.44-4.72,5.09-7.14
									c-0.81-1.16-0.3-3.84-0.31-4.87c-0.04-3.84,0.02-7.67,0.15-11.51c0.03-0.94,1.5-1.03,1.47-0.09
									c-0.09,2.62-0.15,5.25-0.16,7.88c0,0.57-0.23,5.26-0.11,7.04c1.53-2.27,3.03-4.56,4.49-6.87c0-0.01,0-0.01,0-0.02
									c-0.27-5.42,0.13-10.76,1.22-16.08c0.19-0.93,1.63-0.62,1.44,0.31c-0.92,4.48-1.34,8.99-1.26,13.55
									c2.75-4.45,5.38-8.98,7.9-13.55c-0.03-0.11-0.04-0.23,0-0.38c1.28-4.21,2.55-8.43,3.83-12.64c0.27-0.9,1.72-0.6,1.44,0.31
									c-0.68,2.23-1.35,4.46-2.03,6.69c1.6-3.04,3.17-6.1,4.69-9.17C-413.58,235.6-412.27,236.28-412.69,237.12z"/>
							</g>
						</g>
					</g>
					<g>
						<g>
							<g>
								<g>
									<g>
										
											<linearGradient id="SVGID_00000003809212916234314560000014424675724690812319_" gradientUnits="userSpaceOnUse" x1="936.0645" y1="40.0893" x2="1058.2371" y2="40.0893" gradientTransform="matrix(-0.9255 0.3787 0.3787 0.9255 243.4454 -64.3124)">
											<stop  offset="0.0117" style="stop-color:#5692A3"/>
											<stop  offset="0.1678" style="stop-color:#629DA5"/>
											<stop  offset="0.9961" style="stop-color:#A0D6AD"/>
										</linearGradient>
										<path style="fill:url(#SVGID_00000003809212916234314560000014424675724690812319_);" d="M-729.18,343.79
											c1.98-1.2,13.8-2.8,19.12-3.47c1.62-0.2,3.25,0.29,4.48,1.35c1.8,1.56,4.48,3.81,6.13,4.83c-0.8-2.74-1.82-5.46-2.42-8.31
											c2.58-0.89,5.62-1.19,8.28-1.94c2.74-0.77,5.6-1.47,8.44-1.85c2.58-0.34,6.25-1.37,8.21-0.01c2,1.39,4.35,4.23,6.07,6.02
											c-0.21-1.76-1.07-3.62-1.74-5.35c-1.2-3.12-0.57-2.93,2.73-4.12c3.93-1.42,7.97-2.49,12.1-3.1
											c5.31-0.77,10.03-1.01,15.23-0.92c3.03,0.05,2.88-0.21,4.39,2.47c1.01,1.79,2.33,3.66,3.53,5.35
											c2.46-1.67,1.77-6.69,1.56-9.16c6.4-1.04,14.11,4.81,19.07,8.28c0.97,0.68,10.48,7.89,10.97,8.26
											c5.29,4.04,4.8,12.15-0.96,15.53c-3.01,1.76-6.82,3.79-11.61,6.05c-4.21,1.99-24.21,9.24-30.63,8.51
											c0.4-3.16,1.51-6.52,1.43-9.75c-2.44,1.91-3.86,5.46-4.86,8.29c-0.11,0.33-0.41,1.1-0.75,1.96
											c-0.84,2.17-2.92,3.61-5.25,3.62c-6.24,0.04-17.97-1.18-23.52-2.27c1.09-3.03,2.46-5.06,3.65-8.16
											c-2.79,1.48-4.4,5.1-6.76,7.09c-1.7,1.43-0.93,1.52-3.25,0.7c-1.29-0.46-2.42-1.1-3.7-1.57c2.5-3.21,4.16-7.22,6.56-10.65
											c-1.68,2.38-4.49,4.29-6.6,6.25c-2.86,2.66-3.31,2.76-6.99,1.41c-6.32-2.33-13.19-5.02-19.03-8.23
											c-4.66-2.56-11.64-5.97-14.58-10.45C-731.69,347.68-732.53,345.82-729.18,343.79z"/>
									</g>
								</g>
								<path class="st11" d="M-716.32,350.53c6.98,0.99,14.01,1.82,21.06,2.44c-6.3,1.7-12.73,2.55-19.28,2.54
									c-0.94,0-1.13,1.46-0.18,1.46c7.87,0.02,15.56-1.15,23.07-3.52c0.12-0.04,0.21-0.09,0.28-0.16c2.72,0.2,5.45,0.37,8.17,0.51
									c-4.14,3.49-8.68,6.36-13.62,8.6c-0.86,0.39-0.3,1.75,0.56,1.36c5.49-2.48,10.5-5.7,15.01-9.69
									c0.06-0.05,0.1-0.12,0.13-0.18c2.6,0.11,5.2,0.17,7.8,0.2c-1.4,1.64-2.88,3.2-4.13,4.98c-1.49,2.12-2.78,4.37-4.08,6.6
									c-0.47,0.82,0.89,1.37,1.36,0.56c2.59-4.46,5.59-8.13,8.75-12.12c3.13,0.01,6.26-0.04,9.39-0.14
									c-1.58,1.95-3.42,3.7-4.9,5.74c-1.56,2.15-2.87,4.43-4.03,6.81c-0.41,0.85,0.95,1.41,1.36,0.56
									c1.28-2.62,2.76-5.11,4.54-7.43c1.55-2.01,3.45-3.73,4.95-5.77c2.86-0.12,5.71-0.31,8.56-0.54
									c-3.3,4.55-5.66,9.6-7.96,14.73c-0.39,0.86,0.97,1.43,1.36,0.56c2.42-5.41,4.9-10.74,8.54-15.46
									c4.92-0.46,9.83-1.09,14.7-1.93c-2.09,4.69-3.72,9.52-4.91,14.53c-0.22,0.92,1.24,1.09,1.46,0.18
									c1.23-5.19,2.97-10.18,5.2-15.02c2.83-0.52,5.64-1.11,8.44-1.77c-2.5,4-4.39,8.29-5.03,13c-0.13,0.94,1.33,1.12,1.46,0.18
									c0.67-4.86,2.7-9.24,5.4-13.32c0.07-0.11,0.11-0.22,0.12-0.32c2.81-0.7,5.61-1.48,8.39-2.34c-2.33,2.49-4.09,5.4-5.24,8.68
									c-0.31,0.89,1.05,1.46,1.36,0.56c1.43-4.08,3.8-7.51,7.12-10.28c2.3-0.76,4.58-1.56,6.85-2.44c0.89-0.34,0.32-1.7-0.56-1.36
									c-2.21,0.85-4.43,1.64-6.67,2.38c-0.11,0-0.23,0.04-0.34,0.12c-0.07,0.02-0.13,0.04-0.2,0.06
									c-5.43-2.73-9.76-6.74-12.93-11.94c-0.49-0.81-1.66,0.09-1.17,0.89c3.03,4.97,7.13,8.87,12.15,11.67
									c-2.91,0.91-5.83,1.73-8.77,2.47c-0.04-0.2-0.16-0.4-0.39-0.52c-6.35-3.28-12.64-6.63-17.61-11.85
									c-0.65-0.68-1.83,0.21-1.17,0.89c4.96,5.2,11.12,8.64,17.44,11.92c-4.44,1.07-8.91,1.94-13.41,2.65
									c-6.22-5.89-12.4-11.92-16.08-19.78c-0.4-0.85-1.76-0.29-1.36,0.56c3.61,7.7,9.52,13.7,15.61,19.49
									c-2.99,0.44-5.99,0.8-8.99,1.09c-5.43-4.82-11.5-9.43-14.74-16.09c-0.41-0.85-1.78-0.29-1.36,0.56
									c3.15,6.45,8.77,11.05,14.09,15.71c-2.63,0.23-5.26,0.41-7.9,0.55c-0.07-0.14-0.18-0.27-0.38-0.34
									c-6.35-2.27-11.77-6.1-17.17-10.05c-0.76-0.56-1.67,0.6-0.91,1.16c4.86,3.55,9.74,7,15.26,9.36
									c-2.92,0.1-5.85,0.15-8.78,0.15c-0.49-1.32-3-2.41-3.84-3c-3.15-2.2-6.35-4.32-9.59-6.38c-0.79-0.5-1.7,0.65-0.91,1.16
									c2.22,1.41,4.42,2.85,6.59,4.32c0.47,0.32,4.47,2.78,5.87,3.89c-2.74-0.03-5.48-0.09-8.23-0.2c-0.01,0-0.01-0.01-0.01-0.01
									c-4.32-3.29-8.96-5.97-13.97-8.08c-0.87-0.37-1.44,0.99-0.56,1.36c4.23,1.78,8.19,3.98,11.91,6.62
									c-5.23-0.26-10.47-0.66-15.68-1.17c-0.07-0.09-0.17-0.17-0.31-0.21c-4.2-1.33-8.41-2.66-12.61-4
									c-0.9-0.28-1.47,1.07-0.57,1.36c2.23,0.71,4.45,1.41,6.68,2.12c-3.42-0.4-6.84-0.85-10.24-1.33
									C-717.07,348.94-717.26,350.4-716.32,350.53z"/>
							</g>
						</g>
						<g>
							<g>
								<g>
									<g>
										
											<linearGradient id="SVGID_00000155122632582628852880000005452430838004971659_" gradientUnits="userSpaceOnUse" x1="986.991" y1="0.8904" x2="1032.9918" y2="-56.7773" gradientTransform="matrix(-0.9255 0.3787 0.3787 0.9255 243.4454 -64.3124)">
											<stop  offset="0.0117" style="stop-color:#5692A3"/>
											<stop  offset="0.1678" style="stop-color:#629DA5"/>
											<stop  offset="0.9961" style="stop-color:#A0D6AD"/>
										</linearGradient>
										<path style="fill:url(#SVGID_00000155122632582628852880000005452430838004971659_);" d="M-715.69,279.31
											c2.31-0.15,13.52,3.88,18.54,5.73c1.53,0.57,2.74,1.75,3.34,3.27c0.87,2.22,2.21,5.45,3.2,7.11
											c0.56-2.8,0.92-5.68,1.7-8.5c2.7,0.4,5.53,1.53,8.23,2.1c2.78,0.57,5.64,1.27,8.33,2.25c2.44,0.88,6.17,1.66,7.28,3.77
											c1.13,2.16,1.9,5.76,2.59,8.15c0.62-1.66,0.72-3.71,0.94-5.56c0.38-3.32,0.85-2.87,4.33-2.4
											c4.14,0.55,8.22,1.46,12.16,2.83c5.06,1.76,9.35,3.72,13.92,6.2c2.66,1.44,2.64,1.14,2.74,4.21
											c0.07,2.06,0.37,4.32,0.65,6.38c2.95-0.35,4.67-5.12,5.63-7.41c6.15,2.03,10.28,10.77,13.06,16.15
											c0.55,1.05,5.63,11.83,5.89,12.39c2.82,6.03-1.38,13-8.04,13.35c-3.48,0.18-7.79,0.23-13.08,0.02
											c-4.64-0.18-25.73-2.96-31.07-6.56c1.82-2.62,4.36-5.09,5.78-8c-3.04,0.57-5.95,3.06-8.14,5.12
											c-0.25,0.24-0.87,0.79-1.57,1.4c-1.75,1.54-4.26,1.85-6.33,0.79c-5.55-2.84-15.38-9.33-19.79-12.86
											c2.37-2.19,4.52-3.36,7.01-5.56c-3.16,0.03-6.26,2.5-9.27,3.18c-2.16,0.49-1.52,0.92-3.2-0.88c-0.93-1-1.63-2.09-2.55-3.1
											c3.7-1.7,7.03-4.49,10.74-6.43c-2.59,1.34-5.96,1.74-8.74,2.51c-3.76,1.05-4.21,0.93-6.85-1.97
											c-4.53-4.98-9.35-10.54-13.04-16.08c-2.94-4.42-7.55-10.66-8.08-16C-719.71,281.61-719.59,279.57-715.69,279.31z"/>
									</g>
								</g>
								<path class="st11" d="M-707.42,291.23c5.72,4.09,11.57,8.08,17.53,11.87c-6.36-1.39-12.46-3.6-18.26-6.64
									c-0.83-0.43-1.68,0.77-0.84,1.21c6.97,3.65,14.32,6.15,22.07,7.51c0.12,0.02,0.23,0.01,0.32-0.01
									c2.32,1.44,4.65,2.84,7.01,4.22c-5.28,1.19-10.63,1.65-16.05,1.35c-0.95-0.05-1.08,1.41-0.13,1.46
									c6.01,0.33,11.94-0.23,17.79-1.68c0.08-0.02,0.14-0.06,0.2-0.09c2.25,1.29,4.53,2.54,6.82,3.77c-2,0.81-4.03,1.51-5.96,2.52
									c-2.3,1.2-4.49,2.6-6.68,3.98c-0.8,0.51,0.15,1.63,0.95,1.12c4.36-2.76,8.72-4.64,13.36-6.73c2.77,1.46,5.56,2.85,8.38,4.2
									c-2.31,1-4.74,1.71-7,2.84c-2.38,1.19-4.59,2.61-6.72,4.19c-0.76,0.57,0.19,1.69,0.95,1.12c2.35-1.74,4.81-3.27,7.46-4.5
									c2.31-1.07,4.78-1.72,7.05-2.84c2.59,1.21,5.2,2.36,7.83,3.46c-5.03,2.52-9.46,5.91-13.87,9.41
									c-0.74,0.59,0.2,1.71,0.95,1.12c4.64-3.69,9.31-7.28,14.72-9.79c4.57,1.86,9.21,3.56,13.92,5.06
									c-4.03,3.2-7.71,6.74-11.08,10.64c-0.62,0.71,0.6,1.54,1.21,0.83c3.5-4.04,7.34-7.67,11.56-10.94
									c2.74,0.84,5.51,1.61,8.3,2.32c-4.07,2.4-7.72,5.34-10.48,9.22c-0.55,0.77,0.66,1.61,1.21,0.83
									c2.84-4.01,6.67-6.96,10.95-9.34c0.11-0.06,0.19-0.14,0.26-0.23c2.81,0.68,5.66,1.27,8.52,1.79
									c-3.21,1.14-6.12,2.91-8.66,5.29c-0.69,0.65,0.25,1.78,0.95,1.12c3.16-2.96,6.84-4.92,11.07-5.85
									c2.39,0.38,4.78,0.73,7.2,0.99c0.94,0.1,1.07-1.36,0.13-1.46c-2.35-0.26-4.69-0.59-7.01-0.96c-0.1-0.05-0.22-0.07-0.36-0.06
									c-0.07-0.01-0.14-0.02-0.21-0.04c-3.55-4.92-5.53-10.49-5.93-16.56c-0.06-0.94-1.51-0.69-1.45,0.25
									c0.38,5.8,2.21,11.16,5.36,15.96c-3-0.53-5.97-1.15-8.91-1.84c0.06-0.2,0.04-0.42-0.11-0.64
									c-4.11-5.83-8.12-11.72-10.12-18.64c-0.26-0.9-1.71-0.66-1.45,0.25c1.98,6.9,5.85,12.8,9.93,18.62
									c-4.43-1.1-8.79-2.38-13.1-3.83c-2.79-8.1-5.47-16.3-5.09-24.98c0.04-0.94-1.43-1.07-1.47-0.13
									c-0.37,8.5,2.09,16.56,4.8,24.5c-2.85-0.99-5.67-2.05-8.47-3.17c-2.58-6.78-5.82-13.67-5.61-21.08
									c0.03-0.94-1.44-1.07-1.47-0.13c-0.2,7.18,2.65,13.86,5.21,20.44c-2.44-1.01-4.86-2.06-7.25-3.16
									c0.01-0.16-0.04-0.32-0.18-0.47c-4.57-4.95-7.61-10.84-10.56-16.84c-0.42-0.85-1.76-0.24-1.34,0.61
									c2.66,5.39,5.38,10.71,9.19,15.35c-2.64-1.26-5.26-2.56-7.85-3.92c0.18-1.4-1.54-3.53-2.01-4.44
									c-1.77-3.41-3.62-6.76-5.54-10.09c-0.47-0.81-1.81-0.21-1.34,0.61c1.31,2.27,2.6,4.56,3.84,6.88
									c0.27,0.5,2.67,4.53,3.4,6.16c-2.42-1.29-4.82-2.6-7.2-3.97c0-0.01,0-0.01,0-0.02c-2.31-4.92-5.17-9.43-8.64-13.62
									c-0.6-0.73-1.73,0.22-1.13,0.95c2.92,3.53,5.41,7.31,7.48,11.37c-4.52-2.64-8.97-5.41-13.35-8.27
									c-0.02-0.11-0.07-0.23-0.18-0.33c-3.11-3.12-6.22-6.24-9.32-9.36c-0.66-0.67-1.8,0.27-1.13,0.95
									c1.65,1.65,3.29,3.3,4.94,4.96c-2.85-1.93-5.67-3.9-8.45-5.9C-707.35,289.46-708.19,290.67-707.42,291.23z"/>
							</g>
						</g>
						<g>
							<g>
								<g>
									<g>
										
											<linearGradient id="SVGID_00000145020153293993534490000017110270894114637228_" gradientUnits="userSpaceOnUse" x1="925.3524" y1="-26.777" x2="990.6254" y2="-26.777" gradientTransform="matrix(-0.9255 0.3787 0.3787 0.9255 243.4454 -64.3124)">
											<stop  offset="0.0117" style="stop-color:#5692A3"/>
											<stop  offset="0.1678" style="stop-color:#629DA5"/>
											<stop  offset="0.9961" style="stop-color:#A0D6AD"/>
										</linearGradient>
										<path style="fill:url(#SVGID_00000145020153293993534490000017110270894114637228_);" d="M-695.21,224.68
											c2.23,0.62,11.47,8.12,15.59,11.53c1.26,1.04,2.01,2.56,2.07,4.19c0.09,2.39,0.28,5.87,0.66,7.77
											c1.46-2.46,2.75-5.07,4.42-7.46c2.42,1.27,4.7,3.27,7.07,4.69c2.43,1.46,4.9,3.06,7.11,4.87c2.01,1.64,5.27,3.6,5.61,5.96
											c0.35,2.41-0.12,6.07-0.26,8.55c1.14-1.36,1.91-3.27,2.72-4.94c1.46-3.01,1.75-2.43,4.88-0.84
											c3.72,1.88,7.27,4.09,10.53,6.68c4.19,3.33,7.59,6.6,11.08,10.45c2.03,2.24,2.12,1.95,1.19,4.88
											c-0.62,1.97-1.08,4.2-1.49,6.24c2.9,0.64,6.1-3.3,7.76-5.15c5.13,3.95,6.12,13.56,6.97,19.56
											c0.17,1.18,1.39,13.03,1.45,13.64c0.66,6.62-5.6,11.83-12,9.96c-3.35-0.98-7.43-2.36-12.35-4.29
											c-4.32-1.7-23.29-11.27-27.13-16.44c2.58-1.87,5.8-3.37,8.1-5.65c-3.06-0.47-6.63,0.93-9.37,2.15
											c-0.32,0.14-1.08,0.46-1.94,0.8c-2.16,0.88-4.63,0.35-6.23-1.34c-4.29-4.51-11.42-13.88-14.4-18.67
											c2.96-1.28,5.38-1.68,8.46-2.94c-2.99-1.01-6.73,0.3-9.8-0.05c-2.2-0.25-1.74,0.37-2.72-1.88
											c-0.55-1.25-0.84-2.51-1.37-3.77c4.05-0.38,8.12-1.93,12.26-2.53c-2.89,0.41-6.2-0.32-9.07-0.51
											c-3.9-0.25-4.28-0.51-5.8-4.12c-2.62-6.2-5.33-13.04-6.98-19.49c-1.31-5.15-3.59-12.56-2.33-17.78
											C-699.76,225.53-698.97,223.64-695.21,224.68z"/>
									</g>
								</g>
								<path class="st11" d="M-691.35,238.66c4.04,5.75,8.23,11.44,12.6,16.99c-5.54-3.41-10.56-7.51-15.02-12.29
									c-0.64-0.68-1.84,0.18-1.19,0.87c5.36,5.74,11.47,10.53,18.33,14.36c0.11,0.06,0.21,0.09,0.31,0.09
									c1.71,2.12,3.45,4.22,5.21,6.29c-5.37-0.62-10.57-1.94-15.59-4.01c-0.87-0.36-1.49,0.98-0.61,1.34
									c5.55,2.29,11.34,3.72,17.33,4.27c0.08,0.01,0.15-0.01,0.22-0.02c1.7,1.96,3.43,3.9,5.18,5.81c-2.15,0.1-4.3,0.1-6.46,0.41
									c-2.57,0.37-5.09,0.97-7.61,1.56c-0.92,0.21-0.39,1.59,0.52,1.37c5.03-1.17,9.76-1.51,14.83-1.95
									c2.13,2.29,4.3,4.53,6.51,6.73c-2.51,0.19-5.03,0.05-7.54,0.37c-2.64,0.34-5.2,0.95-7.73,1.75
									c-0.91,0.28-0.38,1.66,0.52,1.37c2.79-0.87,5.62-1.5,8.53-1.79c2.53-0.25,5.08-0.05,7.59-0.36
									c2.04,1.99,4.12,3.94,6.24,5.85c-5.58,0.72-10.88,2.47-16.2,4.32c-0.9,0.31-0.38,1.69,0.52,1.37
									c5.6-1.95,11.19-3.81,17.12-4.39c3.7,3.27,7.51,6.4,11.45,9.36c-4.86,1.7-9.5,3.83-13.97,6.4
									c-0.82,0.47,0.05,1.66,0.87,1.19c4.63-2.66,9.47-4.82,14.53-6.52c2.31,1.7,4.66,3.34,7.06,4.93
									c-4.63,0.92-9.05,2.49-12.93,5.25c-0.77,0.55,0.09,1.74,0.87,1.19c4.01-2.85,8.6-4.38,13.41-5.21
									c0.13-0.02,0.23-0.07,0.32-0.14c2.43,1.57,4.91,3.06,7.44,4.5c-3.41,0.02-6.74,0.73-9.92,2.14
									c-0.86,0.38-0.35,1.76,0.52,1.37c3.96-1.76,8.08-2.39,12.38-1.87c2.12,1.15,4.27,2.26,6.46,3.31
									c0.86,0.41,1.46-0.93,0.61-1.34c-2.13-1.02-4.22-2.1-6.29-3.21c-0.08-0.08-0.18-0.14-0.32-0.17
									c-0.06-0.03-0.12-0.07-0.18-0.1c-1.72-5.82-1.74-11.73-0.11-17.59c0.25-0.91-1.2-1.15-1.45-0.24
									c-1.56,5.61-1.61,11.27-0.23,16.85c-2.65-1.49-5.25-3.05-7.79-4.68c0.12-0.17,0.18-0.39,0.11-0.64
									c-1.94-6.86-3.78-13.74-3.37-20.95c0.05-0.94-1.4-1.19-1.45-0.24c-0.42,7.17,1.28,14.02,3.2,20.86
									c-3.81-2.5-7.51-5.15-11.09-7.94c0.06-8.57,0.24-17.2,3.47-25.27c0.35-0.88-0.99-1.48-1.34-0.6
									c-3.17,7.91-3.51,16.33-3.59,24.73c-2.36-1.87-4.67-3.8-6.94-5.79c-0.19-7.25-0.96-14.83,1.69-21.76
									c0.34-0.88-1-1.49-1.34-0.6c-2.56,6.71-2.09,13.96-1.86,21.02c-1.96-1.75-3.9-3.54-5.8-5.37c0.06-0.15,0.07-0.32-0.01-0.51
									c-2.67-6.18-3.58-12.75-4.38-19.38c-0.11-0.94-1.58-0.8-1.47,0.14c0.72,5.97,1.53,11.89,3.58,17.52
									c-2.07-2.06-4.11-4.15-6.11-6.29c0.63-1.27-0.28-3.84-0.43-4.86c-0.54-3.8-1.18-7.58-1.89-11.36
									c-0.17-0.92-1.64-0.79-1.47,0.14c0.48,2.58,0.94,5.17,1.35,7.76c0.09,0.56,1.02,5.16,1.17,6.94
									c-1.85-2.01-3.68-4.05-5.48-6.12c0-0.01,0-0.01,0-0.02c-0.55-5.4-1.75-10.62-3.64-15.71c-0.33-0.89-1.71-0.37-1.38,0.52
									c1.59,4.29,2.68,8.69,3.29,13.2c-3.39-3.98-6.67-8.06-9.85-12.21c0.01-0.11,0.01-0.24-0.06-0.37
									c-1.9-3.97-3.79-7.94-5.69-11.92c-0.4-0.85-1.79-0.33-1.38,0.52c1,2.1,2.01,4.21,3.01,6.31c-2.04-2.77-4.05-5.55-6.02-8.36
									C-690.7,237.02-691.89,237.88-691.35,238.66z"/>
							</g>
						</g>
					</g>
				</g>
				<path class="st17" d="M-413.23,410.83c-2.13,0-4.2,0.03-6.19,0.08c-10.36-2.32-73.54-4.11-149.95-4.11
					c-83.64,0-151.45,2.14-151.45,4.78c0,0.22,0.47,0.43,1.37,0.64c-18.67,0.88-30.7,2.25-30.7,3.79c0,2.64,35.33,4.78,78.92,4.78
					c41.93,0,76.2-1.98,78.75-4.49c7.54,0.04,15.25,0.06,23.11,0.06c54.76,0,102.74-0.92,129.34-2.29
					c1.26,1.51,12.78,2.69,26.8,2.69c14.87,0,26.92-1.33,26.92-2.97C-386.31,412.15-398.37,410.83-413.23,410.83z"/>
				<g>
					<g>
						
							<linearGradient id="SVGID_00000045580050849629368090000012410210866903968660_" gradientUnits="userSpaceOnUse" x1="-531.0808" y1="422.8949" x2="-531.0808" y2="379.5498">
							<stop  offset="7.131410e-03" style="stop-color:#D7DFF2"/>
							<stop  offset="0.1964" style="stop-color:#D3DDF1"/>
							<stop  offset="0.3829" style="stop-color:#C7D7EF"/>
							<stop  offset="0.5684" style="stop-color:#B3CEEC"/>
							<stop  offset="0.7534" style="stop-color:#98C0E7"/>
							<stop  offset="0.9362" style="stop-color:#74AFE1"/>
							<stop  offset="1" style="stop-color:#66A8DE"/>
						</linearGradient>
						
							<rect x="-543.99" y="361.98" style="fill:url(#SVGID_00000045580050849629368090000012410210866903968660_);" width="25.81" height="41.98"/>
						
							<linearGradient id="SVGID_00000028284175768399579650000004457009211215256501_" gradientUnits="userSpaceOnUse" x1="-530.6553" y1="413.3903" x2="-530.6553" y2="370.0449">
							<stop  offset="7.131410e-03" style="stop-color:#D7DFF2"/>
							<stop  offset="0.1276" style="stop-color:#B8D0EC"/>
							<stop  offset="0.27" style="stop-color:#9AC1E7"/>
							<stop  offset="0.4213" style="stop-color:#83B6E3"/>
							<stop  offset="0.5834" style="stop-color:#73AEE0"/>
							<stop  offset="0.764" style="stop-color:#69A9DF"/>
							<stop  offset="1" style="stop-color:#66A8DE"/>
						</linearGradient>
						<path style="fill:url(#SVGID_00000028284175768399579650000004457009211215256501_);" d="M-474.82,409.23H-586.5v-0.25
							c0-4.66,3.77-8.43,8.43-8.43h94.82c4.66,0,8.43,3.77,8.43,8.43V409.23z"/>
					</g>
					
						<linearGradient id="SVGID_00000161602614921836417950000011265910835749684908_" gradientUnits="userSpaceOnUse" x1="-530.6553" y1="202.0335" x2="-530.6553" y2="340.6183">
						<stop  offset="7.131410e-03" style="stop-color:#D7DFF2"/>
						<stop  offset="0.1958" style="stop-color:#C7D7EF"/>
						<stop  offset="0.5628" style="stop-color:#9EC3E8"/>
						<stop  offset="1" style="stop-color:#66A8DE"/>
					</linearGradient>
					<path style="fill:url(#SVGID_00000161602614921836417950000011265910835749684908_);" d="M-437.3,386.64h-186.7
						c-2.92,0-5.29-2.37-5.29-5.29V242.25c0-2.92,2.37-5.29,5.29-5.29h186.7c2.92,0,5.29,2.37,5.29,5.29v139.09
						C-432.01,384.27-434.38,386.64-437.3,386.64z"/>
					
						<linearGradient id="SVGID_00000078023923935815405860000016832923946769137032_" gradientUnits="userSpaceOnUse" x1="-530.6553" y1="315.662" x2="-530.6553" y2="234.5431">
						<stop  offset="1.963140e-03" style="stop-color:#D7DFF2"/>
						<stop  offset="0.4855" style="stop-color:#E9ECF1"/>
						<stop  offset="1" style="stop-color:#F1F1F1"/>
					</linearGradient>
					
						<rect x="-621.8" y="244.22" style="fill:url(#SVGID_00000078023923935815405860000016832923946769137032_);" width="182.28" height="120.64"/>
					<path class="st22" d="M-524.06,376.42c-0.71,3.64-4.23,6.02-7.88,5.31c-3.64-0.71-6.02-4.23-5.31-7.88
						c0.71-3.64,4.23-6.02,7.88-5.31C-525.73,369.25-523.35,372.78-524.06,376.42z"/>
					<rect x="-621.77" y="345.24" class="st22" width="182.24" height="19.61"/>
					<g>
						<path class="st23" d="M-591.87,278.97h4.36c0.13,2.36,1.71,3.94,4.91,3.94c2.88,0,4.43-1.2,4.43-3.3
							c0-1.71-1.16-2.65-3.46-3.07l-3.17-0.62c-4.04-0.78-6.47-2.65-6.47-6.3c0-4.11,3.2-6.4,8.34-6.4c5.21,0,8.63,2.46,8.63,6.69
							h-4.37c0-1.97-1.62-3.14-4.2-3.14c-2.68,0-3.94,1.26-3.94,2.98c0,1.39,0.87,2.49,2.97,2.88l3.01,0.58
							c5.01,0.94,7.15,2.88,7.15,6.4c0,4.49-3.56,6.85-8.96,6.85C-588.41,286.47-591.87,283.66-591.87,278.97z"/>
						<path class="st23" d="M-555.43,278.81h-12.12c0.26,3.2,1.84,4.62,4.66,4.62c1.97,0,3.1-0.81,3.65-2.49h3.69
							c-0.87,3.72-3.72,5.63-7.6,5.63c-4.56,0-8.31-2.72-8.31-8.76c0-6.08,3.69-8.79,8.25-8.79c4.69,0,7.89,2.78,7.89,8.7
							C-555.33,278.13-555.36,278.49-555.43,278.81z M-559.24,276.51c-0.1-2.68-1.42-4.33-4.04-4.33c-2.49,0-4.01,1.49-4.27,4.33
							H-559.24z"/>
						<path class="st23" d="M-553.32,277.78c0-6.05,3.94-8.76,8.34-8.76c1.84,0,3.52,0.49,4.98,1.49c1.46,1,2.3,2.72,2.59,5.14
							h-3.69c-0.39-2.17-1.84-3.17-3.91-3.17c-2.81,0-4.43,2.04-4.43,5.3c0,3.23,1.62,5.24,4.43,5.24c2.07,0,3.52-1.03,3.91-3.2
							h3.69c-0.23,2.42-1.1,4.14-2.55,5.14s-3.14,1.52-5.01,1.52C-549.38,286.47-553.32,283.73-553.32,277.78z"/>
						<path class="st23" d="M-519.05,269.34v16.81h-4.14v-3.46h-0.16c-0.39,1.65-2.13,3.78-5.5,3.78c-3.46,0-5.85-2.2-5.85-6.56
							v-10.57h4.14v9.6c0,2.75,1.16,4.11,3.46,4.11c2.33,0,3.91-1.42,3.91-4.11v-9.6H-519.05z"/>
						<path class="st23" d="M-505.07,269.37v3.49c-0.48-0.06-0.94-0.1-1.29-0.1c-2.97,0-5.08,1.81-5.08,5.56v7.82h-4.14v-16.81h4.14
							v4.01h0.1c0.61-2.46,2.3-4.14,4.98-4.14C-505.88,269.21-505.46,269.27-505.07,269.37z"/>
						<path class="st23" d="M-503.13,264.46c0-1.36,1.1-2.39,2.46-2.39c1.29,0,2.39,1.03,2.39,2.39c0,1.29-1.1,2.33-2.39,2.33
							C-502.03,266.78-503.13,265.75-503.13,264.46z M-502.74,269.34h4.14v16.81h-4.14V269.34z"/>
						<path class="st23" d="M-485.83,283.05v3.23c-0.55,0.07-1.36,0.1-2.43,0.1c-3.27,0-5.21-1.55-5.21-4.95v-8.89h-2.81v-3.2h2.81
							v-4.3h4.14v4.3h3.3v3.2h-3.3v8.25c0,1.52,0.58,2.26,2.1,2.26H-485.83z"/>
						<path class="st23" d="M-482.79,289.03c0.45,0.06,0.84,0.1,1.2,0.1c1.97,0,2.81-0.78,3.33-2.04c0.16-0.36,0.26-0.74,0.26-1.13
							c0-0.39-0.1-0.78-0.26-1.13l-6.21-15.49h4.24l4.3,11.64l4.33-11.64h4.27l-6.98,17.27c-1.78,4.36-3.65,6.05-7.05,6.05
							c-0.45,0-0.94-0.03-1.42-0.1V289.03z"/>
						<path class="st23" d="M-576.48,313.64c0-7.28,4.11-11.61,10.44-11.61c5.17,0,8.83,2.65,9.34,7.83h-4.14
							c-0.71-2.75-2.46-4.14-5.21-4.14c-4.01,0-6.08,3.04-6.08,7.92c0,4.91,2.04,7.95,6.08,7.95c2.62,0,4.46-1.36,5.21-4.17h4.14
							c-0.52,5.17-4.17,7.86-9.34,7.86C-572.37,325.28-576.48,320.98-576.48,313.64z"/>
						<path class="st23" d="M-538.35,314.39v10.57h-4.14v-9.6c0-2.72-1.2-4.11-3.43-4.11c-2.36,0-3.91,1.42-3.91,4.11v9.6h-4.14
							v-22.63h4.14v9.28h0.13c0.39-1.65,2.13-3.78,5.5-3.78C-540.71,307.82-538.35,310.02-538.35,314.39z"/>
						<path class="st23" d="M-519.63,317.62h-12.12c0.26,3.2,1.84,4.62,4.66,4.62c1.97,0,3.1-0.81,3.65-2.49h3.69
							c-0.87,3.72-3.72,5.63-7.6,5.63c-4.56,0-8.31-2.72-8.31-8.76c0-6.08,3.69-8.79,8.25-8.79c4.69,0,7.89,2.78,7.89,8.7
							C-519.53,316.94-519.56,317.3-519.63,317.62z M-523.44,315.32c-0.1-2.68-1.42-4.33-4.04-4.33c-2.49,0-4.01,1.49-4.27,4.33
							H-523.44z"/>
						<path class="st23" d="M-517.52,316.59c0-6.05,3.94-8.76,8.34-8.76c1.84,0,3.52,0.49,4.98,1.49c1.46,1,2.3,2.72,2.59,5.14
							h-3.69c-0.39-2.17-1.84-3.17-3.91-3.17c-2.81,0-4.43,2.04-4.43,5.3c0,3.23,1.62,5.24,4.43,5.24c2.07,0,3.52-1.03,3.91-3.2
							h3.69c-0.23,2.42-1.1,4.14-2.55,5.14s-3.14,1.52-5.01,1.52C-513.58,325.28-517.52,322.53-517.52,316.59z"/>
						<path class="st23" d="M-487,324.96l-5.72-6.98l-2.04,2.13v4.85h-4.14v-22.63h4.14v13.35l6.85-7.53h4.59l-6.89,7.21l7.79,9.6
							H-487z"/>
					</g>
				</g>
				<g>
					<path class="st24" d="M-544.22,200.66c1.68,6.4-1.77,14.08-4.69,20.02c0,0,16.4,11.72,37.01,0.93l-1.69-4.49
						c-2.01-4.87-2.6-10.22-1.67-15.41l3.49-19.39c0.81-4.52-1.86-8.94-6.23-10.34l-4.67-1.48l-1.46-0.46
						c-1.73-0.55-3.54-0.83-5.36-0.83h-1.9c-2.85,0-5.65,0.68-8.18,2l0,0l-4.41,2.29c-3.8,1.97-5.72,6.31-4.63,10.44L-544.22,200.66
						z"/>
					<path class="st24" d="M-515.58,173.04c0,0,2,0.43,3.96,2.43c1.8,1.83,17.88,30.23,17.88,30.23c0.58,3.41-11.25,5.33-11.25,5.33
						l-10.65-17.79L-515.58,173.04z"/>
					<path class="st25" d="M-496.63,202.89c-3.82-0.05-7.35,1.22-10.28,3.68c-0.26,0.22,0.12,0.59,0.38,0.38
						c2.82-2.37,6.22-3.57,9.9-3.53C-496.29,203.43-496.29,202.89-496.63,202.89z"/>
					<path class="st24" d="M-543.2,173.04c0,0-2,0.43-3.96,2.43c-1.8,1.83-17.88,30.23-17.88,30.23
						c-0.58,3.41,11.25,5.33,11.25,5.33l10.65-17.79L-543.2,173.04z"/>
					<path class="st25" d="M-551.22,206.88c-2.72-3.04-6.58-4.56-10.64-4.16c-0.34,0.03-0.34,0.56,0,0.53
						c3.93-0.38,7.63,1.06,10.27,4.01C-551.36,207.51-550.99,207.14-551.22,206.88z"/>
					<polygon class="st11" points="-511.9,221.61 -500.54,221.61 -518.76,237.5 -536.31,238.77 -559.86,221.02 -546.38,220.6 					
						"/>
					<polygon class="st11" points="-511.9,221.61 -500.54,221.61 -518.76,237.5 -536.31,238.77 -559.86,221.02 -546.38,220.6 					
						"/>
					<g>
						
							<linearGradient id="SVGID_00000052811201951388217530000011674642465665971103_" gradientUnits="userSpaceOnUse" x1="-545.7841" y1="192.0399" x2="-544.6811" y2="192.0399">
							<stop  offset="1.963140e-03" style="stop-color:#D7DFF2"/>
							<stop  offset="0.4855" style="stop-color:#E9ECF1"/>
							<stop  offset="1" style="stop-color:#F1F1F1"/>
						</linearGradient>
						<path style="fill:url(#SVGID_00000052811201951388217530000011674642465665971103_);" d="M-545.08,183.99
							c0.02-0.34-0.51-0.34-0.53,0c-0.32,5.38-0.18,10.73,0.4,16.09c0.04,0.34,0.57,0.34,0.53,0
							C-545.27,194.73-545.4,189.38-545.08,183.99z"/>
						
							<linearGradient id="SVGID_00000034061692190786785470000017791058553487231119_" gradientUnits="userSpaceOnUse" x1="1121.75" y1="192.0399" x2="1122.8533" y2="192.0399" gradientTransform="matrix(-1 0 0 1 607.5639 0)">
							<stop  offset="1.963140e-03" style="stop-color:#D7DFF2"/>
							<stop  offset="0.4855" style="stop-color:#E9ECF1"/>
							<stop  offset="1" style="stop-color:#F1F1F1"/>
						</linearGradient>
						<path style="fill:url(#SVGID_00000034061692190786785470000017791058553487231119_);" d="M-514.89,183.99
							c-0.02-0.34,0.51-0.34,0.53,0c0.32,5.38,0.18,10.73-0.4,16.09c-0.04,0.34-0.57,0.34-0.53,0
							C-514.7,194.73-514.57,189.38-514.89,183.99z"/>
					</g>
					<path class="st28" d="M-530.45,173.95L-530.45,173.95c1.99,0,3.6-1.61,3.6-3.6v-7.28c0-0.55-0.44-0.99-0.99-0.99h-5.23
						c-0.55,0-0.99,0.44-0.99,0.99v7.28C-534.05,172.34-532.44,173.95-530.45,173.95z"/>
					<path class="st29" d="M-530.45,171.36L-530.45,171.36c1.99,0,3.6-1.61,3.6-3.6v-7.28c0-0.55-0.44-0.99-0.99-0.99h-5.23
						c-0.55,0-0.99,0.44-0.99,0.99v7.28C-534.05,169.74-532.44,171.36-530.45,171.36z"/>
					<g>
						<path class="st28" d="M-517.05,158.07c-0.54,2.33-2.3,3.07-3.95,3.54c-0.75,1.55-1.81,3.06-3.04,4.33
							c-1.28,1.51-2.94,2.63-4.82,3.09l-0.16,0.03c-0.11,0.02-0.22,0.05-0.33,0.08c-0.08,0.01-0.15,0.01-0.23,0.02
							c-0.07,0.01-0.12,0.01-0.19,0.02c-0.14,0.01-0.3,0.02-0.44,0.02c-0.15,0-0.3-0.01-0.44-0.02c-0.07-0.01-0.13-0.01-0.2-0.02
							c-0.08-0.01-0.15-0.01-0.22-0.02c-0.12-0.02-0.22-0.05-0.33-0.08c-0.05-0.01-0.11-0.02-0.18-0.03
							c-1.89-0.46-3.54-1.58-4.82-3.09c-1.05-1.1-1.98-2.37-2.7-3.68c-0.12-0.22-0.23-0.43-0.34-0.65c-0.49-0.13-0.99-0.3-1.46-0.54
							c-1.12-0.51-2.1-1.36-2.48-3c-0.3-1.3-0.14-2.89,0.53-3.77c0.27-0.37,0.64-0.61,1.08-0.65c0.46-0.04,0.99,0.13,1.49,0.43
							c0.68-3.08,2.3-6.37,4.3-8.62c0.84-1.12,1.81-1.84,2.86-2.29c0.57-0.27,1.14-0.46,1.72-0.5c0.39-0.04,0.79-0.05,1.17-0.04
							c0.38-0.01,0.78,0,1.17,0.04c0.57,0.04,1.15,0.23,1.71,0.5c1.05,0.45,2.02,1.17,2.86,2.29c2.01,2.26,3.63,5.55,4.3,8.62
							c0.22-0.13,0.45-0.23,0.67-0.31c0.28-0.1,0.57-0.14,0.82-0.12C-517.12,153.78-516.63,156.22-517.05,158.07z"/>
					</g>
					<g>
						<path class="st30" d="M-516.73,145.91c-2.15-0.17-4.11-2.46-5.7-3.77c-1.8-1.48-3.46-1.98-5.69-2.2
							c-0.91-0.09-1.91-0.26-2.86-0.1c-1.17,0.19-1.83,0.92-2.97,0.99c-3.16,0.2-4.39,0.1-6.31,2.83c-1.38,1.96-2.85,4.46-5.07,5.56
							c0.54,0.04,2.7-0.32,3.11,0.03c0.44,0.38-0.08,1.93-0.06,2.59c0.06,1.46,0.75,2.8,1.58,3.97c0.32,2.16,0.97,4.29,1.77,6.29
							c-0.07-4.01,0.29-8.72,2.45-12.21c0.19,0.96,0.12,1.94,0.17,2.92c1.57-1.29,2.7-3.01,4.11-4.43c1.11,1.61,2.14,2.99,3.92,3.97
							c0.1-1.63,0.67-3.02,1.13-4.56c0.93,1.28,1.47,2.78,2.35,4.08c1.02,1.49,2.26,2.85,2.92,4.57c0.89,2.33,0.67,5.3,0.44,7.76
							c0.8-1.89,1.83-3.43,2.22-5.5c0.26-1.42,0.4-2.95,0.4-4.4c-0.01-2.73-0.46-5.24-0.55-7.9
							C-518.4,146.35-517.58,146.44-516.73,145.91z"/>
					</g>
					<g>
						<g>
							<g>
								<path class="st31" d="M-535.93,155.33c0.12,0.01,0.24-0.06,0.3-0.17c0.93-1.76,2.55-1.04,2.62-1.01
									c0.16,0.07,0.34,0,0.42-0.15c0.07-0.16,0-0.34-0.15-0.42c-0.77-0.35-2.48-0.54-3.44,1.29c-0.08,0.15-0.02,0.34,0.13,0.42
									C-536.01,155.32-535.97,155.33-535.93,155.33z"/>
							</g>
						</g>
						<g>
							<g>
								<path class="st31" d="M-526.77,154.54c0.07,0.07,0.18,0.09,0.28,0.06c1.56-0.61,2.19,0.74,2.22,0.8
									c0.06,0.13,0.22,0.19,0.35,0.13c0.13-0.06,0.19-0.22,0.13-0.35c-0.29-0.65-1.28-1.7-2.89-1.07
									c-0.14,0.05-0.2,0.21-0.15,0.34C-526.81,154.48-526.79,154.51-526.77,154.54z"/>
							</g>
						</g>
						<g>
							<g>
								<path class="st31" d="M-530.55,163.85c-0.04-0.11-0.13-0.2-0.26-0.22c-1.97-0.25-1.86-2.02-1.86-2.1
									c0.01-0.17-0.12-0.32-0.29-0.33c-0.17-0.01-0.32,0.12-0.33,0.29c-0.06,0.84,0.36,2.5,2.4,2.76c0.17,0.02,0.33-0.1,0.35-0.27
									C-530.54,163.94-530.54,163.9-530.55,163.85z"/>
							</g>
						</g>
						<g>
							<path class="st31" d="M-528.99,162.87c0.23,0,0.45-0.06,0.65-0.19c0.62-0.4,0.77-1.32,0.42-2.46l-0.8-3.79
								c-0.03-0.15-0.17-0.24-0.32-0.21c-0.15,0.03-0.24,0.18-0.21,0.32l0.81,3.81c0.33,1.08,0.12,1.67-0.19,1.87
								c-0.32,0.21-0.8,0.09-1.24-0.29c-0.11-0.1-0.29-0.1-0.39,0.01c-0.1,0.11-0.11,0.27,0,0.37
								C-529.84,162.68-529.39,162.87-528.99,162.87z"/>
						</g>
						<path class="st31" d="M-524.79,157.31c-0.04,0.56-0.49,0.98-1,0.94c-0.51-0.04-0.88-0.53-0.84-1.08
							c0.04-0.56,0.49-0.98,1-0.94C-525.13,156.26-524.75,156.75-524.79,157.31z"/>
						<path class="st31" d="M-532.94,157.31c-0.04,0.56-0.49,0.98-1,0.94c-0.51-0.04-0.88-0.53-0.84-1.08
							c0.04-0.56,0.49-0.98,1-0.94C-533.27,156.26-532.9,156.75-532.94,157.31z"/>
					</g>
					<path class="st28" d="M-526.64,219.92l-0.92-4.74c-0.18-0.95,0.31-1.9,1.2-2.31l1.01-0.46c1.12-0.51,2.42-0.36,3.39,0.4
						l3.57,2.78c0.55,0.44,1.33,0.49,1.94,0.13l0.2-0.12l2.82-1.64c0,0,15.28-12.83,19.7-8.26c2.1,3.16,0.45,7.45-3.21,8.4
						l-14.05,3.64l-3.77,0.98l-2.48,0.65c-0.5,0.12-1.04,0.11-1.53-0.04l-5.11-1.59c-0.34-0.11-0.7,0.11-0.76,0.47l-0.58,1.8
						C-525.48,220.71-526.5,220.64-526.64,219.92z"/>
					<path class="st28" d="M-532.13,219.92l0.92-4.74c0.18-0.95-0.31-1.9-1.2-2.31l-1.01-0.46c-1.12-0.51-2.42-0.36-3.39,0.4
						l-3.57,2.78c-0.55,0.44-1.33,0.49-1.94,0.13l-0.2-0.12l-2.82-1.64c0,0-15.28-12.83-19.7-8.26c-2.1,3.16-0.45,7.45,3.21,8.4
						l14.05,3.64l3.77,0.98l2.48,0.65c0.5,0.12,1.04,0.11,1.53-0.04l5.11-1.59c0.34-0.11,0.7,0.11,0.76,0.47l0.58,1.8
						C-533.3,220.71-532.27,220.64-532.13,219.92z"/>
					<g>
						<g>
							
								<linearGradient id="SVGID_00000065776444522861280950000004219843692669265064_" gradientUnits="userSpaceOnUse" x1="-530.2006" y1="228.5671" x2="-530.2006" y2="181.4529">
								<stop  offset="0" style="stop-color:#66A8DE"/>
								<stop  offset="0.4372" style="stop-color:#9EC3E8"/>
								<stop  offset="0.8042" style="stop-color:#C7D7EF"/>
								<stop  offset="0.9929" style="stop-color:#D7DFF2"/>
							</linearGradient>
							
								<rect x="-551.61" y="198.26" style="fill:url(#SVGID_00000065776444522861280950000004219843692669265064_);" width="42.82" height="27.57"/>
							
								<linearGradient id="SVGID_00000013155724662610535620000013797268245907463578_" gradientUnits="userSpaceOnUse" x1="-530.2005" y1="229.6993" x2="-530.2005" y2="224.6124">
								<stop  offset="0" style="stop-color:#66A8DE"/>
								<stop  offset="0.4372" style="stop-color:#9EC3E8"/>
								<stop  offset="0.8042" style="stop-color:#C7D7EF"/>
								<stop  offset="0.9929" style="stop-color:#D7DFF2"/>
							</linearGradient>
							<path style="fill:url(#SVGID_00000013155724662610535620000013797268245907463578_);" d="M-508.1,225.84h-44.2
								c-0.59,0-1.07,0.48-1.07,1.07l0,0c0,0.59,0.48,1.07,1.07,1.07h44.2c0.59,0,1.07-0.48,1.07-1.07l0,0
								C-507.03,226.31-507.51,225.84-508.1,225.84z"/>
						</g>
						
							<linearGradient id="SVGID_00000114796018727544221340000013863384078757172147_" gradientUnits="userSpaceOnUse" x1="-529.9424" y1="225.9299" x2="-529.9424" y2="210.8702">
							<stop  offset="0" style="stop-color:#66A8DE"/>
							<stop  offset="0.4372" style="stop-color:#9EC3E8"/>
							<stop  offset="0.8042" style="stop-color:#C7D7EF"/>
							<stop  offset="0.9929" style="stop-color:#D7DFF2"/>
						</linearGradient>
						<path style="fill:url(#SVGID_00000114796018727544221340000013863384078757172147_);" d="M-526.21,214.01
							c0,2.06-1.67,3.73-3.73,3.73s-3.73-1.67-3.73-3.73c0-2.06,1.67-3.73,3.73-3.73S-526.21,211.95-526.21,214.01z"/>
					</g>
					<g>
						<path class="st11" d="M-567.61,230.85c0.72,3.16,3.22,5.45,6.19,6.09c0.26,0.05,0.53,0.1,0.8,0.13
							c10.31,2.83,21.67,4.84,33.89,6.15c3.33,0.37,6.74,0.67,10.19,0.93l5.97,5.55c0.05,0.04,0.11,0.1,0.17,0.14
							c2.69,2.11,6.56-0.33,5.97-3.7l-0.35-1.99c0-0.02-0.01-0.03-0.01-0.04c-0.72-1.95-2.46-3.34-4.51-3.71l-6.18-1.13
							c-2.98-0.94-5.92-1.89-8.78-2.85c-12.44-4.17-23.52-8.62-32.08-14.64c-1.58-0.74-3.39-0.99-5.22-0.58
							C-565.88,222.2-568.6,226.51-567.61,230.85z"/>
						<path class="st31" d="M-526.73,243.22c3.33,0.37,6.74,0.67,10.19,0.93l5.97,5.55c0.05,0.04,0.11,0.1,0.17,0.14
							c2.69,2.11,6.56-0.33,5.97-3.7l-0.35-1.99c0-0.02-0.01-0.03-0.01-0.04c-0.72-1.95-2.46-3.34-4.51-3.71l-6.18-1.13
							c-2.98-0.94-5.92-1.89-8.78-2.85L-526.73,243.22z"/>
						<path class="st11" d="M-548.37,249.34c0.06-0.05,0.12-0.1,0.17-0.14l6.05-5.63c3.09-0.32,6.14-0.65,9.14-1
							c13.33-1.54,25.47-3.38,34.42-6.03c0.27-0.03,0.53-0.07,0.8-0.13c2.97-0.63,5.46-2.92,6.18-6.09
							c0.99-4.34-1.73-8.64-6.06-9.63c-1.83-0.41-3.65-0.17-5.22,0.58c-9.17,5.93-20.05,10.72-32.05,14.73
							c-3.02,1.02-6.11,1.98-9.26,2.9l0.01,0.04l-5.29,0.97c-2.03,0.37-3.78,1.76-4.5,3.7c0,0.02-0.01,0.03-0.01,0.04l-0.35,1.99
							C-554.92,249.01-551.05,251.45-548.37,249.34z"/>
						<path class="st31" d="M-548.37,249.34c0.06-0.05,0.12-0.1,0.17-0.14l6.05-5.63c3.09-0.32,6.14-0.65,9.14-1
							c-0.48-1.66-1.28-4.34-1.93-6.56c-3.02,1.02-6.11,1.98-9.26,2.9l0.01,0.04l-5.29,0.97c-2.03,0.37-3.78,1.76-4.5,3.7
							c0,0.02-0.01,0.03-0.01,0.04l-0.35,1.99C-554.92,249.01-551.05,251.45-548.37,249.34z"/>
					</g>
					<path class="st25" d="M-524.32,170.53c-0.13-0.31-0.64-0.18-0.51,0.14c3.05,7.51-13.74,8.79-11.56-0.12
						c0.08-0.33-0.43-0.47-0.51-0.14C-539.3,180.19-520.96,178.82-524.32,170.53z"/>
				</g>
				<g>
					<g>
						<g>
							<circle class="st22" cx="-628.34" cy="407.64" r="4.95"/>
							<path class="st22" d="M-655.46,407.64c0,2.73,2.21,4.95,4.95,4.95c2.73,0,4.95-2.21,4.95-4.95c0-2.73-2.21-4.95-4.95-4.95
								C-653.24,402.7-655.46,404.91-655.46,407.64z"/>
							<circle class="st22" cx="-670.67" cy="407.64" r="4.95"/>
							<g>
								
									<linearGradient id="SVGID_00000155146421951211672070000017251783969045410239_" gradientUnits="userSpaceOnUse" x1="-652.2208" y1="381.7169" x2="-648.0679" y2="381.7169">
									<stop  offset="7.131410e-03" style="stop-color:#D7DFF2"/>
									<stop  offset="0.1958" style="stop-color:#C7D7EF"/>
									<stop  offset="0.5628" style="stop-color:#9EC3E8"/>
									<stop  offset="1" style="stop-color:#66A8DE"/>
								</linearGradient>
								<path style="fill:url(#SVGID_00000155146421951211672070000017251783969045410239_);" d="M-650.14,407.46L-650.14,407.46
									c1.15,0,2.08-0.93,2.08-2.08v-49.41h-4.15v49.41C-652.22,406.53-651.29,407.46-650.14,407.46z"/>
								
									<rect x="-638.11" y="314.75" transform="matrix(-1 -1.224647e-16 1.224647e-16 -1 -1272.072 659.0569)" class="st36" width="4.15" height="29.56"/>
								
									<linearGradient id="SVGID_00000103265053200284735190000003718829341163606916_" gradientUnits="userSpaceOnUse" x1="-667.673" y1="329.5285" x2="-663.5197" y2="329.5285">
									<stop  offset="7.131410e-03" style="stop-color:#D7DFF2"/>
									<stop  offset="0.1958" style="stop-color:#C7D7EF"/>
									<stop  offset="0.5628" style="stop-color:#9EC3E8"/>
									<stop  offset="1" style="stop-color:#66A8DE"/>
								</linearGradient>
								<polygon style="fill:url(#SVGID_00000103265053200284735190000003718829341163606916_);" points="-667.67,344.31 
									-663.52,344.31 -663.52,314.75 -667.67,314.75 								"/>
								
									<linearGradient id="SVGID_00000107558704454369894810000015058527433341260189_" gradientUnits="userSpaceOnUse" x1="-655.2775" y1="356.5741" x2="-644.9531" y2="356.5741">
									<stop  offset="7.131410e-03" style="stop-color:#D7DFF2"/>
									<stop  offset="0.1958" style="stop-color:#C7D7EF"/>
									<stop  offset="0.5628" style="stop-color:#9EC3E8"/>
									<stop  offset="1" style="stop-color:#66A8DE"/>
								</linearGradient>
								<polygon style="fill:url(#SVGID_00000107558704454369894810000015058527433341260189_);" points="-655.28,362.88 
									-644.95,362.88 -644.95,350.27 -655.28,350.27 								"/>
							</g>
							<path class="st22" d="M-668.65,355.18h35.91c3.71,0,6.72-3.01,6.72-6.72l0,0c0-3.71-3.01-6.72-6.72-6.72h-35.91
								c-3.71,0-6.72,3.01-6.72,6.72l0,0C-675.37,352.17-672.36,355.18-668.65,355.18z"/>
							<path class="st22" d="M-665.37,317.56h32.64c3.71,0,6.72-3.01,6.72-6.72l0,0c0-3.71-3.01-6.72-6.72-6.72h-32.64
								c-3.71,0-6.72,3.01-6.72,6.72l0,0C-672.09,314.55-669.08,317.56-665.37,317.56z"/>
							
								<linearGradient id="SVGID_00000119097149785525524730000002398637398765651612_" gradientUnits="userSpaceOnUse" x1="-672.6078" y1="399.8562" x2="-626.6917" y2="399.8562">
								<stop  offset="7.131410e-03" style="stop-color:#D7DFF2"/>
								<stop  offset="0.1958" style="stop-color:#C7D7EF"/>
								<stop  offset="0.5628" style="stop-color:#9EC3E8"/>
								<stop  offset="1" style="stop-color:#66A8DE"/>
							</linearGradient>
							<path style="fill:url(#SVGID_00000119097149785525524730000002398637398765651612_);" d="M-665.84,391.34h32.39
								c3.74,0,6.76,3.03,6.76,6.76v8.35c0,1.06-0.86,1.92-1.92,1.92l0,0c-1.06,0-1.92-0.86-1.92-1.92v-7.49
								c0-2.08-1.69-3.77-3.77-3.77h-30.56c-2.08,0-3.77,1.69-3.77,3.77v7.49c0,1.06-0.86,1.92-1.92,1.92h-0.02
								c-1.05,0-1.91-0.85-1.92-1.9l-0.09-8.3C-672.65,394.41-669.61,391.34-665.84,391.34z"/>
						</g>
						<g>
							<path class="st24" d="M-656.7,285.92l-3.27,21.9c-0.59,3.94-4.48,6.49-8.33,5.46l-21.48-5.78l0.49-5.21l20.11,1.77
								l1.85-15.81c0.54-4.61,3.37-8.63,7.52-10.7l0,0C-656.45,276.12-656.16,282.32-656.7,285.92z"/>
							<g>
								<g>
									<path class="st22" d="M-637.99,288.24c0.39-0.12,0.78-0.32,1.16-0.55C-637.01,288.13-637.36,288.37-637.99,288.24z"/>
								</g>
								<g>
									<path class="st22" d="M-659.51,262.24c0.41-2.3,0.39-4.66,0.93-6.95c0.52-2.19,1.51-4.07,2.62-5.85
										c0.75-1.2,1.76-2.21,2.85-2.87c0.82-0.49,2.59-1.25,3.44-0.47l5.35,0.57c1.67-0.5,3.76,0.52,5.2,1.63
										c2.11,1.61,3.08,4,4.23,6.67c0.93,2.16,1.14,4.29,0.96,6.73c-0.14,1.86-0.85,3.36-0.84,5.3c0.01,1.91,0.65,3.64,1.72,4.96
										c0.75,0.94,1.57,1.92,2.51,2.53c0.59,0.38,1.4,0.59,1.9,1.08c-1.05,0.35-2.85-0.52-3.88-0.92
										c-0.89-0.35-1.62-1.14-2.5-1.46c0.27,1.24,0.86,2.08,0.96,3.49c0.15,2.09-0.49,3.36-1.53,4.94
										c-1.42,2.17-3.38,3.52-5.17,5.14c-1.05,0.95-2.27,2.17-3.54,2.93c0.5-1.22-0.34-3.99-0.47-4.98
										c-0.15-1.06-0.61-1.9-0.64-2.99c-0.03-0.87-0.03-1.84,0.12-2.67c-2.13,3.46-5.48,7.89-3.91,12.73
										c-1.41-1.25-2.7-2.94-3.94-4.47c-1.27-1.55-2.71-3.16-3.81-4.9c-1.97-3.1-2.93-6.61-3.08-10.6
										C-660.16,268.57-660.08,265.39-659.51,262.24z"/>
								</g>
							</g>
							<path class="st24" d="M-644.72,322.7l-22.26,0.43l6.57-11.18c-1.45-8.16-3-20.53-3.31-28.13c-0.14-3.56,2.28-6.57,5.4-6.7
								l21.21-0.86c3.33-0.13-0.16,2.28-0.37,6.08c-0.21,3.8,1.85,8.61,2.03,11.84c0.22,3.93-2.03,2.56-2.77,8.75
								c-0.13,1.12-0.16,2.26-0.12,3.4c0.14,4.74,1.2,9.41,2.96,13.82l0.94,2.35l-9.9,0.19c-0.02,0.02-0.05,0.05-0.07,0.07
								L-644.72,322.7z"/>
							<path class="st25" d="M-637.9,299.07c0.02-0.12,0.1-0.16,0.19-0.17c1.23-2.04,2.46-4.22,1.79-6.68
								c-0.46-1.69-1.52-3.1-1.89-4.84c-0.07-0.33,0.44-0.48,0.51-0.14c0.47,2.2,2.08,4.07,2.12,6.37c0.04,2.06-1.12,3.98-2.15,5.68
								c-0.02,0.04-0.06,0.04-0.08,0.06c-0.8,4.78-1.44,9.61,0.79,14.12c0.15,0.31-0.31,0.58-0.46,0.27
								C-639.39,309.05-638.73,304.04-637.9,299.07z"/>
							<g>
								<path class="st22" d="M-639.34,389.6c0,0-2.56,18.73-7.32,14.58c-0.26,1.48-0.65,2.72-1.31,3.66
									c-2.06,2.94,4.73,4,7.34,2.72c2.63-1.28,1.14-11.33,1.14-11.33S-635.77,393.22-639.34,389.6z"/>
								<path class="st11" d="M-664.41,322.32l27.66,0.15c4.75,0.03,8.61,4.46,8.58,9.85c-0.01,2.64-0.97,5.04-2.49,6.8
									c-0.04,0.12-0.08,0.25-0.14,0.37c-1.71,3.12-4.8,5.28-8.91,6.74c-0.22,0.07-2,0.77-2.75,1.04l-10.9-2.79l0-0.05
									c0.12-0.9,0.39-1.71,0.77-2.43l-11.94-0.07c-4.75-0.03-8.61-4.46-8.58-9.85C-673.07,326.68-669.16,322.29-664.41,322.32z"/>
								<path class="st40" d="M-638.56,367.18c-0.02,1.15-0.04,2.31-0.07,3.48c-0.14,6.21-0.41,12.69-0.7,18.94
									c0,0-2.07,15.18-5.96,15.18c-0.44,0-0.88-0.18-1.36-0.6c0.33-3.19,0.72-6.23,1.21-8.94c0.11-0.63,0.23-1.23,0.35-1.8
									c0.06-0.32,0.14-0.66,0.22-1c0.23-0.94,0.5-1.89,0.84-2.87c-0.01-0.14-0.7-2.42-1.7-6.09c-0.9-3.34-2.08-7.8-3.24-12.83
									c-0.12-0.5-0.23-1.01-0.35-1.53c-1.51-6.66-2.95-14.19-3.74-21.29c-0.67-5.94-0.88-11.58-0.28-16.17l10.9,2.8
									c-0.16,0.05-0.28,0.08-0.32,0.11C-639.05,335.39-638.3,349.87-638.56,367.18z"/>
								<path class="st11" d="M-638.56,367.18c-0.02,1.15-0.04,2.31-0.07,3.48h-10.34c-0.12-0.5-0.23-1.01-0.35-1.53
									c-1.51-6.66-2.95-14.19-3.74-21.29c-0.67-5.94-0.88-11.58-0.28-16.17l10.9,2.8c-0.16,0.05-0.28,0.08-0.32,0.11
									C-639.05,335.39-638.3,349.87-638.56,367.18z"/>
								<path class="st41" d="M-644.06,389.57c-0.3,0.87-0.57,1.83-0.82,2.87c0.23-0.94,0.5-1.9,0.83-2.87L-644.06,389.57z"/>
								<path class="st40" d="M-640.68,330.64c0.26,10.87-8.51,24.6-18.35,38.67c-0.32,0.45-0.63,0.9-0.96,1.35
									c-3.69,5.26-7.48,10.57-11,15.76l-3.6-3.24l4.53-12.52l2.97-8.18l11.71-32.37c1.41-3.87,4.72-6.38,8.41-6.38
									c1.69,0,3.24,0.78,4.38,2.02C-641.44,326.98-640.72,328.69-640.68,330.64z"/>
								<path class="st22" d="M-678.82,401.1c2.52-2.98,5.96-6.9,7.83-14.68c-1.66,3.25-3.28,6.18-4.78,8.3
									c-1.97,2.8-5.87-0.13-4.35-3.27c2.02-4.13,5.52-8.27,5.52-8.27l-0.03-0.03c-5.62,5.35-7.7,8.12-9.33,14.87
									C-684.88,401.89-681.25,403.98-678.82,401.1z"/>
								<path class="st40" d="M-675.76,394.71c1.5-2.12,3.12-5.05,4.78-8.3l-3.6-3.23c0,0-3.5,4.14-5.52,8.27
									C-681.64,394.58-677.73,397.51-675.76,394.71z"/>
							</g>
							<g>
								<path class="st25" d="M-648.82,289.86c-3.36-0.75-5.97-3.21-6.93-6.52c0.69-0.29,1.31-0.68,1.85-1.21
									c0.11-0.1,0.04-0.24-0.06-0.29c0.03-0.09,0-0.21-0.12-0.24c-0.46-0.12-0.9-0.29-1.32-0.53c-0.21-0.12-0.8-0.42-0.99-0.73
									c0.66-0.31,1.23-0.89,1.77-1.33c0.86-0.7,1.7-1.42,2.53-2.17c0.18-0.16-0.09-0.41-0.27-0.26c-0.7,0.63-1.4,1.24-2.12,1.84
									c-0.59,0.49-1.3,1.23-2.05,1.58c-0.09-0.05-0.21-0.01-0.26,0.1c-0.03,0.01-0.06,0.03-0.1,0.03
									c-0.23,0.06-0.12,0.41,0.11,0.35c0.01,0,0.02-0.01,0.03-0.01c0.16,0.31,0.56,0.52,0.85,0.71c0.52,0.34,1.08,0.58,1.67,0.75
									c-0.54,0.5-1.16,0.89-1.85,1.14c-0.17,0.06-0.15,0.29-0.02,0.35c0.99,3.44,3.71,6,7.2,6.79
									C-648.67,290.27-648.59,289.91-648.82,289.86z"/>
								<path class="st25" d="M-639.98,280.37c-1.59-1.13-2.95-2.48-4.09-4.07c-0.14-0.19-0.45,0-0.31,0.2
									c1.13,1.58,2.49,2.93,4.05,4.07c-0.03,0.01-0.06,0.03-0.09,0.06c-0.25,0.43-1.43,0.54-1.89,0.63
									c-0.7,0.14-1.41,0.22-2.13,0.26c-0.2,0.01-0.21,0.25-0.08,0.33c-0.01,0.04-0.01,0.09,0.03,0.14
									c0.52,0.75,1.19,1.35,1.97,1.8c-1.02,2.54-2.84,4.55-5.27,5.82c-0.21,0.11-0.02,0.42,0.2,0.31
									c2.53-1.32,4.42-3.43,5.46-6.09c0.02-0.06,0.02-0.11,0-0.15c0-0.06-0.02-0.11-0.08-0.15c-0.76-0.42-1.4-0.98-1.91-1.68
									c0.78-0.06,1.56-0.16,2.33-0.33c0.55-0.13,1.39-0.19,1.7-0.72c0.02-0.03,0.01-0.06,0.01-0.09
									C-639.93,280.72-639.82,280.49-639.98,280.37z"/>
								<g>
									
										<linearGradient id="SVGID_00000051378745979226703700000001763653398536360075_" gradientUnits="userSpaceOnUse" x1="-647.4427" y1="319.0847" x2="-632.6464" y2="319.0847">
										<stop  offset="7.131410e-03" style="stop-color:#D7DFF2"/>
										<stop  offset="0.1958" style="stop-color:#C7D7EF"/>
										<stop  offset="0.5628" style="stop-color:#9EC3E8"/>
										<stop  offset="1" style="stop-color:#66A8DE"/>
									</linearGradient>
									<polygon style="fill:url(#SVGID_00000051378745979226703700000001763653398536360075_);" points="-632.65,320.46 
										-647.44,320.46 -647.44,317.71 -633.49,319.68 									"/>
									
										<linearGradient id="SVGID_00000002381542670197645400000004899121326862518933_" gradientUnits="userSpaceOnUse" x1="-675.5991" y1="319.0847" x2="-647.4427" y2="319.0847">
										<stop  offset="7.131410e-03" style="stop-color:#D7DFF2"/>
										<stop  offset="0.1958" style="stop-color:#C7D7EF"/>
										<stop  offset="0.5628" style="stop-color:#9EC3E8"/>
										<stop  offset="1" style="stop-color:#66A8DE"/>
									</linearGradient>
									<polygon style="fill:url(#SVGID_00000002381542670197645400000004899121326862518933_);" points="-675.6,317.71 
										-647.44,317.71 -647.44,320.46 -675.6,320.46 									"/>
								</g>
							</g>
							<g>
								<path class="st40" d="M-645.27,281.43l-3.56,7.17l-2.76-8.4c-0.35-1.06-0.51-2.18-0.46-3.3l0.05-1.18l-0.01-0.2l-0.06-3.79
									l7.8-1.08l-0.02,3.14c0,0.57-0.01,1.16-0.05,1.74c0,0.14,0.02,0.78,0.04,1.5c0.01,0.16,0.01,0.33-0.01,0.49
									C-644.33,278.87-644.66,280.2-645.27,281.43z"/>
								<path class="st29" d="M-644.31,277.5c-1.24,0.24-2.56,0.22-3.87-0.09c-1.46-0.34-2.75-1-3.82-1.89l-0.06-3.79l7.8-1.08
									l-0.02,3.14c0,0.57-0.01,1.16-0.05,1.74c0,0.14,0.02,0.78,0.04,1.5C-644.29,277.18-644.29,277.35-644.31,277.5z"/>
								<path class="st40" d="M-658.6,255.86c0.46,0.03,0.95,0.27,1.4,0.64c1.11-2.94,3.18-5.93,5.47-7.87
									c0.99-0.98,2.04-1.56,3.14-1.84c0.6-0.19,1.19-0.29,1.77-0.26c0.39,0.02,0.78,0.07,1.16,0.13c0.38,0.05,0.76,0.12,1.15,0.21
									c0.56,0.13,1.1,0.4,1.62,0.75c0.97,0.58,1.81,1.44,2.48,2.66c1.64,2.51,2.77,5.97,2.99,9.1c0.55-0.22,1.08-0.32,1.53-0.21
									c1.49,0.35,1.64,2.82,0.95,4.57c-0.86,2.22-2.71,2.69-4.38,2.92c-0.96,1.41-2.22,2.75-3.61,3.82
									c-1.48,1.3-3.27,2.17-5.19,2.35c-0.06,0.01-0.11,0.01-0.17,0.01c-0.11,0.01-0.22,0.03-0.33,0.03
									c-0.08,0-0.15-0.01-0.23-0.01c-0.06,0-0.13-0.01-0.19-0.01c-0.15-0.01-0.29-0.02-0.44-0.04c-0.15-0.02-0.29-0.05-0.43-0.08
									c-0.06-0.01-0.12-0.03-0.18-0.05c-0.07-0.02-0.15-0.03-0.22-0.05c-0.11-0.04-0.21-0.08-0.31-0.12
									c-0.05-0.02-0.11-0.04-0.16-0.06c-1.79-0.72-3.26-2.06-4.3-3.73c-1.02-1.42-1.85-3.07-2.36-4.7
									c-1.54-0.69-3.18-1.67-3.37-4.05C-660.97,258.1-660.13,255.77-658.6,255.86z"/>
								<g>
									<g>
										<path class="st22" d="M-647.82,267.93c1.11-0.18,2.38-0.78,3.13-2.47c0.06-0.14,0-0.3-0.14-0.36
											c-0.14-0.06-0.3,0-0.36,0.14c-1.34,3.02-4.51,2.1-4.64,2.06c-0.15-0.04-0.3,0.04-0.34,0.18c-0.04,0.15,0.04,0.3,0.18,0.34
											C-649.98,267.83-648.99,268.12-647.82,267.93z"/>
									</g>
									<g>
										<path class="st22" d="M-643.34,261.89c-0.11,0.51-0.61,0.83-1.11,0.72c-0.5-0.11-0.82-0.61-0.71-1.11
											c0.11-0.51,0.61-0.83,1.11-0.72C-643.55,260.88-643.23,261.38-643.34,261.89z"/>
									</g>
									<g>
										<path class="st22" d="M-650.83,260.8c-0.11,0.51-0.61,0.83-1.11,0.72c-0.5-0.11-0.82-0.61-0.71-1.11
											c0.11-0.51,0.61-0.83,1.11-0.72C-651.04,259.79-650.72,260.29-650.83,260.8z"/>
									</g>
									<g>
										<path class="st22" d="M-641.88,259.73c0.01,0,0.02,0,0.03-0.01c0.15-0.04,0.23-0.19,0.19-0.34
											c-0.48-1.75-1.97-1.91-2.7-1.76c-0.15,0.03-0.24,0.18-0.21,0.33c0.03,0.15,0.16,0.24,0.33,0.21
											c0.05-0.01,1.6-0.32,2.05,1.36C-642.15,259.66-642.01,259.75-641.88,259.73z"/>
									</g>
									<g>
										<path class="st22" d="M-649.94,257.47c0.01-0.01,0.01-0.02,0.02-0.02c0.09-0.12,0.06-0.3-0.06-0.38
											c-1.48-1.05-2.74-0.22-3.2,0.36c-0.09,0.12-0.07,0.29,0.04,0.39c0.12,0.1,0.28,0.09,0.39-0.04
											c0.03-0.04,1.03-1.26,2.45-0.25C-650.19,257.59-650.03,257.57-649.94,257.47z"/>
									</g>
									<g>
										<path class="st22" d="M-649.33,264.9c0.15,0.02,0.28-0.08,0.3-0.22c0.02-0.15-0.08-0.28-0.22-0.3
											c-0.01,0-0.51-0.09-0.6-0.38c-0.04-0.13-0.04-0.53,0.82-1.34c0.11-0.1,0.11-0.27,0.01-0.38c-0.1-0.11-0.27-0.11-0.38-0.01
											c-0.81,0.76-1.13,1.37-0.97,1.89C-650.16,264.77-649.36,264.9-649.33,264.9L-649.33,264.9z"/>
									</g>
								</g>
							</g>
							<g>
								<path class="st22" d="M-635.2,254.83c-0.18-1.85-1.05-5.02-3.21-5.33l-0.39,0.53c-0.73,3.15-0.4,7.23,1.45,10
									C-636.25,258.55-635.01,256.78-635.2,254.83z"/>
							</g>
							<path class="st24" d="M-615.5,297.76c1.29,1.52,1.77,3.43,1.52,5.24c-0.34,2.38-2.11,4.32-4.36,5.17l-20.43,5.88l-2.35-2.44
								l16.7-9.41l-10.66-11.82c-3.11-3.44-4.69-6.11-3.5-10.6l0.32-1.3c0.6-2.45,3.73-3.19,5.37-1.26L-615.5,297.76z"/>
							<path class="st40" d="M-640.48,311.29c0,0-10.25,0.82-10.14,7.25c0,0-0.12,2.22,1.87-1.99c0,0,0.93-1.29,1.64-1.17
								c0,0-2.48,3.22-2.39,4.17c0.04,0.48,1.45,1.32,3.32-3.47c0,0-1.9,4.76,0.04,4.5l1.24-4.27l-0.2,3.84c0,0,1.38,1.77,1.61-3.37
								l0,0c0.01,0,0.03,0.02,0.04,0.01c1.92-0.29,3.46-0.78,4.67-2.39l0.16-0.42L-640.48,311.29z"/>
							<g>
								<path class="st22" d="M-635.77,252.26c-0.43-2.47-1.81-4.73-4.13-6.18c-2.93-1.83-6.94-2.42-10.31-1.74
									c-5.01,1-8.12,7.3-7.07,12.16c0.13,0.62,0.23,1.2,0.24,1.63c1.61-0.05,3.13-1.41,4.32-2.36c1.36-1.1,3-2.62,3.91-4.13
									c-0.8,2.12,1.36,4.27,2.92,5.32c-0.97-1.97,0.83-3.88,2.4-4.92c0.15,1.1-0.12,1.95,0.46,3.05c0.35,0.66,0.76,1.3,1.21,1.88
									c1.37,1.79,2.25,3.98,2.27,6.25c1.01-0.52,1.72-2.25,2.25-3.23C-636.17,257.9-635.39,254.48-635.77,252.26z"/>
							</g>
							<path class="st24" d="M-657.35,263.63c0,0.61-0.5,1.11-1.11,1.11c-0.61,0-1.11-0.5-1.11-1.11c0-0.61,0.5-1.11,1.11-1.11
								C-657.84,262.53-657.35,263.02-657.35,263.63z"/>
							<path class="st24" d="M-637.29,266.69c0,0.61-0.5,1.11-1.11,1.11c-0.61,0-1.11-0.5-1.11-1.11c0-0.61,0.5-1.11,1.11-1.11
								C-637.78,265.58-637.29,266.08-637.29,266.69z"/>
							<path class="st25" d="M-660,298.7c-0.02-0.12-0.1-0.16-0.19-0.17c-1.23-2.04-2.46-4.22-1.79-6.68
								c0.46-1.69,1.52-3.1,1.89-4.84c0.07-0.33-0.44-0.48-0.51-0.14c-0.47,2.2-2.08,4.07-2.12,6.37c-0.04,2.06,1.12,3.98,2.15,5.68
								c0.02,0.04,0.06,0.04,0.08,0.06c0.8,4.78,1.44,9.61-0.79,14.12c-0.15,0.31,0.31,0.58,0.46,0.27
								C-658.5,308.68-659.17,303.67-660,298.7z"/>
							<path class="st11" d="M-640.68,330.64c0.26,10.87-8.51,24.6-18.35,38.67c-0.32,0.45-0.63,0.9-0.96,1.35l-8.89-3.02l1.78-5.17
								l11.71-32.37c1.41-3.87,4.72-6.38,8.41-6.38c1.69,0,3.24,0.78,4.38,2.02C-641.44,326.98-640.72,328.69-640.68,330.64z"/>
						</g>
					</g>
					<g>
						<g>
							<polygon class="st22" points="-595.68,412.59 -592.33,412.59 -606.45,325.05 -610.82,325.05 							"/>
							<polygon class="st22" points="-610.04,412.59 -606.69,412.59 -620.81,325.05 -625.18,325.05 							"/>
							<polygon class="st22" points="-717.62,412.59 -720.97,412.59 -706.85,325.05 -702.48,325.05 							"/>
							<polygon class="st22" points="-703.26,412.59 -706.61,412.59 -692.49,325.05 -688.12,325.05 							"/>
						</g>
						<path class="st44" d="M-718.38,326.32h123.46c0.98,0,1.77-1.33,1.77-2.96l0,0c0-1.63-0.79-2.96-1.77-2.96h-123.46
							c-0.98,0-1.77,1.33-1.77,2.96l0,0C-720.15,325-719.36,326.32-718.38,326.32z"/>
					</g>
					<g>
						<g>
							
								<linearGradient id="SVGID_00000043435198023440804530000000017706777550771612_" gradientUnits="userSpaceOnUse" x1="-695.1535" y1="306.0913" x2="-695.1535" y2="254.9382">
								<stop  offset="0" style="stop-color:#66A8DE"/>
								<stop  offset="0.4372" style="stop-color:#9EC3E8"/>
								<stop  offset="0.8042" style="stop-color:#C7D7EF"/>
								<stop  offset="0.9929" style="stop-color:#D7DFF2"/>
							</linearGradient>
							<polygon style="fill:url(#SVGID_00000043435198023440804530000000017706777550771612_);" points="-722.13,273.48 
								-674.36,273.48 -668.18,311.19 -715.95,311.19 							"/>
							
								<linearGradient id="SVGID_00000125591659447758247250000004770356132493555843_" gradientUnits="userSpaceOnUse" x1="-696.4495" y1="288.851" x2="-691.1838" y2="309.4557">
								<stop  offset="0" style="stop-color:#66A8DE"/>
								<stop  offset="0.4372" style="stop-color:#9EC3E8"/>
								<stop  offset="0.8042" style="stop-color:#C7D7EF"/>
								<stop  offset="0.9929" style="stop-color:#D7DFF2"/>
							</linearGradient>
							<polygon style="fill:url(#SVGID_00000125591659447758247250000004770356132493555843_);" points="-706.96,287.51 
								-685.03,287.51 -682.19,304.83 -704.13,304.83 							"/>
							
								<linearGradient id="SVGID_00000074427754693069574110000007860525027839911049_" gradientUnits="userSpaceOnUse" x1="-685.0317" y1="295.376" x2="-681.1072" y2="295.376">
								<stop  offset="0" style="stop-color:#66A8DE"/>
								<stop  offset="0.4372" style="stop-color:#9EC3E8"/>
								<stop  offset="0.8042" style="stop-color:#C7D7EF"/>
								<stop  offset="0.9929" style="stop-color:#D7DFF2"/>
							</linearGradient>
							<polygon style="fill:url(#SVGID_00000074427754693069574110000007860525027839911049_);" points="-685.03,287.51 
								-683.84,285.93 -681.11,303.33 -682.19,304.83 							"/>
							
								<linearGradient id="SVGID_00000132060591540585736930000011590211383613516982_" gradientUnits="userSpaceOnUse" x1="-706.9647" y1="286.7187" x2="-683.8417" y2="286.7187">
								<stop  offset="0" style="stop-color:#66A8DE"/>
								<stop  offset="0.4372" style="stop-color:#9EC3E8"/>
								<stop  offset="0.8042" style="stop-color:#C7D7EF"/>
								<stop  offset="0.9929" style="stop-color:#D7DFF2"/>
							</linearGradient>
							<polygon style="fill:url(#SVGID_00000132060591540585736930000011590211383613516982_);" points="-683.84,285.93 
								-705.85,285.93 -706.96,287.51 -685.03,287.51 							"/>
							
								<linearGradient id="SVGID_00000011717901142892591450000007655943514473645703_" gradientUnits="userSpaceOnUse" x1="-674.358" y1="291.591" x2="-667.1472" y2="291.591">
								<stop  offset="0" style="stop-color:#66A8DE"/>
								<stop  offset="0.4372" style="stop-color:#9EC3E8"/>
								<stop  offset="0.8042" style="stop-color:#C7D7EF"/>
								<stop  offset="0.9929" style="stop-color:#D7DFF2"/>
							</linearGradient>
							<polygon style="fill:url(#SVGID_00000011717901142892591450000007655943514473645703_);" points="-668.18,311.19 
								-667.15,309.62 -673.07,271.99 -674.36,273.48 							"/>
							
								<linearGradient id="SVGID_00000075134780142187481420000015939724585066041222_" gradientUnits="userSpaceOnUse" x1="-722.1298" y1="272.735" x2="-673.0704" y2="272.735">
								<stop  offset="0" style="stop-color:#66A8DE"/>
								<stop  offset="0.4372" style="stop-color:#9EC3E8"/>
								<stop  offset="0.8042" style="stop-color:#C7D7EF"/>
								<stop  offset="0.9929" style="stop-color:#D7DFF2"/>
							</linearGradient>
							<polygon style="fill:url(#SVGID_00000075134780142187481420000015939724585066041222_);" points="-673.07,271.99 
								-720.97,271.99 -722.13,273.48 -674.36,273.48 							"/>
						</g>
						
							<linearGradient id="SVGID_00000121266327642443726130000007680945806644524189_" gradientUnits="userSpaceOnUse" x1="-693.576" y1="319.7441" x2="-693.576" y2="315.5979">
							<stop  offset="7.131410e-03" style="stop-color:#D7DFF2"/>
							<stop  offset="0.1958" style="stop-color:#C7D7EF"/>
							<stop  offset="0.5628" style="stop-color:#9EC3E8"/>
							<stop  offset="1" style="stop-color:#66A8DE"/>
						</linearGradient>
						<path style="fill:url(#SVGID_00000121266327642443726130000007680945806644524189_);" d="M-705.82,317.07h24.48
							c1.79,0,3.23,1.45,3.23,3.23l0,0h-30.95l0,0C-709.05,318.51-707.6,317.07-705.82,317.07z"/>
						
							<linearGradient id="SVGID_00000096752629202227792760000001174933177995088806_" gradientUnits="userSpaceOnUse" x1="-694.0274" y1="319.4007" x2="-694.0274" y2="296.2751">
							<stop  offset="0" style="stop-color:#66A8DE"/>
							<stop  offset="0.4372" style="stop-color:#9EC3E8"/>
							<stop  offset="0.8042" style="stop-color:#C7D7EF"/>
							<stop  offset="0.9929" style="stop-color:#D7DFF2"/>
						</linearGradient>
						<path style="fill:url(#SVGID_00000096752629202227792760000001174933177995088806_);" d="M-685.97,317.07l-1.31-16.53
							c-0.28-3.52-3.22-6.23-6.75-6.23h0c-3.53,0-6.47,2.71-6.75,6.23l-1.31,16.53H-685.97z"/>
					</g>
				</g>
				<g>
					<g>
						<g>
							<g>
								
									<linearGradient id="SVGID_00000079470621335679048770000014370840323264417416_" gradientUnits="userSpaceOnUse" x1="-427.7075" y1="283.8866" x2="-387.5507" y2="283.8866">
									<stop  offset="0.0117" style="stop-color:#5692A3"/>
									<stop  offset="0.1678" style="stop-color:#629DA5"/>
									<stop  offset="0.9961" style="stop-color:#A0D6AD"/>
								</linearGradient>
								<path style="fill:url(#SVGID_00000079470621335679048770000014370840323264417416_);" d="M-427.7,283.48
									c0.07-3.57,1.47-7.39,4.54-9.38c3.72-2.41,7.64-0.23,11.34,1.47c-1.09-2.79-4.37-3.58-6.62-5.12
									c9.95-6.48,22.79-4.99,22.79-4.99s7.59,8.88,7.95,13.05c-2.14-0.5-4.25-1.22-6.48-1.49c2.13,0.78,5.39,4,6.41,6.94
									c0.86,2.47-0.98,6.86-2.16,9.2c-2.33,4.63-10.08,13.31-15.42,7.21c-4.46-5.1-2.48-12.16-11.53-9.95
									C-423.66,292.07-427.87,291.93-427.7,283.48z"/>
							</g>
							<path class="st11" d="M-421.33,335.54c-0.4-12.22-0.75-24.75,2.84-36.58c1.34-4.4,3.23-9.05,5.5-13.23
								c-1-0.61-1.88-1.61-2.86-2.19c-1.63-0.97-3.41-1.59-5.27-1.95c-0.6-0.12-0.33-1.03,0.27-0.91c1.62,0.31,3.18,0.83,4.65,1.58
								c0.71,0.36,1.4,0.78,2.05,1.25c0.49,0.35,1.05,0.96,1.62,1.35c0.4-0.71,0.82-1.41,1.24-2.09c0.15-0.24,0.32-0.46,0.48-0.7
								c-1.36-2.02-3.04-3.73-5.04-5.13c-0.5-0.35-0.01-1.17,0.5-0.82c2.01,1.41,3.71,3.12,5.11,5.12c1.1-1.5,2.37-2.92,3.7-4.29
								c-0.72-2.21-1.73-4.25-3.05-6.17c-0.35-0.51,0.49-0.97,0.84-0.46c1.26,1.83,2.22,3.79,2.95,5.88
								c1.36-1.36,2.78-2.67,4.17-3.97c-0.67-1.33-1.28-2.67-1.85-4.04c-0.23-0.56,0.6-1.03,0.83-0.46c0.53,1.3,1.12,2.57,1.74,3.82
								c0.82-0.77,1.63-1.54,2.41-2.32c0.44-0.44,1.1,0.25,0.66,0.69c-0.72,0.72-1.47,1.44-2.23,2.15c1.83,0.11,3.67,0.23,5.5,0.34
								c0.61,0.04,0.59,0.99-0.03,0.95c-1.98-0.12-3.96-0.24-5.95-0.37c-0.15-0.01-0.26-0.07-0.33-0.16
								c-1.35,1.27-2.73,2.55-4.06,3.87c1.76,0.08,3.48,0.38,5.2,0.78c1.54,0.36,3.11,0.61,4.3,1.71c0.45,0.42-0.24,1.08-0.69,0.66
								c-1.15-1.06-3.02-1.26-4.49-1.59c-1.68-0.37-3.36-0.62-5.08-0.63c-0.05,0-0.08-0.02-0.12-0.03c-1.18,1.21-2.3,2.46-3.3,3.78
								c4.78,0.49,9.51,1.38,13.18,4.73c0.45,0.42-0.24,1.08-0.69,0.66c-3.63-3.32-8.43-4.05-13.15-4.5
								c-0.39,0.56-0.77,1.12-1.1,1.69c-0.25,0.43-0.49,0.86-0.73,1.3c2.31,0.53,4.77,0.91,6.83,2.14c1.78,1.06,3.15,2.63,4.35,4.29
								c0.36,0.5-0.48,0.96-0.84,0.46c-1.21-1.68-2.65-3.26-4.52-4.23c-1.92-0.99-4.2-1.31-6.29-1.8c-0.01,0-0.01,0-0.02,0
								c-2.49,4.61-4.57,9.61-5.95,14.62c-3.12,11.3-2.74,23.21-2.36,34.81C-420.35,336.19-421.31,336.16-421.33,335.54z"/>
						</g>
						<g>
							<g>
								
									<linearGradient id="SVGID_00000005971688754135468470000014198501169330452924_" gradientUnits="userSpaceOnUse" x1="-450.4795" y1="296.2192" x2="-418.1555" y2="296.2192">
									<stop  offset="0.0117" style="stop-color:#5692A3"/>
									<stop  offset="0.1678" style="stop-color:#629DA5"/>
									<stop  offset="0.9961" style="stop-color:#A0D6AD"/>
								</linearGradient>
								<path style="fill:url(#SVGID_00000005971688754135468470000014198501169330452924_);" d="M-418.16,295.89
									c-0.06-2.87-1.19-5.95-3.65-7.55c-2.99-1.94-6.15-0.19-9.13,1.18c0.88-2.25,3.51-2.88,5.33-4.12
									c-8.01-5.22-18.35-4.02-18.35-4.02s-6.11,7.15-6.4,10.5c1.73-0.4,3.42-0.98,5.22-1.2c-1.72,0.63-4.34,3.22-5.16,5.59
									c-0.69,1.99,0.79,5.52,1.74,7.41c1.87,3.73,8.11,10.72,12.42,5.8c3.59-4.1,2-9.78,9.28-8.01
									C-421.41,302.8-418.02,302.69-418.16,295.89z"/>
							</g>
							<path class="st11" d="M-423.29,337.8c0.32-9.83,0.61-19.93-2.29-29.44c-1.08-3.54-2.6-7.29-4.43-10.65
								c0.8-0.49,1.51-1.3,2.3-1.76c1.31-0.78,2.74-1.28,4.24-1.57c0.48-0.09,0.26-0.83-0.22-0.74c-1.3,0.25-2.56,0.67-3.74,1.28
								c-0.57,0.29-1.13,0.63-1.65,1.01c-0.4,0.29-0.85,0.77-1.31,1.09c-0.33-0.57-0.66-1.14-1-1.68c-0.12-0.19-0.26-0.37-0.39-0.56
								c1.1-1.62,2.45-3,4.06-4.13c0.4-0.28,0.01-0.94-0.4-0.66c-1.62,1.13-2.98,2.51-4.12,4.12c-0.89-1.21-1.9-2.35-2.98-3.45
								c0.58-1.78,1.39-3.42,2.45-4.96c0.28-0.41-0.39-0.78-0.67-0.37c-1.01,1.47-1.79,3.05-2.37,4.73c-1.1-1.09-2.24-2.15-3.36-3.2
								c0.54-1.07,1.03-2.15,1.49-3.25c0.19-0.45-0.48-0.83-0.67-0.37c-0.43,1.04-0.9,2.07-1.4,3.08c-0.66-0.62-1.31-1.24-1.94-1.86
								c-0.35-0.35-0.88,0.2-0.53,0.55c0.58,0.58,1.18,1.16,1.8,1.73c-1.48,0.09-2.95,0.18-4.43,0.27c-0.49,0.03-0.47,0.8,0.02,0.77
								c1.6-0.1,3.19-0.2,4.79-0.29c0.12-0.01,0.21-0.06,0.27-0.13c1.09,1.02,2.2,2.05,3.27,3.11c-1.42,0.07-2.8,0.3-4.19,0.63
								c-1.24,0.29-2.5,0.49-3.46,1.37c-0.37,0.34,0.19,0.87,0.55,0.53c0.93-0.85,2.43-1.02,3.62-1.28c1.35-0.3,2.7-0.5,4.09-0.51
								c0.04,0,0.07-0.01,0.1-0.02c0.95,0.98,1.85,1.98,2.65,3.04c-3.84,0.39-7.66,1.11-10.61,3.81c-0.37,0.33,0.19,0.87,0.55,0.53
								c2.92-2.67,6.78-3.26,10.58-3.62c0.31,0.45,0.62,0.9,0.89,1.36c0.2,0.34,0.39,0.7,0.59,1.04c-1.86,0.42-3.84,0.74-5.5,1.72
								c-1.43,0.85-2.54,2.12-3.5,3.45c-0.29,0.4,0.39,0.77,0.67,0.37c0.98-1.36,2.14-2.62,3.64-3.4c1.55-0.8,3.38-1.06,5.06-1.45
								c0.01,0,0.01,0,0.02,0c2.01,3.71,3.68,7.74,4.79,11.77c2.51,9.1,2.21,18.68,1.9,28.02
								C-424.07,338.32-423.31,338.29-423.29,337.8z"/>
						</g>
						<g>
							<g>
								
									<linearGradient id="SVGID_00000130615955849460821160000010138340515806024354_" gradientUnits="userSpaceOnUse" x1="-417.1381" y1="301.7208" x2="-382.8949" y2="301.7208">
									<stop  offset="0.0117" style="stop-color:#5692A3"/>
									<stop  offset="0.1678" style="stop-color:#629DA5"/>
									<stop  offset="0.9961" style="stop-color:#A0D6AD"/>
								</linearGradient>
								<path style="fill:url(#SVGID_00000130615955849460821160000010138340515806024354_);" d="M-416.65,296.34
									c0.77-2.9,2.67-5.76,5.57-6.77c3.52-1.23,6.29,1.33,8.99,3.45c-0.34-2.5-2.86-3.79-4.4-5.5c9.42-3.33,19.64,0.44,19.64,0.44
									s4.45,8.77,3.91,12.25c-1.65-0.84-3.24-1.84-5.01-2.51c1.59,1.06,3.61,4.34,3.87,6.95c0.21,2.19-2.17,5.42-3.59,7.1
									c-2.82,3.32-10.89,8.89-14.05,2.83c-2.64-5.05,0.38-10.44-7.46-10.43C-415.05,304.17-418.47,303.22-416.65,296.34z"/>
							</g>
							<path class="st11" d="M-421.77,340.2c2.1-10.07,4.3-20.4,9.58-29.36c1.97-3.33,4.43-6.76,7.12-9.73
								c-0.7-0.69-1.21-1.69-1.9-2.36c-1.14-1.11-2.47-1.98-3.92-2.64c-0.47-0.21-0.06-0.91,0.41-0.69
								c1.26,0.58,2.43,1.31,3.49,2.22c0.51,0.44,0.99,0.92,1.43,1.43c0.33,0.39,0.67,0.99,1.06,1.43c0.47-0.5,0.95-0.99,1.43-1.46
								c0.17-0.16,0.36-0.31,0.53-0.47c-0.72-1.92-1.75-3.65-3.1-5.19c-0.34-0.39,0.23-0.96,0.57-0.57c1.37,1.55,2.41,3.29,3.17,5.2
								c1.2-1.01,2.51-1.92,3.88-2.77c-0.15-1.95-0.57-3.82-1.27-5.65c-0.18-0.48,0.59-0.69,0.77-0.21
								c0.66,1.75,1.07,3.54,1.25,5.39c1.38-0.84,2.8-1.63,4.2-2.42c-0.28-1.22-0.52-2.44-0.71-3.67c-0.08-0.51,0.7-0.72,0.78-0.21
								c0.18,1.17,0.41,2.32,0.67,3.47c0.83-0.47,1.64-0.94,2.43-1.42c0.44-0.27,0.85,0.42,0.41,0.69
								c-0.73,0.44-1.49,0.88-2.25,1.32c1.48,0.46,2.95,0.91,4.43,1.37c0.49,0.15,0.28,0.93-0.21,0.77
								c-1.6-0.49-3.19-0.99-4.79-1.48c-0.12-0.04-0.2-0.11-0.24-0.2c-1.36,0.77-2.74,1.54-4.09,2.36c1.42,0.42,2.77,1,4.1,1.67
								c1.19,0.6,2.42,1.11,3.18,2.25c0.29,0.43-0.41,0.83-0.69,0.41c-0.73-1.1-2.22-1.63-3.36-2.19c-1.3-0.64-2.62-1.17-4.03-1.53
								c-0.04-0.01-0.06-0.03-0.09-0.04c-1.2,0.76-2.37,1.56-3.45,2.43c3.81,1.35,7.51,3.02,9.84,6.48
								c0.29,0.43-0.41,0.83-0.69,0.41c-2.31-3.44-6.09-4.99-9.86-6.29c-0.43,0.38-0.85,0.76-1.24,1.17
								c-0.29,0.3-0.57,0.61-0.86,0.92c1.79,0.89,3.72,1.69,5.17,3.11c1.25,1.22,2.06,2.78,2.71,4.37c0.2,0.48-0.58,0.69-0.78,0.21
								c-0.66-1.62-1.52-3.19-2.86-4.35c-1.37-1.19-3.18-1.91-4.79-2.72c-0.01,0-0.01,0-0.02-0.01c-2.96,3.28-5.65,6.96-7.77,10.78
								c-4.8,8.62-6.85,18.44-8.84,28.01C-421.1,340.92-421.87,340.71-421.77,340.2z"/>
						</g>
					</g>
					<g>
						<g>
							<g>
								
									<linearGradient id="SVGID_00000123403673304838434800000003615512255937994116_" gradientUnits="userSpaceOnUse" x1="-426.0123" y1="308.7781" x2="-403.0838" y2="308.7781">
									<stop  offset="0.0117" style="stop-color:#5692A3"/>
									<stop  offset="0.1678" style="stop-color:#629DA5"/>
									<stop  offset="0.9961" style="stop-color:#A0D6AD"/>
								</linearGradient>
								<path style="fill:url(#SVGID_00000123403673304838434800000003615512255937994116_);" d="M-426.01,308.54
									c0.04-2.04,0.84-4.22,2.59-5.35c2.12-1.37,4.36-0.13,6.48,0.84c-0.62-1.59-2.49-2.04-3.78-2.92
									c5.68-3.7,13.01-2.85,13.01-2.85s4.33,5.07,4.54,7.45c-1.22-0.29-2.43-0.7-3.7-0.85c1.22,0.45,3.08,2.28,3.66,3.97
									c0.49,1.41-0.56,3.92-1.23,5.25c-1.33,2.64-5.76,7.6-8.81,4.11c-2.55-2.91-1.42-6.94-6.59-5.68
									C-423.7,313.45-426.11,313.37-426.01,308.54z"/>
							</g>
							<path class="st11" d="M-422.37,338.27c-0.23-6.97-0.43-14.13,1.62-20.89c0.76-2.51,1.84-5.17,3.14-7.55
								c-0.57-0.35-1.07-0.92-1.63-1.25c-0.93-0.55-1.95-0.91-3.01-1.11c-0.34-0.07-0.19-0.59,0.16-0.52
								c0.93,0.18,1.81,0.47,2.65,0.9c0.41,0.21,0.8,0.45,1.17,0.71c0.28,0.2,0.6,0.55,0.93,0.77c0.23-0.41,0.47-0.81,0.71-1.19
								c0.09-0.14,0.19-0.26,0.28-0.4c-0.78-1.15-1.73-2.13-2.88-2.93c-0.29-0.2,0-0.67,0.28-0.47c1.15,0.8,2.12,1.78,2.92,2.92
								c0.63-0.86,1.35-1.67,2.11-2.45c-0.41-1.26-0.99-2.43-1.74-3.52c-0.2-0.29,0.28-0.55,0.48-0.26
								c0.72,1.05,1.27,2.16,1.68,3.36c0.78-0.78,1.59-1.53,2.38-2.27c-0.38-0.76-0.73-1.52-1.06-2.31
								c-0.13-0.32,0.34-0.59,0.48-0.26c0.3,0.74,0.64,1.47,0.99,2.18c0.47-0.44,0.93-0.88,1.37-1.32c0.25-0.25,0.63,0.14,0.38,0.39
								c-0.41,0.41-0.84,0.82-1.27,1.23c1.05,0.06,2.09,0.13,3.14,0.19c0.35,0.02,0.33,0.57-0.02,0.55
								c-1.13-0.07-2.26-0.14-3.4-0.21c-0.08-0.01-0.15-0.04-0.19-0.09c-0.77,0.72-1.56,1.45-2.32,2.21c1,0.05,1.99,0.22,2.97,0.44
								c0.88,0.2,1.78,0.35,2.46,0.97c0.26,0.24-0.14,0.61-0.39,0.38c-0.66-0.61-1.72-0.72-2.57-0.91c-0.96-0.21-1.92-0.35-2.9-0.36
								c-0.03,0-0.05-0.01-0.07-0.01c-0.67,0.69-1.31,1.41-1.88,2.16c2.73,0.28,5.43,0.79,7.52,2.7c0.26,0.24-0.13,0.61-0.39,0.38
								c-2.07-1.9-4.81-2.31-7.51-2.57c-0.22,0.32-0.44,0.64-0.63,0.97c-0.14,0.24-0.28,0.49-0.42,0.74c1.32,0.3,2.73,0.52,3.9,1.22
								c1.02,0.6,1.8,1.5,2.48,2.45c0.21,0.28-0.27,0.55-0.48,0.26c-0.69-0.96-1.52-1.86-2.58-2.41c-1.1-0.57-2.4-0.75-3.59-1.03
								c0,0-0.01,0-0.01,0c-1.42,2.63-2.61,5.49-3.4,8.35c-1.78,6.45-1.57,13.25-1.35,19.88
								C-421.81,338.64-422.36,338.62-422.37,338.27z"/>
						</g>
						<g>
							<g>
								
									<linearGradient id="SVGID_00000172421196167390678830000017874736047202503599_" gradientUnits="userSpaceOnUse" x1="-439.0144" y1="315.8197" x2="-420.5583" y2="315.8197">
									<stop  offset="0.0117" style="stop-color:#5692A3"/>
									<stop  offset="0.1678" style="stop-color:#629DA5"/>
									<stop  offset="0.9961" style="stop-color:#A0D6AD"/>
								</linearGradient>
								<path style="fill:url(#SVGID_00000172421196167390678830000017874736047202503599_);" d="M-420.56,315.63
									c-0.03-1.64-0.68-3.4-2.09-4.31c-1.71-1.11-3.51-0.11-5.21,0.67c0.5-1.28,2.01-1.65,3.04-2.35
									c-4.57-2.98-10.48-2.3-10.48-2.3s-3.49,4.08-3.65,6c0.99-0.23,1.95-0.56,2.98-0.69c-0.98,0.36-2.48,1.84-2.95,3.19
									c-0.39,1.14,0.45,3.15,0.99,4.23c1.07,2.13,4.63,6.12,7.09,3.31c2.05-2.34,1.14-5.59,5.3-4.57
									C-422.42,319.58-420.48,319.51-420.56,315.63z"/>
							</g>
							<path class="st11" d="M-423.49,339.56c0.18-5.61,0.35-11.38-1.31-16.81c-0.61-2.02-1.48-4.16-2.53-6.08
								c0.46-0.28,0.86-0.74,1.31-1.01c0.75-0.44,1.57-0.73,2.42-0.9c0.28-0.05,0.15-0.47-0.13-0.42c-0.74,0.14-1.46,0.38-2.14,0.73
								c-0.33,0.17-0.64,0.36-0.94,0.58c-0.23,0.16-0.48,0.44-0.75,0.62c-0.19-0.33-0.38-0.65-0.57-0.96
								c-0.07-0.11-0.15-0.21-0.22-0.32c0.63-0.93,1.4-1.71,2.32-2.36c0.23-0.16,0-0.54-0.23-0.37c-0.92,0.65-1.7,1.44-2.35,2.35
								c-0.51-0.69-1.09-1.34-1.7-1.97c0.33-1.01,0.8-1.95,1.4-2.83c0.16-0.23-0.23-0.44-0.38-0.21c-0.58,0.84-1.02,1.74-1.36,2.7
								c-0.63-0.62-1.28-1.23-1.92-1.83c0.31-0.61,0.59-1.23,0.85-1.86c0.11-0.26-0.28-0.47-0.38-0.21c-0.25,0.6-0.51,1.18-0.8,1.76
								c-0.38-0.36-0.75-0.71-1.11-1.06c-0.2-0.2-0.5,0.12-0.3,0.32c0.33,0.33,0.68,0.66,1.03,0.99c-0.84,0.05-1.68,0.1-2.53,0.16
								c-0.28,0.02-0.27,0.46,0.01,0.44c0.91-0.06,1.82-0.11,2.73-0.17c0.07,0,0.12-0.03,0.15-0.08c0.62,0.58,1.25,1.17,1.86,1.78
								c-0.81,0.04-1.6,0.17-2.39,0.36c-0.71,0.16-1.43,0.28-1.98,0.78c-0.21,0.19,0.11,0.49,0.32,0.3
								c0.53-0.49,1.39-0.58,2.07-0.73c0.77-0.17,1.54-0.28,2.33-0.29c0.02,0,0.04-0.01,0.06-0.01c0.54,0.56,1.06,1.13,1.52,1.74
								c-2.19,0.22-4.37,0.63-6.06,2.17c-0.21,0.19,0.11,0.49,0.32,0.3c1.67-1.53,3.87-1.86,6.04-2.07
								c0.18,0.26,0.35,0.51,0.51,0.78c0.11,0.2,0.23,0.4,0.34,0.6c-1.06,0.24-2.19,0.42-3.14,0.98c-0.82,0.49-1.45,1.21-2,1.97
								c-0.17,0.23,0.22,0.44,0.38,0.21c0.56-0.77,1.22-1.5,2.08-1.94c0.88-0.46,1.93-0.6,2.89-0.83c0,0,0.01,0,0.01,0
								c1.15,2.12,2.1,4.42,2.74,6.72c1.44,5.19,1.26,10.67,1.09,16C-423.94,339.86-423.5,339.84-423.49,339.56z"/>
						</g>
						<g>
							<g>
								
									<linearGradient id="SVGID_00000040564038377781086210000013727852838990559933_" gradientUnits="userSpaceOnUse" x1="-419.9774" y1="318.961" x2="-400.4255" y2="318.961">
									<stop  offset="0.0117" style="stop-color:#5692A3"/>
									<stop  offset="0.1678" style="stop-color:#629DA5"/>
									<stop  offset="0.9961" style="stop-color:#A0D6AD"/>
								</linearGradient>
								<path style="fill:url(#SVGID_00000040564038377781086210000013727852838990559933_);" d="M-419.7,315.89
									c0.44-1.66,1.53-3.29,3.18-3.87c2.01-0.7,3.59,0.76,5.13,1.97c-0.19-1.43-1.63-2.17-2.51-3.14
									c5.38-1.9,11.21,0.25,11.21,0.25s2.54,5.01,2.23,6.99c-0.94-0.48-1.85-1.05-2.86-1.43c0.91,0.61,2.06,2.48,2.21,3.97
									c0.12,1.25-1.24,3.09-2.05,4.05c-1.61,1.9-6.22,5.08-8.02,1.62c-1.51-2.89,0.22-5.96-4.26-5.95
									C-418.79,320.36-420.74,319.82-419.7,315.89z"/>
							</g>
							<path class="st11" d="M-422.62,340.93c1.2-5.75,2.45-11.65,5.47-16.76c1.12-1.9,2.53-3.86,4.07-5.56
								c-0.4-0.4-0.69-0.96-1.09-1.35c-0.65-0.64-1.41-1.13-2.24-1.51c-0.27-0.12-0.04-0.52,0.23-0.4c0.72,0.33,1.39,0.75,1.99,1.27
								c0.29,0.25,0.56,0.52,0.82,0.82c0.19,0.22,0.38,0.57,0.61,0.82c0.27-0.29,0.54-0.57,0.82-0.84c0.1-0.09,0.2-0.18,0.3-0.27
								c-0.41-1.1-1-2.09-1.77-2.97c-0.19-0.22,0.13-0.55,0.32-0.32c0.78,0.88,1.38,1.88,1.81,2.97c0.68-0.58,1.44-1.09,2.21-1.58
								c-0.08-1.11-0.33-2.18-0.72-3.23c-0.11-0.28,0.34-0.4,0.44-0.12c0.38,1,0.61,2.02,0.71,3.08c0.79-0.48,1.6-0.93,2.4-1.38
								c-0.16-0.69-0.3-1.39-0.41-2.1c-0.04-0.29,0.4-0.41,0.44-0.12c0.1,0.67,0.23,1.33,0.38,1.98c0.47-0.27,0.94-0.54,1.39-0.81
								c0.25-0.15,0.48,0.24,0.23,0.4c-0.42,0.25-0.85,0.5-1.29,0.75c0.84,0.26,1.69,0.52,2.53,0.78c0.28,0.09,0.16,0.53-0.12,0.44
								c-0.91-0.28-1.82-0.56-2.74-0.84c-0.07-0.02-0.11-0.06-0.14-0.11c-0.77,0.44-1.56,0.88-2.33,1.35
								c0.81,0.24,1.58,0.57,2.34,0.95c0.68,0.34,1.38,0.64,1.82,1.28c0.16,0.25-0.23,0.48-0.4,0.23c-0.42-0.63-1.27-0.93-1.92-1.25
								c-0.74-0.36-1.5-0.67-2.3-0.87c-0.02-0.01-0.04-0.02-0.05-0.03c-0.69,0.43-1.35,0.89-1.97,1.39c2.18,0.77,4.29,1.72,5.62,3.7
								c0.17,0.25-0.23,0.48-0.4,0.23c-1.32-1.96-3.48-2.85-5.63-3.59c-0.24,0.22-0.48,0.43-0.71,0.67
								c-0.16,0.17-0.33,0.35-0.49,0.52c1.02,0.51,2.13,0.97,2.95,1.77c0.71,0.7,1.17,1.59,1.55,2.5c0.11,0.27-0.33,0.39-0.44,0.12
								c-0.38-0.92-0.87-1.82-1.63-2.49c-0.78-0.68-1.81-1.09-2.73-1.55c0,0-0.01,0-0.01,0c-1.69,1.87-3.22,3.97-4.44,6.15
								c-2.74,4.92-3.91,10.53-5.05,15.99C-422.24,341.34-422.68,341.22-422.62,340.93z"/>
						</g>
						<g>
							<g>
								
									<linearGradient id="SVGID_00000067217845863674301260000005994408079984580030_" gradientUnits="userSpaceOnUse" x1="-436.8373" y1="326.8435" x2="-424.5927" y2="326.8435">
									<stop  offset="0.0117" style="stop-color:#5692A3"/>
									<stop  offset="0.1678" style="stop-color:#629DA5"/>
									<stop  offset="0.9961" style="stop-color:#A0D6AD"/>
								</linearGradient>
								<path style="fill:url(#SVGID_00000067217845863674301260000005994408079984580030_);" d="M-424.77,324.92
									c-0.27-1.04-0.96-2.06-1.99-2.42c-1.26-0.44-2.25,0.47-3.21,1.23c0.12-0.89,1.02-1.36,1.57-1.97
									c-3.37-1.19-7.02,0.16-7.02,0.16s-1.59,3.14-1.4,4.38c0.59-0.3,1.16-0.66,1.79-0.9c-0.57,0.38-1.29,1.55-1.38,2.49
									c-0.08,0.78,0.77,1.94,1.28,2.54c1.01,1.19,3.89,3.18,5.02,1.01c0.94-1.81-0.14-3.73,2.67-3.73
									C-425.34,327.72-424.12,327.38-424.77,324.92z"/>
							</g>
							<path class="st11" d="M-422.94,340.6c-0.75-3.6-1.54-7.29-3.43-10.5c-0.7-1.19-1.59-2.42-2.55-3.48
								c0.25-0.25,0.43-0.6,0.68-0.84c0.41-0.4,0.88-0.71,1.4-0.94c0.17-0.08,0.02-0.32-0.14-0.25c-0.45,0.21-0.87,0.47-1.25,0.79
								c-0.18,0.16-0.35,0.33-0.51,0.51c-0.12,0.14-0.24,0.35-0.38,0.51c-0.17-0.18-0.34-0.36-0.51-0.52
								c-0.06-0.06-0.13-0.11-0.19-0.17c0.26-0.69,0.62-1.31,1.11-1.86c0.12-0.14-0.08-0.34-0.2-0.2c-0.49,0.55-0.86,1.18-1.13,1.86
								c-0.43-0.36-0.9-0.69-1.39-0.99c0.05-0.7,0.2-1.37,0.45-2.02c0.07-0.17-0.21-0.25-0.28-0.08c-0.24,0.62-0.38,1.27-0.45,1.93
								c-0.49-0.3-1-0.58-1.5-0.87c0.1-0.43,0.19-0.87,0.25-1.31c0.03-0.18-0.25-0.26-0.28-0.08c-0.06,0.42-0.15,0.83-0.24,1.24
								c-0.3-0.17-0.59-0.34-0.87-0.51c-0.16-0.1-0.3,0.15-0.15,0.25c0.26,0.16,0.53,0.32,0.81,0.47c-0.53,0.16-1.06,0.33-1.58,0.49
								c-0.18,0.05-0.1,0.33,0.08,0.28c0.57-0.18,1.14-0.35,1.71-0.53c0.04-0.01,0.07-0.04,0.09-0.07c0.49,0.27,0.98,0.55,1.46,0.84
								c-0.51,0.15-0.99,0.36-1.47,0.6c-0.42,0.21-0.87,0.4-1.14,0.8c-0.1,0.15,0.15,0.3,0.25,0.15c0.26-0.39,0.79-0.58,1.2-0.78
								c0.46-0.23,0.94-0.42,1.44-0.55c0.01,0,0.02-0.01,0.03-0.02c0.43,0.27,0.85,0.56,1.23,0.87c-1.36,0.48-2.69,1.08-3.52,2.32
								c-0.1,0.15,0.15,0.3,0.25,0.15c0.83-1.23,2.18-1.78,3.53-2.25c0.15,0.13,0.3,0.27,0.44,0.42c0.1,0.11,0.2,0.22,0.31,0.33
								c-0.64,0.32-1.33,0.61-1.85,1.11c-0.45,0.44-0.74,0.99-0.97,1.56c-0.07,0.17,0.21,0.25,0.28,0.08
								c0.24-0.58,0.55-1.14,1.02-1.56c0.49-0.43,1.14-0.68,1.71-0.97c0,0,0,0,0.01,0c1.06,1.17,2.02,2.49,2.78,3.85
								c1.72,3.08,2.45,6.59,3.16,10.01C-423.18,340.86-422.9,340.78-422.94,340.6z"/>
						</g>
					</g>
					
						<linearGradient id="SVGID_00000150081739962257711740000012890284628705053116_" gradientUnits="userSpaceOnUse" x1="-434.2887" y1="375.729" x2="-410.26" y2="375.729">
						<stop  offset="0.357" style="stop-color:#D7DFF2"/>
						<stop  offset="0.4792" style="stop-color:#C7D7EF"/>
						<stop  offset="0.7168" style="stop-color:#9EC3E8"/>
						<stop  offset="1" style="stop-color:#66A8DE"/>
					</linearGradient>
					<path style="fill:url(#SVGID_00000150081739962257711740000012890284628705053116_);" d="M-410.05,382.42
						c0-9.84-1.78-18.61-4.55-24.29c-3.13-6.42-4.62-13.51-4.62-20.65l0,0h-5.69l0,0c0,7.14-1.49,14.24-4.62,20.65
						c-2.77,5.68-4.55,14.44-4.55,24.29c0,13.64,3.42,25.22,8.16,29.36v2.19h7.7v-2.19C-413.47,407.64-410.05,396.07-410.05,382.42z
						"/>
				</g>
			</g>
		</g>
	</g>
</g>
<g id="DESIGNED_BY_FREEPIK">
</g>
</svg>
