<svg width="36" height="36" viewBox="0 0 36 36" fill="none" xmlns="http://www.w3.org/2000/svg">
<path d="M7.5 13.125H28.5C28.7984 13.125 29.0845 13.0065 29.2955 12.7955C29.5065 12.5845 29.625 12.2984 29.625 12C29.625 11.7016 29.5065 11.4155 29.2955 11.2045C29.0845 10.9935 28.7984 10.875 28.5 10.875H7.5C7.20163 10.875 6.91548 10.9935 6.7045 11.2045C6.49353 11.4155 6.375 11.7016 6.375 12C6.375 12.2984 6.49353 12.5845 6.7045 12.7955C6.91548 13.0065 7.20163 13.125 7.5 13.125Z" fill="white"/>
<path d="M7.5 19.125H19.5C19.7984 19.125 20.0845 19.0065 20.2955 18.7955C20.5065 18.5845 20.625 18.2984 20.625 18C20.625 17.7016 20.5065 17.4155 20.2955 17.2045C20.0845 16.9935 19.7984 16.875 19.5 16.875H7.5C7.20163 16.875 6.91548 16.9935 6.7045 17.2045C6.49353 17.4155 6.375 17.7016 6.375 18C6.375 18.2984 6.49353 18.5845 6.7045 18.7955C6.91548 19.0065 7.20163 19.125 7.5 19.125Z" fill="white"/>
<path d="M28.5 22.875H7.5C7.20163 22.875 6.91548 22.9935 6.7045 23.2045C6.49353 23.4155 6.375 23.7016 6.375 24C6.375 24.2984 6.49353 24.5845 6.7045 24.7955C6.91548 25.0065 7.20163 25.125 7.5 25.125H28.5C28.7984 25.125 29.0845 25.0065 29.2955 24.7955C29.5065 24.5845 29.625 24.2984 29.625 24C29.625 23.7016 29.5065 23.4155 29.2955 23.2045C29.0845 22.9935 28.7984 22.875 28.5 22.875Z" fill="white"/>
</svg>
